<?xml version="1.0" encoding="utf-8"?>
<!-- Generator: Adobe Illustrator 16.0.0, SVG Export Plug-In . SVG Version: 6.00 Build 0)  -->
<!DOCTYPE svg PUBLIC "-//W3C//DTD SVG 1.1//EN" "http://www.w3.org/Graphics/SVG/1.1/DTD/svg11.dtd">
<svg version="1.1" id="Layer_1" xmlns="http://www.w3.org/2000/svg" xmlns:xlink="http://www.w3.org/1999/xlink" x="0px" y="0px"
	 width="128px" height="128px" viewBox="450 321 128 128" enable-background="new 450 321 128 128" xml:space="preserve">
<path d="M572.215,406.356c0,11.02,0,21.938,0,33.236c-38.688,0-77.243,0-116.25,0c0-10.912,0-21.928,0-33.236
	C494.719,406.356,533.297,406.356,572.215,406.356z"/>
<path d="M455.88,330.742c28.427,0,56.178,0,84.3,0c0,11.211,0,22.1,0,33.286c-28.152,0-56.043,0-84.3,0
	C455.88,352.834,455.88,341.957,455.88,330.742z"/>
<path d="M455.862,401.919c0-11.153,0-21.893,0-33.061c17.259,0,34.298,0,51.693,0c0,10.978,0,21.836,0,33.061
	C490.389,401.919,473.486,401.919,455.862,401.919z"/>
</svg>
