<?xml version="1.0" encoding="utf-8"?>
<!-- Generator: Adobe Illustrator 16.0.0, SVG Export Plug-In . SVG Version: 6.00 Build 0)  -->
<!DOCTYPE svg PUBLIC "-//W3C//DTD SVG 1.1//EN" "http://www.w3.org/Graphics/SVG/1.1/DTD/svg11.dtd">
<svg version="1.1" id="Layer_1" xmlns="http://www.w3.org/2000/svg" xmlns:xlink="http://www.w3.org/1999/xlink" x="0px" y="0px"
	 width="1177.659px" height="686.531px" viewBox="0 0 1177.659 686.531" enable-background="new 0 0 1177.659 686.531"
	 xml:space="preserve">
<path fill-rule="evenodd" clip-rule="evenodd" fill="#000000" d="M90.183,686.495c-0.802-0.143-1.6-0.091-2.397,0.035
	c-0.795-0.004-1.589-0.009-2.384-0.013c-1.276-0.002-2.553-0.004-3.83-0.006c-2.109,0-4.218,0-6.328,0
	c-0.963,0.006-1.925,0.013-2.887,0.02c-0.792-0.008-1.583-0.017-2.375-0.024c-2.307-0.319-4.502-0.982-6.659-1.879
	c-9.594-3.987-19.012-8.333-28.053-13.468c-2.851-1.618-5.656-3.313-8.275-5.289c-1.401-1.058-2.751-2.189-4.067-3.353
	c-1.727-1.526-2.852-3.445-3.291-5.714c-0.365-1.88-0.721-3.77-0.932-5.671c-0.467-4.215-0.545-8.452-0.581-12.691
	c-0.068-7.999,0.26-15.987,0.684-23.97c0.364-6.862,0.882-13.717,1.377-20.572c0.271-3.746,0.646-7.484,0.956-11.228
	c0.12-1.457,0.552-2.747,1.363-4.011c6.128-9.549,12.178-19.146,18.29-28.705c0.794-1.241,1.252-2.502,1.465-3.976
	c0.972-6.728,1.696-13.481,2.115-20.261c0.306-4.943,0.451-9.9-0.182-14.847c-0.226-1.763-0.717-3.434-1.333-5.08
	c-1.18-3.149-2.709-6.135-4.338-9.068c-4.74-8.537-10.191-16.617-15.923-24.509c-6.012-8.278-12.106-16.496-18.165-24.74
	c-0.189-0.258-0.355-0.536-0.571-0.771c-1.084-1.173-1.452-2.548-1.499-4.141c-0.152-5.193-0.407-10.383-0.641-15.573
	c-0.316-7.026-0.648-14.053-0.977-21.078c-0.131-2.794-0.268-5.588-0.401-8.382c0.199-1.434,0.104-2.856-0.143-4.275
	c-0.19-1.097-0.352-2.171,0.028-3.288c0.281-0.825,0.316-1.721,0.105-2.596c0.617-8.612,1.238-17.224,1.848-25.836
	c0.39-5.502,0.746-11.008,1.15-16.509c0.388-5.262,0.824-10.52,1.229-15.78c0.369-4.782,0.71-9.566,1.093-14.348
	c0.421-5.26,0.861-10.517,1.322-15.772c0.273-3.104,0.527-6.215,0.922-9.306c0.679-5.318,1.997-10.514,3.297-15.705
	c5.103-20.379,11.049-40.522,17.115-60.631c0.297-0.984,0.748-1.936,1.231-2.848c12.037-22.727,24.094-45.442,36.131-68.169
	c1.719-3.245,3.3-6.562,5.28-9.667c4.381-6.87,8.717-13.77,13.112-20.631c1.294-2.02,2.799-3.891,4.36-5.719
	c15.735-18.426,31.388-36.92,47.201-55.278c8.297-9.632,16.519-19.326,24.764-29.002c3.058-3.588,6.318-7.019,8.93-10.964
	c0.62-0.938,1.501-1.141,2.409-1.369c5.964-1.495,11.938-2.951,17.904-4.435c5.114-1.272,10.226-2.556,15.333-3.858
	c1.334-0.34,2.699-0.409,4.044-0.395c1.464,0.016,2.957-0.57,4.401,0.121c-0.165,1.456-0.959,2.681-1.516,3.983
	c-3.705,8.663-7.47,17.301-11.177,25.963c-0.259,0.604-0.897,1.181-0.502,1.981c0.598-0.128,0.973-0.569,1.411-0.906
	c3.93-3.021,7.543-6.396,11.111-9.828c7.552-7.263,15.128-14.5,22.69-21.752c0.229-0.22,0.422-0.476,0.632-0.715
	c1.133,0.014,2.266,0.027,3.398,0.041c2.217,0.298,4.431,0.63,6.651,0.889c8.336,0.972,16.674,1.924,25.012,2.874
	c2.066,0.235,4.137,0.421,6.201,0.655c0.631,0.072,1.262,0.201,1.873,0.372c0.166,0.046,0.332,0.326,0.373,0.525
	c0.045,0.219-0.059,0.468-0.086,0.704c-0.562,4.763-1.164,9.521-1.656,14.291c-0.131,1.28-0.699,2.245-1.424,3.218
	c-9.215,12.379-18.34,24.825-27.645,37.137c-11.525,15.252-22.262,31.059-33.237,46.698c-3.398,4.843-6.702,9.753-10.165,14.549
	c-3.616,5.007-6.544,10.418-9.532,15.793c-0.965,1.735-1.634,3.639-2.408,5.477c-9.582,22.743-19.162,45.488-28.732,68.236
	c-1.087,2.584-1.716,5.317-2.462,8.008c-1.304,4.696-2.447,9.433-3.141,14.267c-0.386,2.693-0.711,5.394-0.707,8.117
	c0.01,5.198-0.03,10.399,0.117,15.596c0.147,5.192,0.455,10.384,1.31,15.521c0.328,1.971,0.785,3.91,1.408,5.815
	c0.64,1.959,1.87,3.247,3.8,4.01c2.83,1.117,5.729,2.005,8.663,2.772c7.422,1.939,14.935,3.474,22.472,4.889
	c2.276,0.428,4.559,0.827,6.833,1.264c0.798,0.154,1.571,0.157,2.375-0.002c8.462-1.673,16.929-3.322,25.393-4.988
	c1.357-0.268,2.638-0.23,3.989,0.245c3.614,1.272,7.288,2.373,10.917,3.604c0.874,0.297,1.69,0.328,2.577,0.181
	c7.566-1.254,15.139-2.479,22.705-3.727c8.277-1.364,16.551-2.753,24.829-4.109c7.332-1.201,14.672-2.36,22.004-3.562
	s14.658-2.444,21.99-3.645c7.332-1.201,14.672-2.359,22.004-3.561c7.332-1.2,14.658-2.444,21.99-3.645
	c7.332-1.201,17.035,9.559,24.367,8.357c8.279-1.355,16.551-2.745,24.828-4.109c4.15-0.684,347.49-59.708,566.172-97.287
	c46.868-8.054,88.01-15.123,118.86-20.421c35.725-6.135,57.647-9.896,58.678-10.063c0.229-0.038,0.469-0.006,0.719-0.006
	c0.447,0.854,0.23,1.751,0.232,2.609c0.018,11.919-0.489,13.924-0.489,25.842c0,14.479,0,28.957,0,43.436
	c0,0.64,0.016,1.28-0.01,1.919c-0.031,0.782-0.199,0.975-0.961,1.11c-1.889,0.335-3.779,0.654-5.668,0.98
	c-2.668,0.461-67.392,11.399-157.918,26.694c-219.4,37.068-590.367,99.728-596.832,100.838c-8.82,1.514-17.645,2.995-26.461,4.518
	c-9.682,1.672-19.357,3.386-29.041,5.06c-7.871,1.361-15.75,2.679-23.623,4.037s-15.738,2.754-23.609,4.115
	c-7.795,1.348-15.592,2.668-23.387,4.009c-8.345,1.436-16.688,2.892-25.036,4.304c-0.717,0.121-1.145,0.458-1.494,1.034
	c-1.363,2.257-2.76,4.495-4.104,6.765c-0.48,0.811-1.072,1.223-2.045,1.415c-6.111,1.21-12.198,2.538-18.307,3.766
	c-1.754,0.353-3.285,0.995-4.743,2.08c-15.586,11.602-31.203,23.161-46.836,34.699c-1.501,1.107-2.77,2.372-3.881,3.863
	c-5.688,7.633-11.158,15.411-15.868,23.696c-1.341,2.358-2.552,4.793-3.782,7.213c-1.784,3.511-2.808,7.289-3.902,11.05
	c-2.521,8.667-4.927,17.362-6.826,26.19c-1.396,6.491-2.435,13.037-2.959,19.661c-0.587,7.43,0.456,14.657,2.525,21.788
	c2.856,9.845,6.588,19.358,11.023,28.576c1.966,4.087,3.219,8.296,4.043,12.708c0.997,5.339,2.119,10.654,3.202,15.977
	c0.209,1.026,0.294,2.05,0.274,3.097c-0.191,10.235-0.362,20.472-0.551,30.708c-0.144,7.757-0.309,15.513-0.451,23.27
	c-0.015,0.809-0.115,1.561-0.479,2.313c-3.318,6.847-7.688,12.881-13.499,17.849c-3.787,3.236-8.144,5.287-12.914,6.578
	c-5.171,1.398-10.411,2.467-15.685,3.389c-6.378,1.115-12.794,1.979-19.225,2.715c-4.05,0.463-8.117,0.769-12.177,1.14
	C94.004,686.167,92.093,686.328,90.183,686.495z"/>
</svg>
