<?xml version="1.0" encoding="utf-8"?>
<!-- Generator: Adobe Illustrator 16.0.0, SVG Export Plug-In . SVG Version: 6.00 Build 0)  -->
<!DOCTYPE svg PUBLIC "-//W3C//DTD SVG 1.1//EN" "http://www.w3.org/Graphics/SVG/1.1/DTD/svg11.dtd">
<svg version="1.1" id="Layer_1" xmlns="http://www.w3.org/2000/svg" xmlns:xlink="http://www.w3.org/1999/xlink" x="0px" y="0px"
	 width="38.376px" height="68.656px" viewBox="172.687 308.939 38.376 68.656"
	 enable-background="new 172.687 308.939 38.376 68.656" xml:space="preserve">
<path d="M211.062,344.213c-0.789,0.133-3.93,0.789-4.719,0.922c-0.789,0.141-1.57,0.273-2.359,0.414
	c-0.781,0.133-1.555,0.266-2.336,0.398c-0.844,0.148-1.672,0.297-2.508,0.438c-0.07,0.008-0.109,0.039-0.148,0.102
	c-0.141,0.227-0.273,0.445-0.406,0.672c-0.055,0.086-0.109,0.125-0.211,0.141c-0.602,0.125-1.219,0.258-1.828,0.375
	c-0.18,0.039-0.328,0.109-0.477,0.211c-1.555,1.164-3.117,2.32-4.68,3.469c-0.148,0.117-0.281,0.242-0.391,0.391
	c-0.57,0.758-1.117,1.539-1.586,2.367c-0.133,0.242-0.258,0.484-0.375,0.719c-0.188,0.352-0.281,0.734-0.391,1.109
	c-0.258,0.859-0.5,1.734-0.688,2.625c-0.133,0.641-0.242,1.297-0.289,1.961c-0.062,0.742,0.039,1.461,0.242,2.18
	c0.289,0.984,0.664,1.93,1.109,2.859c0.195,0.406,0.32,0.828,0.406,1.266c0.094,0.539,0.203,1.062,0.32,1.594
	c0.016,0.109,0.031,0.203,0.023,0.312c-0.016,1.023-0.031,2.047-0.055,3.078c-0.016,0.766-0.031,1.547-0.039,2.32
	c-0.008,0.078-0.016,0.156-0.055,0.234c-0.328,0.688-0.773,1.289-1.352,1.781c-0.375,0.328-0.812,0.539-1.289,0.664
	c-0.516,0.133-1.039,0.242-1.57,0.328c-0.633,0.117-1.273,0.203-1.922,0.273c-0.406,0.055-0.812,0.078-1.211,0.117
	c-0.195,0.023-0.391,0.031-0.578,0.047c-0.078-0.008-0.156-0.008-0.242,0.016c-0.078-0.016-0.156-0.016-0.234-0.016
	c-0.133,0-0.258,0-0.383,0c-0.211,0-0.422,0-0.633,0c-0.094,0-0.195,0-0.289,0.016c-0.078-0.016-0.156-0.016-0.234-0.016
	c-0.234-0.023-0.453-0.094-0.672-0.18c-0.953-0.398-1.898-0.836-2.805-1.352c-0.281-0.156-0.562-0.328-0.828-0.523
	c-0.141-0.109-0.273-0.219-0.406-0.336c-0.172-0.156-0.281-0.352-0.328-0.578c-0.039-0.18-0.07-0.367-0.094-0.562
	c-0.047-0.422-0.055-0.852-0.055-1.266c-0.008-0.805,0.023-1.609,0.07-2.398c0.031-0.695,0.086-1.375,0.133-2.055
	c0.023-0.375,0.062-0.758,0.094-1.125c0.016-0.148,0.062-0.273,0.141-0.406c0.609-0.953,1.219-1.906,1.828-2.867
	c0.078-0.125,0.125-0.258,0.148-0.398c0.094-0.672,0.172-1.352,0.211-2.023c0.023-0.5,0.039-0.992-0.023-1.484
	c-0.016-0.18-0.07-0.344-0.133-0.508c-0.117-0.32-0.266-0.617-0.43-0.906c-0.477-0.859-1.016-1.664-1.594-2.453
	c-0.602-0.828-1.211-1.648-1.82-2.469c-0.016-0.031-0.031-0.062-0.055-0.078c-0.109-0.117-0.141-0.258-0.148-0.422
	c-0.016-0.516-0.039-1.031-0.062-1.555c-0.031-0.703-0.07-1.406-0.102-2.109c-0.008-0.281-0.023-0.555-0.039-0.836
	c0.016-0.148,0.016-0.281-0.016-0.43c-0.016-0.109-0.031-0.219,0.008-0.328c0.023-0.086,0.031-0.172,0.008-0.258
	c0.062-0.859,0.125-1.727,0.188-2.586c0.039-0.555,0.07-1.102,0.117-1.648c0.039-0.531,0.078-1.047,0.117-1.578
	c0.039-0.477,0.07-0.953,0.109-1.438c0.047-0.523,0.086-1.047,0.133-1.578c0.031-0.312,0.055-0.617,0.094-0.93
	c0.062-0.531,0.195-1.047,0.328-1.57c0.508-2.039,1.109-4.047,1.711-6.062c0.031-0.094,0.07-0.195,0.125-0.281
	c1.203-2.273,2.406-4.547,3.609-6.82c0.172-0.32,0.336-0.656,0.531-0.961c0.438-0.688,0.867-1.383,1.312-2.07
	c0.125-0.195,0.273-0.391,0.43-0.57c1.578-1.844,3.141-3.688,4.727-5.523c0.828-0.961,1.648-1.938,2.477-2.906
	c0.305-0.359,0.625-0.703,0.891-1.094c0.062-0.094,0.148-0.117,0.242-0.141c0.594-0.148,1.195-0.289,1.789-0.445
	c0.516-0.125,1.023-0.25,1.531-0.383c0.133-0.031,0.273-0.039,0.406-0.039c0.148,0.008,0.297-0.055,0.438,0.016
	c-0.016,0.148-0.094,0.266-0.148,0.391c-0.367,0.875-0.75,1.734-1.117,2.602c-0.023,0.055-0.086,0.117-0.047,0.203
	c0.055-0.016,0.094-0.062,0.141-0.094c0.391-0.305,0.75-0.641,1.109-0.984c0.75-0.727,1.508-1.445,2.266-2.18
	c0.023-0.016,0.047-0.039,0.062-0.062c0.117,0,0.227,0,0.344,0c0.219,0.031,0.445,0.062,0.656,0.094
	c0.844,0.094,1.672,0.188,2.5,0.281c0.219,0.023,0.422,0.039,0.625,0.062c0.062,0.016,0.133,0.023,0.188,0.047
	c0.023,0,0.031,0.023,0.039,0.047c0,0.023-0.008,0.047-0.008,0.07c-0.062,0.477-0.117,0.953-0.164,1.43
	c-0.008,0.125-0.07,0.227-0.148,0.32c-0.922,1.242-1.828,2.484-2.766,3.711c-1.148,1.531-2.219,3.109-3.32,4.672
	c-0.336,0.484-0.664,0.977-1.016,1.453c-0.359,0.508-0.648,1.047-0.953,1.586c-0.094,0.172-0.164,0.359-0.242,0.547
	c-0.953,2.273-1.914,4.547-2.867,6.82c-0.109,0.258-0.172,0.531-0.25,0.797c-0.133,0.477-0.242,0.953-0.312,1.438
	c-0.039,0.266-0.07,0.531-0.07,0.805c0,0.523-0.008,1.039,0.008,1.562s0.047,1.039,0.133,1.547c0.031,0.203,0.078,0.391,0.141,0.586
	s0.188,0.328,0.383,0.398c0.281,0.109,0.57,0.203,0.867,0.281c0.742,0.195,1.492,0.344,2.242,0.484
	c0.227,0.047,0.461,0.086,0.688,0.125c0.078,0.016,0.156,0.016,0.234,0c0.844-0.164,1.695-0.328,2.539-0.492
	c0.141-0.031,0.266-0.031,0.406,0.023c0.359,0.125,0.719,0.234,1.094,0.359c0.086,0.031,0.164,0.031,0.25,0.016
	c0.75-0.125,1.516-0.242,2.266-0.375c0.828-0.133,1.656-0.273,2.492-0.406c0.727-0.125,1.461-0.234,2.195-0.359
	c0.734-0.117,1.469-0.242,2.195-0.367c0.734-0.117,1.469-0.234,2.211-0.352c0.734-0.117,1.461-0.242,2.195-0.367"/>
</svg>
