<?xml version="1.0" encoding="utf-8"?>
<!-- Generator: Adobe Illustrator 16.0.0, SVG Export Plug-In . SVG Version: 6.00 Build 0)  -->
<!DOCTYPE svg PUBLIC "-//W3C//DTD SVG 1.1//EN" "http://www.w3.org/Graphics/SVG/1.1/DTD/svg11.dtd">
<svg version="1.1" id="Layer_1" xmlns="http://www.w3.org/2000/svg" xmlns:xlink="http://www.w3.org/1999/xlink" x="0px" y="0px"
	 width="735.381px" height="243.308px" viewBox="1470.762 486.621 735.381 243.308"
	 enable-background="new 1470.762 486.621 735.381 243.308" xml:space="preserve">
<g>
	<path d="M1966.807,725.645c-13.27-0.201-26.302-0.399-39.442-0.599c-0.247-0.358-0.521-0.8-0.84-1.208
		c-1.508-1.931-1.521-4.054,0.109-5.938c0.586-0.677,0.783-1.253,0.566-2.144c-0.902-3.704-1.134-7.479-0.896-11.275
		c0.171-2.711,0.478-5.413,0.693-8.122c0.074-0.928,0.026-1.864,0.087-2.794c0.076-1.189,0.216-2.375,0.307-3.564
		c0.04-0.528,0.167-1.104,0.017-1.584c-0.754-2.408-0.173-4.76,0.273-7.098c0.177-0.931,0.051-1.636-0.398-2.444
		c-0.837-1.505-1.456-3.131-2.308-4.626c-0.96-1.684-0.877-3.493-0.715-5.257c0.223-2.423-0.624-4.27-2.412-5.792
		c-1.162-0.989-2.233-2.113-3.496-2.95c-2.656-1.761-5.343-0.71-6.076,2.415c-0.452,1.922-0.59,3.923-0.795,5.896
		c-0.096,0.923,0.029,1.867-0.026,2.797c-0.096,1.582,0.073,2.996,1.414,4.138c0.413,0.352,0.579,1.2,0.561,1.812
		c-0.056,1.786-0.21,3.574-0.444,5.346c-0.059,0.442-0.49,0.931-0.884,1.216c-0.788,0.57-1.037,1.271-1.051,2.217
		c-0.105,7.451-0.344,14.9-0.347,22.351c-0.002,3.546-0.942,6.779-2.258,9.992c-0.699,1.708-1.29,3.474-1.764,5.257
		c-0.271,1.022-0.738,1.511-1.772,1.465c-2.454-0.107-4.908-0.266-7.363-0.314c-3.264-0.065-6.529-0.057-9.795-0.057
		c-0.839,0-1.433,0.423-1.464,1.307c-0.048,1.299-0.864,1.475-1.901,1.474c-7.599-0.009-15.197,0.018-22.796-0.023
		c-1.587-0.009-3.207-0.099-4.746-0.443c-1.125-0.251-2.212-0.881-3.188-1.532c-0.828-0.553-0.739-1.648,0.051-2.432
		c1.225-1.212,2.806-1.379,4.423-1.511c1.036-0.084,2.06-0.344,3.085-0.545c2.851-0.56,4.433-2.914,6.237-4.771
		c1.371-1.409,2.075-3.472,3.039-5.264c0.144-0.267,0.171-0.657,0.109-0.963c-0.348-1.746-0.706-3.491-1.126-5.221
		c-0.293-1.213-0.688-2.401-1.039-3.6c-0.055-0.189-0.056-0.463-0.184-0.553c-1.546-1.09-1.141-2.713-1.154-4.203
		c-0.026-2.933-0.036-5.866,0.004-8.799c0.015-1.052-0.147-1.961-0.984-2.693c-1.509-1.32-1.268-3.012-0.7-4.598
		c0.31-0.863,0.463-1.58,0.229-2.479c-0.198-0.755-0.154-1.585-0.151-2.38c0.01-2.537-0.583-4.737-3.055-6.023
		c-1.309-0.682-1.821-1.779-1.781-3.288c0.049-1.787-0.162-3.579-0.195-5.37c-0.029-1.563-0.954-2.562-2.03-3.489
		c-0.647-0.559-1.229-1.066-1.521-1.997c-0.438-1.405-1.729-1.922-3.072-1.912c-1.063-2.097-0.765-4.182-0.786-6.229
		c-0.01-0.847,0.595-1.182,1.24-1.351c1.386-0.362,1.655-1.276,1.608-2.566c-0.089-2.396-0.027-4.798-0.076-7.197
		c-0.018-0.854-0.292-1.714-0.243-2.561c0.101-1.773,0.295-3.545,0.532-5.306c0.188-1.396,0.291-2.628-0.606-3.967
		c-0.768-1.146-0.946-2.686-1.382-4.036c-0.226-0.1-0.399-0.197-0.586-0.255c-1.001-0.31-2.005-0.61-3.008-0.913
		c-0.365-1.706-1.903-3.027-1.521-5.005c0.251-1.292,0.353-2.633,0.347-3.951c-0.006-1.517-0.252-3.031-0.308-4.55
		c-0.063-1.724,0.138-3.465-0.646-5.104c-0.163-0.34-0.156-0.784-0.146-1.178c0.029-1.239,0.423-1.661,1.688-1.713
		c1.193-0.048,2.389-0.011,3.737-0.011c0.13-3.124,1.298-5.857,2.453-8.521c-0.675-1.455-1.63-2.103-3.216-1.859
		c-1.042,0.16-2.13,0.075-3.194,0.021c-1.432-0.072-1.796-0.418-1.873-1.784c-0.16-2.849-0.253-5.703-0.424-8.551
		c-0.099-1.653-0.223-3.312-0.465-4.948c-0.498-3.378-0.468-6.737-0.034-10.122c0.099-0.767-0.226-1.711-0.646-2.394
		c-0.62-1.007-1.414-1.95-2.295-2.741c-0.962-0.865-1.146-1.799-0.597-2.845c0.637-1.213,0.495-2.242-0.233-3.364
		c-0.335-0.517-0.46-1.248-0.471-1.885c-0.044-2.532-0.023-5.065,0.008-7.598c0.021-1.649,0.295-1.978,1.916-2.591
		c1.512-0.572,2.979-1.163,3.404-3.012c0.093-0.405,0.519-0.766,0.857-1.075c0.809-0.739,1.482-1.488,1.416-2.716
		c-0.044-0.82,0.584-1.196,1.329-1.156c2.121,0.116,3.621-0.972,5.084-2.329c0.963-0.892,2.196-1.485,3.204-2.335
		c1.466-1.237,2.838-2.586,4.11-3.758c-0.531-1.401-0.928-2.585-1.427-3.724c-0.457-1.042-1.224-1.708-2.471-1.673
		c-1.318,0.037-2.638,0.008-3.992,0.008c-0.507-2.13-0.704-4.016-0.443-6.062c0.247-1.93-0.058-3.97-0.362-5.923
		c-0.526-3.371-0.623-6.695,0.253-10.021c0.362-1.375,1.252-2.311,2.346-3.121c1.915-1.419,3.836-2.831,5.723-4.287
		c0.619-0.477,1.13-0.893,1.93-0.306c0.271,0.198,0.744,0.125,1.127,0.166c0.652,0.068,1.321,0.06,1.954,0.209
		c0.766,0.182,1.486,0.632,2.252,0.71c0.695,0.072,1.426-0.198,1.835-0.266c1.771,2.069,3.396,3.962,5.016,5.859
		c0.293,0.344,0.716,0.666,0.823,1.066c0.342,1.279,0.764,2.586,0.791,3.891c0.061,2.785-0.122,5.575-0.178,8.364
		c-0.036,1.836-0.611,3.653-0.165,5.508c0.091,0.379,0.096,0.809,0.023,1.194c-0.287,1.529,0.154,2.748,1.536,3.393
		c1.021,0.361,2.03,0.754,3.063,1.073c0.938,0.29,1.889,0.565,2.854,0.726c1.307,0.217,2.632,0.317,3.949,0.469
		c0.065,0.007,0.146,0.01,0.191,0.048c1.54,1.342,3.447,1.129,5.198,1.097c0.803,1.297,0.847,2.839,2.134,3.652
		c0.099,1.918,2.049,3.048,2.087,5.037c0.021,1.15,0.527,2.187,1.622,2.829c0.26,0.152,0.503,0.468,0.591,0.759
		c0.58,1.912,1.96,2.353,3.743,2.124c1.613-0.207,3.05-0.638,4.14-2.04c0.673-0.866,1.695-1.458,2.554-2.182
		c0.294-0.248,0.566-0.52,1.024-0.944c-1.531-1.667-2.966-3.304-4.498-4.843c-0.379-0.381-1.059-0.547-1.629-0.64
		c-2.062-0.336-2.067-0.309-2.258-2.565c-1.103-0.351-1.562-1.118-1.578-2.455c-0.021-2.04-0.447-4.073-0.636-6.116
		c-0.059-0.642-0.07-1.377,0.181-1.945c0.973-2.199,2.205-4.275,3.879-6.006c0.664-0.687,1.658-1.112,2.571-1.486
		c1.352-0.552,2.74-1.077,4.163-1.369c0.863-0.177,1.856-0.022,2.729,0.216c1.21,0.331,2.386,0.827,3.524,1.362
		c0.436,0.205,0.889,0.651,1.055,1.093c0.42,1.113,0.747,2.273,0.989,3.439c0.281,1.358,0.444,2.646,1.509,3.784
		c1.02,1.089,0.682,2.676,0.221,3.973c-0.282,0.795-0.379,1.436-0.225,2.269c0.456,2.461-0.006,4.92-0.5,7.312
		c-0.212,1.025-1.152,1.9-1.911,3.075c2.167,1.217,2.971,3.955,5.813,4.721c1.544,0.416,2.793,1.904,4.189,2.889
		c1.082,0.763,2.125,1.613,3.294,2.213c2.115,1.086,3.782,2.704,5.438,4.328c0.975,0.956,1.434,2.195,1.406,3.623
		c-0.051,2.732-0.027,5.465-0.015,8.198c0.003,0.644-0.127,1.377,0.757,1.639c0.937,0.278,1.961-0.024,2.452-0.832
		c0.379-0.624,0.725-1.284,0.97-1.969c1.134-3.171,3.021-5.923,4.773-8.751c0.688-1.111,1.477-1.959,2.976-2.019
		c1.373-0.054,1.936-1.422,2.495-2.374c0.654-1.113,1.522-1.806,2.542-2.437c1.69-1.046,1.717-1.155,0.689-2.943
		c-0.691-1.201-1.402-2.392-2.071-3.605c-0.15-0.273-0.257-0.635-0.222-0.937c0.204-1.767,0.439-3.53,0.697-5.29
		c0.202-1.375,1.06-2.288,2.272-2.837c0.967-0.438,1.985-0.767,2.991-1.111c1.479-0.507,1.707-0.779,1.25-2.341
		c-0.709-2.424-0.574-4.868-0.448-7.333c0.041-0.798,0.301-1.391,0.857-1.931c1.579-1.531,3.115-3.106,4.713-4.617
		c0.419-0.396,0.987-0.648,1.513-0.918c1.054-0.543,2.158-0.995,3.179-1.591c1.282-0.749,1.638-0.781,2.498,0.377
		c0.755,1.015,1.495,1.73,2.852,2.176c1.77,0.582,3.43,1.819,4.331,3.64c0.371,0.751,0.628,1.62,0.686,2.453
		c0.104,1.507,0.441,2.885,1.401,4.077c0.166,0.206,0.424,0.433,0.432,0.657c0.101,2.801,0.992,5.705-1.136,8.226
		c-0.426,0.503-0.568,1.245-0.913,2.044c1.658,0.564,2.583,1.494,2.821,3.042c0.078,0.501,0.392,0.999,0.695,1.428
		c1.819,2.561,3.986,4.679,6.786,6.255c3.235,1.822,6.224,4.077,9.401,6.011c1.801,1.096,2.285,2.88,2.845,4.632
		c0.401,1.259,0.695,2.591,0.772,3.905c0.135,2.262-0.175,4.494-0.935,6.657c-0.279,0.799-0.505,1.657-0.537,2.497
		c-0.098,2.508-0.016,2.563,2.38,3.249c3.08,0.881,3.586,1.554,3.596,4.811c0.006,2.333-0.048,4.667,0.014,6.998
		c0.081,3.025,0.257,6.047,0.379,9.072c0.061,1.478,0.132,2.938-1.358,3.93c-0.36,0.24-0.64,0.878-0.64,1.333
		c0.002,1.302-0.504,2.435-1.381,3.216c-1.451,1.293-1.634,2.781-1.251,4.588c1.068,0.425,2.035,0.264,2.856-0.593
		c0.598-0.624,1.308-0.891,2.158-0.813c0.066,0.006,0.136,0.012,0.2-0.001c1.871-0.361,3.737-0.649,5.599,0.604
		c0.377-1.36,0.618-2.458,0.996-3.506c0.238-0.662,0.587-1.345,1.07-1.837c0.295-0.3,1.085-0.506,1.405-0.323
		c1.53,0.872,2.661,0.124,3.821-0.712c0.205-0.148,0.44-0.254,0.732-0.421c0.417,0.563,0.793,1.071,1.395,1.886
		c0.349-0.635,0.7-1.018,0.769-1.446c0.226-1.421,0.814-2.62,1.664-3.784c0.736-1.009,1.268-2.193,1.745-3.357
		c0.542-1.322,0.271-2.079-0.924-2.924c-0.591-0.419-1.296-0.675-1.908-1.068c-0.392-0.252-0.708-0.622-1.257-1.119
		c0.761-0.284,1.169-0.437,1.682-0.628c-0.663-1.085-1.881-1.08-2.898-1.557c-0.208-1.504,1.287-0.669,1.805-1.362
		c-0.661-0.579-1.335-1.17-1.973-1.729c0.224-0.363,0.271-0.495,0.362-0.58c1.859-1.74,3.695-1.295,5.533,0.054
		c0.416,0.305,0.872,0.555,1.416,0.896c0.322-0.447,0.634-0.779,0.831-1.169c1.395-2.746,2.249-5.665,2.645-8.712
		c0.055-0.429-0.14-0.896-0.244-1.34c-0.135-0.577-0.495-1.18-0.409-1.716c0.331-2.069-0.093-4.209,0.654-6.239
		c0.175-0.477,0.105-1.053,0.107-1.583c0.009-2.732,0.011-5.465-0.001-8.198c-0.004-0.88-0.087-1.758,1.036-2.097
		c0.219-0.066,0.402-0.345,0.542-0.564c0.891-1.387,1.765-2.785,2.494-3.941c2.042-0.752,3.847-1.381,5.615-2.098
		c0.396-0.16,0.718-0.595,0.979-0.969c0.586-0.834,1.473-0.954,2.344-1.298c2.056-0.814,3.785-0.634,5.414,0.851
		c0.228,0.208,0.608,0.341,0.921,0.345c2.022,0.026,3.633,1.133,5.307,2.029c0.921,0.492,1.69,0.513,2.62,0.034
		c1.531-0.791,3.11-1.497,4.704-2.152c0.529-0.218,1.169-0.172,1.758-0.242c1.508-0.178,2.965-0.478,4.111-1.565
		c-2.174-3.838-2.336-5.786-1.025-7.666c-2.26-2.787-1.808-6.304-2.217-9.615c-0.062-0.512,0.435-1.283,0.898-1.638
		c1.628-1.244,2.562-2.959,3.721-4.573c1.149-1.6,3.104-2.624,4.723-3.88c2.043-1.586,4.333-0.925,6.52-0.552
		c1.819,0.31,3.624,0.829,5.361,1.458c1.673,0.607,2.962,1.734,3.432,3.589c0.111,0.442,0.331,0.87,0.568,1.264
		c1.471,2.443,1.851,2.528,4.455,1.381c0.705-0.31,1.512-0.52,2.278-0.54c2.658-0.069,5.264,0.009,7.871,0.923
		c1.862,0.653,3.155,1.714,4.039,3.3c1.379,2.476,2.24,5.107,1.836,8.035c-0.081,0.59,0.146,1.323,0.469,1.844
		c0.519,0.84,1.22,1.57,1.869,2.325c0.518,0.602,1.144,1.141,0.857,2.18c-0.534,0.117-1.103,0.242-1.779,0.391
		c0,1.027-0.021,2.06,0.005,3.091c0.034,1.35,1.562,2.814,3.158,3.025c0.459,0.061,0.932,0.015,1.398,0.026
		c2.018,0.052,2.885,0.917,2.902,2.954c0.005,0.526-0.089,1.058-0.19,1.578c-0.272,1.394-0.444,2.742,0.496,4.011
		c0.298,0.401,0.332,0.996,0.489,1.502c0.351,1.134,0.732,2.259,1.042,3.404c0.241,0.89,0.417,1.8,0.576,2.709
		c0.199,1.146,0.59,1.45,1.756,1.262c0.328-0.053,0.654-0.22,0.973-0.203c1.331,0.074,2.028-0.6,2.577-1.763
		c1.18-2.497,3.199-4.062,5.9-4.63c0.867-0.183,1.688-0.481,1.763-1.323c0.05-0.559-0.558-1.177-0.87-1.769
		c-0.142,0.021-0.283,0.042-0.424,0.062c0.33-1.329,0.688-2.651,0.974-3.989c0.077-0.362,0.037-0.818-0.12-1.151
		c-1.204-2.556-0.317-4.916,0.675-7.243c0.335-0.783,0.924-1.407,0.613-2.406c-0.129-0.417,0.197-1.022,0.418-1.495
		c0.618-1.318,1.397-2.572,1.898-3.931c0.309-0.838,0.309-1.822,0.298-2.739c-0.016-1.482,0.165-2.893,1.658-3.563
		c1.662-0.746,3.479-0.867,4.896,0.422c1.116,1.016,2.292,1.228,3.654,1.157c1.51-0.077,3.004,0.142,4.505-0.539
		c1.26-0.571,2.422,0.411,3.5,1.011c1.77,0.986,2.429,2.912,3.506,4.476c0.158,0.229,0.192,0.717,0.055,0.948
		c-0.819,1.367-0.224,2.708-0.036,4.065c0.1,0.72,0.344,1.524,0.134,2.162c-0.649,1.966,0.026,3.8,0.227,5.779
		c1.504-0.181,2.768-0.652,3.756-1.721c1.362-1.471,2.67-3.015,4.9-3.122c0.122-0.005,0.311-0.077,0.35-0.168
		c0.897-2.066,3.092-1.469,4.613-2.244c0.218-0.11,0.521-0.135,0.768-0.093c1.308,0.225,2.613,0.469,3.913,0.735
		c2.518,0.516,3.392,2.698,4.562,4.562c0.752,1.199,0.917,2.445,0.671,3.903c-0.203,1.203,0.176,2.475,1.222,3.429
		c0.63,0.575,1.104,1.298,0.89,2.309c-0.08,0.381,0.236,0.85,0.38,1.275c0.296,0.876,0.63,1.742,0.875,2.633
		c0.078,0.283-0.009,0.876-0.135,0.912c-1.65,0.458-1.612,2.44-3.022,3.204c-1.159,0.627-1.05,1.524-0.054,2.593
		c1.179,1.267,2.492,2.432,3.521,3.811c2.25,3.02,4.944,5.762,6.281,9.38c0.314,0.852,0.285,1.824,0.482,2.727
		c0.408,1.867,0.894,3.718,1.279,5.589c0.146,0.705,0.181,1.454,0.135,2.174c-0.22,3.374-0.521,6.743-0.705,10.119
		c-0.041,0.758,0.27,1.538,0.433,2.304c0.096,0.45,0.312,0.893,0.319,1.341c0.053,3.589,0.105,7.172-0.624,10.729
		c-0.263,1.282-0.171,2.653-0.125,3.98c0.071,2.054,0.245,4.105,0.367,6.159c0.15,2.519-0.129,5.155,0.543,7.524
		c0.829,2.927,0.478,5.804,0.668,8.699c0.066,1.021-0.213,1.799-1.109,2.379c-0.609,0.394-1.153,0.899-1.688,1.396
		c-1.875,1.737-1.612,3.779,0.553,5.067c0.9,0.537,1.715,1.239,2.484,1.956c0.301,0.28,0.463,0.794,0.531,1.226
		c0.516,3.272,0.996,6.55,1.479,9.828c0.047,0.322,0.177,0.752,0.029,0.966c-0.558,0.812-1.257,1.527-1.821,2.335
		c-0.562,0.804-1.143,1.377-2.245,1.379c-0.7,0.001-1.422,0.321-2.092,0.6c-0.331,0.138-0.804,0.504-0.807,0.77
		c-0.021,1.918-1.134,3.772,0.234,5.786c1.422,2.096,1.705,4.713,2.054,7.2c0.18,1.285,0.476,2.444,1.167,3.554
		c0.362,0.579,0.59,1.343,0.596,2.026c0.031,3.331,0.214,6.688-0.138,9.986c-0.312,2.928-0.118,5.838-0.329,8.743
		c-0.12,1.655-0.178,3.27-0.018,4.933c0.138,1.43-0.08,2.919-0.304,4.355c-0.321,2.068-0.443,4.141,0.18,6.13
		c0.513,1.632-0.589,2.799-0.847,4.196c-0.033,0.182-0.388,0.332-0.62,0.445c-0.417,0.205-0.84,0.42-1.285,0.547
		c-2.179,0.621-3.476,1.912-3.254,4.502c-0.493-0.162-0.935-0.175-1.151-0.401c-1.166-1.217-2.665-1.467-4.212-1.449
		c-1.163,0.013-2.096-0.198-2.63-1.342c-0.381-0.816-1.049-1.101-1.947-1.093c-3.333,0.03-6.666-0.006-9.998,0.031
		c-0.398,0.004-0.876,0.211-1.175,0.48c-0.944,0.852-1.555,0.931-2.528,0.222c-0.679-0.495-1.379-0.957-2.271-1.573
		c-0.258-1.63,0.447-3.205,1.641-4.792c1.508,0,3.104-0.04,4.695,0.015c1.012,0.034,1.778-0.305,2.489-1.013
		c0.783-0.78,1.671-1.455,2.729-2.359c-0.08-0.213-0.247-0.683-0.434-1.145c-0.454-1.129-0.577-2.32,0.396-3.15
		c1.872-1.598,1.393-3.521,0.652-5.251c-0.681-1.59-0.886-3.139-0.988-4.818c-0.163-2.642-0.606-5.265-0.894-7.9
		c-0.129-1.186-0.171-2.379-0.249-3.571c-0.109-1.653-0.189-3.31-0.332-4.961c-0.102-1.175,0.329-1.833,1.525-2.192
		c0.583-0.175,1.152-0.393,1.898-0.65c-0.349-0.597-0.471-1.004-0.744-1.236c-0.923-0.787-1.238-1.763-1.427-2.949
		c-0.146-0.915-0.744-1.819-1.325-2.59c-0.636-0.842-1.414-1.617-2.257-2.254c-0.912-0.69-1.513-1.438-1.436-2.625
		c0.012-0.193-0.006-0.454-0.122-0.577c-1.229-1.312-1.381-3.052-1.961-4.636c-0.696-1.904-1.118-3.807-1.197-5.82
		c-0.078-1.988-0.188-3.979-0.41-5.955c-0.076-0.671-0.429-1.374-0.834-1.933c-1.241-1.711-2.552-3.371-3.871-5.023
		c-0.661-0.828-1.32-1.684-2.549-1.739c-0.379-0.018-0.778-0.193-1.115-0.389c-1.043-0.607-2.044-0.425-3.042,0.08
		c-0.532,0.27-1.13,0.479-1.556,0.87c-0.399,0.366-0.779,0.907-0.872,1.424c-0.232,1.3-0.396,2.63-0.399,3.949
		c-0.003,1.032,0.274,2.066,0.435,3.099c0.102,0.649,0.288,1.294,0.312,1.945c0.048,1.397,0.023,2.799,0.014,4.198
		c-0.011,1.398,0.532,2.515,1.859,3.004c1.075,0.396,1.435,1.058,1.349,2.123c-0.1,1.229,0.287,2.325,0.806,3.444
		c0.435,0.938,0.751,2.03,0.742,3.053c-0.029,3.385-0.24,6.77-0.354,10.154c-0.033,1.004-0.521,1.451-1.489,1.449
		c-0.915-0.002-1.83,0-3.017,0c0.186,0.854,0.237,1.434,0.439,1.956c0.881,2.28,0.5,4.296-1.217,6.024
		c-0.857,0.864-1.611,1.665-1.558,3.064c0.046,1.215,0.23,2.258,1.241,2.986c1.811,1.306,1.799,3.119,1.463,5.028
		c-0.453,2.572-1.366,4.987-2.54,7.312c-0.299,0.592-0.534,1.22-0.747,1.85c-0.387,1.14-0.267,2.312,0.37,3.271
		c1.421,2.142,1.114,4.136-0.188,6.157c-0.208,0.323-0.325,0.72-0.421,1.098c-0.221,0.865-0.564,1.579-1.414,2.059
		c-0.832,0.47-1.256,1.217-1.407,2.261c-0.286,1.97-0.568,2.114-2.663,2.118c-5.065,0.009-10.137-0.14-15.195,0.059
		c-2.372,0.093-3.479-1.125-4.447-2.873c-0.123-0.223-0.229-0.456-0.438-0.88c-2.168,0.122-4.361,0.127-6.52,0.405
		c-1.659,0.214-1.746,0.458-1.84,2.05c-0.181,3.076-0.066,3.704-3.929,3.643c-2.199-0.036-4.399,0.011-6.599-0.014
		c-0.896-0.01-1.646,0.165-2.395,0.755c-0.577,0.454-1.395,0.712-2.139,0.815c-0.98,0.138-2.001-0.027-2.993,0.062
		c-0.903,0.082-1.791,0.333-2.688,0.501c-0.52,0.098-1.039,0.231-1.562,0.255c-0.998,0.041-2-0.01-2.999,0.02
		c-4.186,0.122-8.371,0.368-12.558,0.363c-4.653-0.005-9.306-0.239-13.959-0.361c-1.905-0.05-2.235-0.271-2.521-1.826
		c-0.235-1.279,0.427-2.535,1.69-3.042c0.546-0.219,1.171-0.23,1.73-0.423c0.607-0.207,1.247-0.424,1.754-0.798
		c1.062-0.786,1.644-1.68,1.222-3.219c-0.988-3.596-0.879-7.355-1.298-11.04c-0.105-0.922-0.225-1.85-0.452-2.746
		c-0.104-0.406-0.409-0.86-0.757-1.085c-0.849-0.547-3.177-0.177-3.939,0.529c-1.535,1.423-1.788,3.352-0.581,5.105
		c0.461,0.669,0.533,1.263,0.352,2.048c-0.293,1.269-0.681,2.55-0.223,3.898c0.136,0.398,0.002,0.932-0.127,1.369
		c-0.45,1.527-1.012,3.023-1.413,4.562c-0.268,1.023-0.866,1.439-1.849,1.452c-0.666,0.009-1.334,0.026-1.999-0.004
		c-2.587-0.117-5.173-0.251-7.759-0.38c-0.398-0.02-0.81,0.007-1.193-0.08c-1.37-0.312-1.902-1.659-1.021-2.755
		c0.445-0.553,1.104-0.945,1.701-1.362c1.524-1.064,2.717-2.322,2.951-4.292c0.082-0.69,0.385-1.354,0.596-2.06
		c-0.229-0.081-0.438-0.238-0.588-0.196c-2.614,0.741-5.312,1.356-7.379,3.267c-0.919,0.85-1.882,1.149-3.073,1.097
		c-1.13-0.05-2.266,0.012-3.398-0.013c-1.012-0.021-1.631,0.414-1.888,1.404c-0.351,1.35-0.766,2.683-1.092,4.037
		c-0.337,1.398-0.638,1.774-1.966,1.729c-2.587-0.087-5.175-0.22-7.753-0.444c-0.487-0.043-1.221-0.527-1.321-0.936
		c-0.154-0.624,0.083-1.378,0.279-2.038c0.079-0.261,0.495-0.42,0.757-0.626c1.161-0.914,1.95-1.961,1.583-3.586
		c-0.228-1.004,0.199-1.785,1.097-2.352c0.721-0.454,0.875-1.157,0.968-2.035c0.211-1.978,0.325-3.664-1.839-4.827
		c-0.963-0.518-0.706-1.89-0.457-2.971c0.158-0.685,0.166-1.403,0.318-2.089c0.071-0.321,0.338-0.598,0.496-0.904
		c0.361-0.691,1-1.383,1.017-2.086c0.096-4.188,0.047-8.38,0.047-12.688c-0.794-0.129-1.484-0.242-2.064-0.338
		c-0.737-3.155-1.507-6.168-2.127-9.211c-0.329-1.617-0.57-3.289-0.554-4.933c0.046-4.32-0.086-8.685,0.488-12.946
		c0.626-4.651,0.594-9.281,0.695-13.932c0.027-1.206-0.217-2.256-1.03-3.122c-0.787-0.838-0.928-1.817-1.026-2.92
		c-0.297-3.302-0.727-6.591-1.12-9.883c-0.19-1.589,0.186-2.344,1.745-2.589c2.163-0.338,3.209-1.505,3.635-3.613
		c0.564-2.803,1.365-5.557,2.055-8.334c0.175-0.7,0.312-1.411,0.509-2.316c-2.194-0.981-4.249-2.072-6.421-2.828
		c-2.757-0.959-5.596-1.698-8.425-2.433c-1.983-0.514-3.774-1.65-5.894-1.75c-0.369-0.017-0.749-0.502-1.063-0.829
		c-1.271-1.316-2.804-1.868-4.727-1.78c-0.132,1.473-0.84,2.463-2.022,3.255c-1.323,0.887-1.172,2.5-1.312,3.833
		c-0.285,2.706-0.294,5.439-0.486,8.156c-0.064,0.912-0.274,1.83-0.539,2.707c-0.789,2.613-1.677,5.196-2.439,7.816
		c-0.218,0.748-0.191,1.58-0.191,2.375c-0.003,2.96-0.255,5.804-2.063,8.371c-0.464,0.659-0.314,1.958-0.075,2.865
		c0.65,2.466,1.085,4.944,0.928,7.489c-0.11,1.787-0.387,3.562-0.543,5.347c-0.062,0.711-0.13,1.461,0.023,2.144
		c0.744,3.315,1.415,6.633,1.338,10.059c-0.012,0.521,0.139,1.051,0.259,1.566c0.704,3.038,1.422,6.072,2.134,9.108
		c0.061,0.257,0.047,0.558,0.18,0.768c1.802,2.84,1.91,6.205,2.8,9.313c1.554,5.422,2.719,10.96,3.022,16.632
		c0.015,0.261,0.049,0.537,0.154,0.771c0.134,0.299,0.348,0.562,0.588,0.934c-1.167,0.509-1.283,1.498-1.28,2.621
		c0.003,1.705,0.151,3.386-0.646,5.074c-0.47,0.996-0.183,2.348-0.222,3.218c0.563,0.864,0.987,1.495,1.389,2.139
		c0.14,0.224,0.157,0.573,0.344,0.71c1.681,1.237,1.744,3.296,2.539,4.973c0.757,1.599,0.079,2.789-1.662,3.202
		c-0.259,0.062-0.516,0.193-0.773,0.192c-1.592-0.002-3.512,0.917-4.558-0.919c-0.755-1.323-2.177-2.31-2.022-4.203
		c0.116-1.422-0.305-2.889-0.509-4.507c-1.33-0.228-1.531-1.267-1.53-2.583c0-0.954-0.4-1.903-0.556-2.866
		c-0.211-1.305-0.302-2.632-0.546-3.93c-0.256-1.355-0.63-2.689-0.959-4.031c-0.221-0.902-0.479-1.799-0.675-2.707
		c-0.361-1.669-0.821-2.082-2.563-2.111c-1.533-0.026-3.066-0.021-4.6-0.005c-0.847,0.009-1.499-0.293-2.136-0.878
		c-2.495-2.292-5.044-4.525-7.571-6.78c-0.1-0.089-0.186-0.224-0.302-0.259c-2.498-0.767-3.989-3.003-6.185-4.229
		c-1.652-0.922-2.275-0.804-2.637,1.023c-0.8,4.041-1.507,8.1-2.255,12.152c-0.205,1.111-0.395,2.228-0.636,3.332
		c-0.629,2.867-1.005,5.739-1.008,8.698c-0.001,1.955-0.58,3.908-0.892,5.864c-0.104,0.652-0.214,1.307-0.263,1.965
		c-0.127,1.72-0.265,3.441-0.309,5.163C1966.458,723.616,1966.652,724.4,1966.807,725.645z M1941.799,719.215
		c0.368,0.214,0.478,0.329,0.595,0.337c2.116,0.154,4.233,0.304,6.353,0.431c0.255,0.016,0.529-0.075,0.775-0.167
		c2.326-0.871,3.362-3.455,2.364-5.752c-0.229-0.527-0.328-1.127-0.4-1.703c-0.229-1.84-0.444-3.681-0.617-5.527
		c-0.179-1.906-0.646-3.872-0.358-5.715c0.352-2.255,0.854-4.533,1.944-6.655c1.629-3.175,1.954-6.746,2.651-10.197
		c0.265-1.31,0.492-2.567,0.083-3.927c-0.308-1.023-0.179-2.075,0.816-2.892c0.393-0.321,0.59-1.001,0.68-1.55
		c0.548-3.336,1.062-6.679,1.533-10.026c0.11-0.781,0.111-1.605-0.002-2.386c-0.332-2.298-0.732-4.587-1.131-6.874
		c-0.397-2.287-0.741-4.585-1.262-6.844c-0.627-2.716-1.496-5.376-2.118-8.093c-0.992-4.336-2.035-8.671-2.211-13.145
		c-0.036-0.904-0.521-1.329-1.333-1.459c-0.458-0.072-0.931-0.047-1.394-0.096c-1.732-0.184-2.79-1.27-2.861-2.984
		c-0.043-1.064-0.053-2.134-0.01-3.197c0.061-1.522-0.046-3.104,0.342-4.547c0.385-1.434,0.501-2.562-0.742-3.562
		c-0.25-0.201-0.364-0.561-0.59-0.802c-1.025-1.093-2.094-2.023-2.249-3.781c-0.124-1.407-1.219-1.847-2.535-1.624
		c-0.036,0.124-0.118,0.254-0.101,0.371c0.745,4.922,1.499,9.841,2.25,14.763c0.126,0.828,0.19,1.759-0.866,1.911
		c-1.386,0.2-1.466,1.049-1.463,2.138c0.004,1.189,0.13,2.461-0.236,3.55c-0.646,1.924-0.888,3.854-0.969,5.855
		c-0.078,1.919-0.388,3.828-0.487,5.747c-0.07,1.374-0.241,2.834,0.116,4.122c1.236,4.454,1.638,9.026,1.916,13.583
		c0.188,3.07,0.213,6.097,1.448,8.979c0.202,0.472,0.141,1.049,0.242,1.57c0.229,1.172,0.255,2.455,0.778,3.483
		c0.946,1.858,1.511,3.676,0.927,5.74c-0.068,0.244-0.003,0.522-0.004,0.787c-0.008,1.245-0.02,2.492-0.026,3.737
		c-0.003,0.597-0.029,1.195,0.01,1.789c0.084,1.257,0.286,2.511,0.294,3.767c0.033,5.329,0,10.659,0.023,15.989
		c0.004,0.991,0.234,1.983,0.224,2.974c-0.021,1.913,0.056,3.86-0.281,5.728c-0.252,1.4-1.132,2.679-1.646,4.045
		C1942.009,717.804,1941.937,718.572,1941.799,719.215z M2143.161,685.196c0.09-0.001,0.18-0.002,0.271-0.003
		c-0.289-3.297-0.618-6.591-0.843-9.893c-0.068-1.011-0.358-1.833-1.142-2.428c-1.792-1.359-2.402-3.236-2.526-5.379
		c-0.073-1.254-0.303-2.499-0.364-3.753c-0.048-0.98-0.432-1.756-1.341-2.001c-0.959-0.258-1.346,0.626-1.78,1.285
		c-0.073,0.111-0.127,0.236-0.207,0.342c-0.509,0.667-1.144,1.271-1.511,2.008c-0.694,1.396-1.688,2.849-1.749,4.312
		c-0.142,3.417,1.204,6.685,1.604,10.089c0.211,1.79,1.104,3.619,1.695,5.413c0.733,2.224,0.914,4.383,0.939,6.64
		c0.012,0.979-0.188,1.806-0.894,2.545c-0.334,0.35-0.7,0.979-0.605,1.374c0.562,2.365,0.485,4.609-0.816,6.732
		c-0.063,0.104-0.087,0.263-0.067,0.387c0.19,1.19-0.554,1.821-1.394,2.425c-0.32,0.229-0.599,0.531-0.852,0.838
		c-0.794,0.957-0.775,2.031,0.176,2.804c0.543,0.442,1.284,0.634,1.916,0.976c0.618,0.335,1.402,0.582,1.772,1.109
		c0.652,0.929,1.349,1.11,2.383,0.859c2.161-0.525,2.745-1.148,2.715-3.466c-0.023-1.835,0.42-3.523,1.05-5.229
		c0.581-1.57,1.219-3.212,1.308-4.853C2143.138,693.961,2143.094,689.576,2143.161,685.196z M2057.099,682.466
		c-1.196,0.21-1.136,0.967-1.295,1.69c-0.429,1.939-0.115,4.069-1.775,5.704c-0.884,0.871-0.741,1.995,0.213,3.021
		c0.545,0.586,0.767,1.473,1.16,2.277c1.009,0,2.045,0,2.971,0c0.394-1.064,0.791-1.97,1.054-2.912
		c0.17-0.606,0.243-1.279,0.176-1.903c-0.084-0.771-0.277-1.554-0.572-2.271c-0.372-0.902-1.006-1.703-1.323-2.619
		C2057.377,684.505,2057.292,683.471,2057.099,682.466z"/>
	<path d="M1692.526,690.652c0.252-0.061,0.51-0.188,0.757-0.172c1.105,0.079,1.695-0.458,2.088-1.457
		c0.282-0.717,0.39-1.75,1.623-1.579c0.117,0.017,0.295-0.249,0.411-0.409c0.934-1.287,1.858-2.58,2.687-3.732
		c0.877,0.05,1.689,0.253,2.431,0.104c1.254-0.254,1.979,0.559,2.882,1.08c0.475,0.274,1.029,0.412,1.548,0.612
		c0.189-0.604,0.518-1.208,0.529-1.815c0.013-0.639-0.103-1.418-0.469-1.904c-1.496-1.988-1.248-4.427-1.866-6.634
		c-0.248-0.888-0.34-1.831-0.394-2.755c-0.046-0.78-0.321-1.329-0.873-1.909c-0.98-1.03-1.872-2.105-1.25-3.815
		c0.346-0.951,0.27-2.1-0.562-3.009c-0.295-0.321-0.388-0.829-0.565-1.255c-0.649-1.565-1.294-1.912-3.216-1.635
		c-1.442-1.555-2.864-3.241-4.454-4.748c-1.149-1.089-1.3-2.217-0.836-3.606c1.265-3.783,2.525-7.567,3.746-11.365
		c0.515-1.604,0.116-2.274-1.514-2.731c0-0.834-0.098-1.702,0.029-2.536c0.117-0.771,0.474-1.504,0.709-2.206
		c-1.174-1.047-1.643-2.246-1.356-3.671c0.21-1.046,0.188-1.991-0.687-2.742c-2.262-1.946-3.316-4.661-4.354-7.3
		c-1.089-2.768-2.004-5.633-1.667-8.729c0.347-3.189,0.539-6.396,3.062-8.827c0.267-0.257,0.448-0.673,0.525-1.044
		c0.803-3.87,2.304-7.519,4.064-10.992c0.883-1.741,2.629-3.203,4.29-4.35c1.969-1.362,2.796-3.008,2.946-5.313
		c0.08-1.211,0.641-2.414,1.106-3.571c0.542-1.346,1.149-2.677,1.855-3.941c0.56-1.003,0.785-2.012,0.397-3.056
		c-0.292-0.788-0.128-1.343,0.28-2.035c0.495-0.839,0.686-1.854,1.143-2.721c0.642-1.22,1.252-2.514,2.156-3.526
		c1.275-1.427,2.826-2.605,4.22-3.931c0.451-0.429,1.041-0.952,1.114-1.494c0.262-1.903,0.36-3.832,0.457-5.754
		c0.184-3.645,0.449-7.273,1.479-10.804c0.24-0.824,0.387-1.691,0.449-2.548c0.268-3.687,2.522-5.865,5.567-7.462
		c0.53-0.278,1.071-0.543,1.629-0.758c2.613-1.004,5.15-2.115,7.473-3.746c1.669-1.171,3.629-1.92,5.34-3.041
		c1.016-0.666,2.052-1.479,2.497-2.944c-0.563-0.137-1.071-0.188-1.516-0.382c-1.281-0.56-2.196-1.513-2.6-2.859
		c-0.286-0.952-0.542-1.936-0.617-2.92c-0.047-0.618,0.056-1.508,0.456-1.852c1.132-0.972,0.921-2.017,0.705-3.244
		c-0.181-1.035-0.176-2.147-0.005-3.185c0.134-0.812,0.492-1.692,1.019-2.314c2.396-2.831,5.599-4.27,9.197-4.739
		c1.138-0.148,2.387,0.193,3.529,0.511c3.7,1.031,7.033,2.817,10.014,5.231c1.181,0.957,1.949,3.943,1.129,5.344
		c-0.986,1.681-0.73,3.512-0.859,5.216c-0.223,2.959,0.152,5.964,0.275,8.95c0.006,0.133-0.004,0.267,0.003,0.4
		c0.077,1.427,0.437,1.998,1.807,2.174c1.899,0.244,3.313,1.151,4.598,2.519c0.796,0.847,1.819,1.524,2.838,2.105
		c0.847,0.483,1.216,1.173,1.467,2.022c0.846,2.859,2.896,3.997,5.871,3.539c1.623-0.25,3.308-0.074,4.957-0.193
		c0.61-0.044,1.425-0.203,1.754-0.619c1.039-1.313,2.505-1.476,3.938-1.739c0.688-0.127,1.42-0.022,2.237-0.022
		c0.074-1.407,0.291-2.611,0.146-3.77c-0.098-0.784-0.546-1.667-1.117-2.215c-0.888-0.854-2.065-1.401-3.017-2.2
		c-0.593-0.498-1.038-1.195-1.464-1.856c-0.152-0.235-0.201-0.782-0.049-0.929c1.317-1.267,0.729-2.873,0.849-4.347
		c0.038-0.463-0.005-0.933,0.007-1.399c0.049-1.771,0.685-2.622,2.401-3.231c2.085-0.741,2.508-1.212,2.99-3.442
		c0.458-0.05,0.966-0.159,1.472-0.151c1.453,0.021,2.724-0.185,3.688-1.512c0.664-0.916,2.326-0.84,3.687-0.131
		c1.23,0.641,2.476,1.254,3.733,1.84c1.219,0.567,2.328,1.224,3.069,2.422c0.771,1.244,1.659,2.414,2.46,3.639
		c0.25,0.381,0.478,0.824,0.551,1.265c0.56,3.339,1.514,6.634,1.223,10.072c-0.067,0.786-0.131,1.618-0.434,2.328
		c-0.555,1.304-0.628,2.592-0.164,3.884c0.231,0.646,0.567,1.36,1.073,1.783c2.194,1.831,4.379,3.698,6.746,5.285
		c1.342,0.9,3.011,1.34,4.569,1.882c1.062,0.37,2.176,0.641,3.289,0.8c0.928,0.132,1.521,0.446,2.053,1.297
		c0.785,1.259,1.629,2.492,3.081,3.247c0.621,0.322,1.033,1.362,1.204,2.148c0.192,0.884,0.188,1.902-0.054,2.771
		c-0.492,1.759,0.073,3.249,0.756,4.787c0.287,0.645,0.5,1.366,0.546,2.065c0.087,1.325,0.084,2.662,0.02,3.988
		c-0.076,1.567,0.513,2.843,1.475,4.013c1.266,1.541,1.29,2.361,0.18,4.057c0.252,0.596,0.666,1.174,0.711,1.778
		c0.067,0.899,0.187,1.706,0.84,2.374c0.133,0.136,0.266,0.345,0.271,0.523c0.064,2.502,0.603,5.04-0.351,7.479
		c-0.387,0.989-0.581,2.012,0.001,2.862c1.332,1.946,1.387,4.085,1.292,6.292c-0.038,0.865-0.002,1.733-0.009,2.599
		c-0.006,0.772,0.189,1.628-0.923,1.898c-0.175,0.042-0.262,0.427-0.398,0.648c-0.621,1.012-1.396,5.275-1.335,6.467
		c0.062,1.179-0.153,2.37-0.127,3.553c0.104,4.718,0.263,9.435,0.379,14.152c0.026,1.046,0.187,2.124-0.874,2.911
		c-0.275,0.204-0.286,0.849-0.303,1.296c-0.042,1.064-0.041,2.133-0.002,3.198c0.017,0.45,0.025,1.042,0.295,1.314
		c1.034,1.04,0.849,2.312,0.9,3.567c0.044,1.056,0.121,2.117,0.284,3.159c0.258,1.648,0.16,2.103-1.342,2.915
		c-1.028,0.557-1.427,1.286-1.361,2.408c0.055,0.93-0.021,1.867,0.017,2.799c0.068,1.697-0.196,3.25-1.128,4.76
		c-0.718,1.164-1.288,2.536-1.471,3.878c-0.162,1.187,0.304,2.459,0.491,3.693c0.167,1.109,0.361,2.215,0.491,3.328
		c0.146,1.249,0.246,2.504,0.342,3.757c0.046,0.596,0.213,1.258,0.028,1.785c-0.662,1.875,0.07,3.673,0.088,5.473
		c2.048,1.05,2.95,3.061,4.144,4.754c0.452,0.641,0.295,1.826,0.177,2.73c-0.279,2.131,0.378,3.839,2.13,5.021
		c1.857,1.251,1.586,3.064,1.409,4.828c-0.052,0.513-0.505,1.128-0.953,1.428c-0.862,0.575-0.945,1.327-0.979,2.234
		c-0.073,1.986-0.199,3.974-0.39,5.951c-0.101,1.048-0.403,2.074-0.576,3.117c-0.226,1.368-0.521,2.737-0.59,4.116
		c-0.086,1.699-0.663,3.354-0.182,5.134c0.159,0.59-0.62,1.538-1.143,2.182c-0.646,0.796-0.976,1.564-0.536,2.679
		c0.595,0.217,1.269,0.463,1.799,0.657c0.729,1.077,1.436,2.021,2.037,3.026c1.009,1.689,0.858,1.696-0.584,3.096
		c-1.179,1.146-2.45,1.389-3.981,1.362c-3.731-0.064-7.465-0.02-11.198-0.019c-0.66,0-1.319,0-1.959,0
		c-0.723-1.205-0.82-2.32-0.473-3.545c0.293-1.033,0.342-2.084-0.286-3.079c-0.194-0.308-0.345-0.835-0.212-1.122
		c0.624-1.354-0.082-2.286-0.87-3.223c-0.625-0.744-0.775-1.604-0.899-2.564c-0.729-5.644-0.18-11.307-0.376-16.956
		c-0.091-2.652-0.245-5.303-0.415-7.952c-0.028-0.438-0.26-0.875-0.451-1.289c-0.448-0.968-0.389-1.906-0.041-2.899
		c0.257-0.729,0.476-1.514,0.494-2.279c0.06-2.528,0.021-5.059,0.021-7.589c0-1.522,0.168-3.073-0.805-4.423
		c-0.113-0.156-0.219-0.369-0.214-0.553c0.07-3.438-1.632-6.544-1.823-9.948c-0.096-1.704-0.552-3.399-0.947-5.074
		c-0.515-2.184-1.179-4.33-1.678-6.518c-0.189-0.828-0.096-1.721-0.134-2.585c-0.109-2.469-2.92-4.08-5.019-2.793
		c-1.006,0.616-2.14,1.339-2.688,2.311c-0.647,1.148-0.94,2.608-1.004,3.951c-0.142,2.994-0.048,5.997-0.042,8.997
		c0.001,0.33-0.044,0.716,0.102,0.983c1.137,2.089,0.498,4.235,0.428,6.413c-0.093,2.891-0.303,5.816-0.014,8.693
		c0.248,2.467,0.425,4.874-0.039,7.328c-0.156,0.824-0.012,1.719,0.072,2.573c0.188,1.911,0.521,3.814,0.604,5.729
		c0.041,0.947-0.262,1.937-0.549,2.863c-0.354,1.141-0.355,1.862,0.687,2.399c2.367,1.221,2.688,3.011,1.97,5.341
		c-0.302,0.979-0.308,2.048-0.45,3.088c-0.891,0.1-1.536,0.171-2.24,0.249c-0.575,2.751-0.698,5.393-0.331,8.144
		c0.337,2.525,0.492,5.082-0.996,7.547c-1.094,1.812-1.76,3.918-2.138,6.098c-0.439,2.543-2.516,4.053-5.082,4.074
		c-1.333,0.011-2.667,0.043-3.999-0.004c-2.409-0.085-4.699,0.105-6.964,1.204c-1.237,0.601-2.843,0.491-4.29,0.598
		c-1.573,0.116-3.136-0.101-4.682,0.654c-0.705,0.345-1.845,0.115-2.667-0.184c-0.925-0.335-1.76-0.469-2.711-0.249
		c-0.64,0.147-1.317,0.182-1.979,0.185c-4.465,0.015-8.931,0.008-13.404-0.086c0.792-0.056,1.583-0.112,2.512-0.179
		c0-0.769,0-1.449,0-2.4c-2.072-0.076-4.047-0.215-6.021-0.197c-1.474,0.014-1.709,0.011-1.802-1.383
		c-0.071-1.07-0.427-1.728-1.438-2.128c-1.047-0.414-1.429-1.29-1.41-2.407c0.037-2.126,0.1-4.22,0.524-6.343
		c0.46-2.305,0.762-4.651,0.588-7.092c-0.109-1.535-0.7-3.436,0.75-4.886c0.218-0.219,0.121-0.763,0.146-1.158
		c0.029-0.465-0.089-0.979,0.068-1.39c1.196-3.115-0.387-5.114-2.662-6.87c-1.301-1.005-1.621-1.552-2.384-3.893
		c-1.227-0.283-2.431-0.389-3.503,0.596c-0.229,0.21-0.586,0.336-0.903,0.388c-1.042,0.17-1.332,0.931-1.622,1.796
		c-0.334,0.996-0.891,1.918-1.189,2.921c-0.297,0.995-0.542,2.049-0.545,3.078c-0.007,1.838-0.04,3.564-1.568,4.939
		c-0.762,0.686-0.58,1.579,0.126,2.303c0.324,0.332,0.654,0.696,1.054,0.911c1.152,0.622,1.172,1.654,1.162,2.756
		c-0.01,1.103-0.274,1.929-1.498,2.255c-0.737,0.195-0.86,0.883-0.92,1.603c-0.146,1.742-0.64,3.377-1.816,4.731
		c-0.689,0.794-0.685,1.585,0.067,2.29c0.522,0.49,1.089,0.998,1.732,1.282c2.46,1.087,2.929,3.812,0.843,5.522
		c-0.63,0.518-1.418,0.882-1.18,1.848c0.113,0.46,0.491,0.855,0.709,1.214c-4.842,0-9.907,0.01-14.971-0.004
		c-2.876-0.008-4.241-2.179-2.817-4.656c0.805-1.399,1.13-2.808,1.068-4.379c-0.048-1.197,0.021-2.399-0.019-3.599
		c-0.047-1.395-0.299-1.73-1.619-1.711c-2.589,0.037-5.176,0.203-7.764,0.305c-0.932,0.037-1.865,0.059-2.797,0.062
		c-3.998,0.009-7.996,0.05-11.992-0.005c-2.582-0.034-3.531-0.961-3.381-3.578c0.155-2.708,0.514-5.415,0.972-8.091
		c0.413-2.412,1.088-4.779,1.628-7.171c0.071-0.312,0.111-0.678,0.018-0.971C1691.669,693.634,1692.033,692.171,1692.526,690.652z
		 M1788.473,717.295c-1.938-1.466-2.304-3.467-2.271-5.708c0.013-0.942-0.392-1.965-0.846-2.825
		c-0.835-1.586-0.847-3.165-0.43-4.835c0.629-2.521,1.144-5.07,0.903-7.68c-0.121-1.308-0.662-2.584-0.73-3.888
		c-0.219-4.18-0.345-8.365-0.407-12.55c-0.012-0.812,0.303-1.691,0.682-2.43c0.802-1.561,1.338-3.116,1.322-4.927
		c-0.018-1.955,0.439-3.924-0.432-5.812c-0.026-0.056-0.004-0.133-0.01-0.198c-0.266-3.035-0.557-6.067-0.785-9.104
		c-0.077-1.024-0.097-2-1.169-2.561c-0.193-0.102-0.409-0.411-0.396-0.61c0.078-1.246,0.03-2.546,0.394-3.711
		c0.295-0.944,0.387-1.763,0.158-2.7c-0.361-1.48-0.737-2.969-0.937-4.476c-0.445-3.347-0.85-6.704-1.143-10.067
		c-0.188-2.176-0.458-4.394,0.328-6.526c0.52-1.411,0.544-2.713-0.456-3.952c-0.232-0.287-0.378-0.743-0.362-1.112
		c0.06-1.367-0.697-2.054-1.845-2.535c-0.412-0.173-0.973-0.467-1.075-0.818c-0.581-2.009-2.147-1.906-3.694-1.834
		c-1.482,0.069-2.145,0.878-1.967,2.341c0.152,1.249,0.437,2.491,0.485,3.743c0.057,1.452-0.022,2.917-0.152,4.366
		c-0.104,1.172-0.471,2.323-0.546,3.494c-0.194,3.048-0.032,6.144-0.521,9.137c-0.312,1.906,0.146,3.351,0.963,4.895
		c0.995,1.88,1.935,3.788,2.885,5.69c1.027,2.056,0.905,2.542-0.919,3.792c-1.145,0.784-2.33,1.515-3.42,2.368
		c-0.433,0.34-0.795,0.906-0.949,1.439c-0.442,1.526-0.709,3.103-1.151,4.629c-0.245,0.845-0.177,1.476,0.345,2.223
		c0.422,0.605,0.713,1.439,0.716,2.175c0.009,2.102,0.735,4.203,0.04,6.308c-0.04,0.12-0.032,0.272,0,0.397
		c0.371,1.439,0.104,2.867,0.039,4.318c-0.242,5.379-0.312,10.767-0.446,16.15c-0.006,0.267,0.038,0.54-0.008,0.799
		c-0.146,0.836-0.236,1.696-0.509,2.492c-0.417,1.215-0.479,2.407,0.303,3.421c0.651,0.845,1.176,1.589,0.706,2.696
		c-0.066,0.156,0.117,0.567,0.288,0.65c0.588,0.284,0.553,0.595,0.271,1.104c-0.351,0.631-0.648,1.304-0.868,1.99
		c-0.196,0.613-0.516,1.367-0.324,1.892c0.713,1.949,0.491,3.947,0.583,5.933c0.009,0.188,0.101,0.372,0.171,0.618
		c0.532,0.195,1.076,0.396,1.275,0.469c0.566,0.95,0.813,1.797,1.378,2.219c0.994,0.743,2.147,1.312,3.302,1.788
		c0.758,0.312,1.024,0.768,1.032,1.498c0.004,0.399-0.015,0.801,0.014,1.199c0.099,1.348,0.556,1.979,1.865,2.191
		c0.83,0.135,1.71,0.032,2.56-0.047c0.901-0.085,1.512-0.63,1.562-1.538c0.057-1.052,0.664-1.674,1.375-2.318
		C1786.724,719.984,1787.875,719.046,1788.473,717.295z"/>
	<path d="M1687.686,603.948c-0.712-1.604-1.727-2.708-3.167-3.075c-1.426-0.362-1.962-1.121-2.04-2.482
		c-0.083-1.464-0.66-2.688-2.132-3.482c-0.46,0.715-0.061,1.418,0.117,2.034c0.74,2.551,1.644,5.063,1.524,7.778
		c-0.037,0.841-0.113,1.683-0.213,2.521c-0.195,1.642-0.511,3.277-0.604,4.923c-0.084,1.5-0.408,2.863-1.465,4.353
		c-0.568-2.604-0.479-5.169-2.233-7.535c1.904,10.782,3.429,21.266,3.623,31.758c-0.404,0.215-0.514,0.316-0.632,0.329
		c-2.899,0.318-3.037,0.306-3.258,3.112c-0.225,2.845-0.137,5.713-0.192,8.571c-0.034,1.753-0.013,1.848-1.733,2.324
		c-1.101,0.305-1.493,0.97-1.657,1.953c-0.949,5.699-1.944,11.391-2.821,17.1c-0.241,1.568-0.264,3.198-0.158,4.784
		c0.337,5.021-0.061,9.979-1.134,14.879c-0.864,3.945-1.768,7.884-2.792,11.788c-0.442,1.684-1.31,3.25-1.846,4.915
		c-0.91,2.833-1.71,5.701-2.594,8.679c1.351,1.479,2.664,2.914,4.27,4.669c-1.462,0.077-2.541,0.134-3.621,0.19
		c1.321-0.172,2.954,1.153,4.021-0.953c2.333,1.092,4.705,2.202,7.23,3.384c-0.187,0.353-0.318,0.599-0.52,0.979
		c0.608-0.071,1.13-0.134,1.714-0.203c-0.067,0.56-0.132,1.099-0.214,1.773c-0.095,0.039-0.327,0.207-0.571,0.227
		c-2.839,0.224-5.678,0.494-8.522,0.611c-2.562,0.105-5.135,0.095-7.699,0.021c-1.487-0.043-2.936-0.367-3.486-1.932
		c-1.451,0-2.794,0-4.397,0c0.393,0.758,0.649,1.253,0.974,1.879c-1.329,0-2.503,0-3.82,0c-0.05-0.532-0.103-1.083-0.177-1.87
		c-1.46-0.149-2.896-0.395-4.334-0.42c-2.385-0.041-4.773,0.058-7.161,0.1c-1.731,0.031-3.468,0.156-5.193,0.067
		c-1.048-0.053-2.332,0.328-3.021-0.967c-1.24,0.056-2.484,0.062-3.718,0.182c-0.843,0.08-1.671,0.456-2.507,0.461
		c-8.264,0.045-16.529,0.039-24.793,0.053c-0.531,0.001-1.082-0.039-1.59,0.081c-2.066,0.493-4.09,0.35-6.217-0.302
		c-0.121-0.294-0.209-0.696-0.431-1.003c-0.304-0.421-0.855-1.155-1.046-1.083c-1.474,0.559-2.535-0.745-3.917-0.706
		c-3.166,0.087-6.338-0.044-9.507-0.114c-3.322-0.074-6.645-0.159-9.965-0.281c-2.317-0.084-2.976-1.253-2.226-3.461
		c0.351-1.033,0.657-2.277,0.393-3.27c-0.265-0.996-0.046-1.714,0.214-2.568c0.787-2.574,1.02-5.184,0.389-7.838
		c-0.104-0.441-0.047-0.922-0.058-1.384c-0.009-0.397,0.075-0.817-0.026-1.188c-0.311-1.132-0.589-2.291-1.063-3.357
		c-1.598-3.596-1.659-7.468-2.205-11.26c-0.208-1.45-0.116-2.969-1.279-4.266c-0.556-0.619-0.5-1.88-0.529-2.856
		c-0.033-1.12,0.192-2.244,0.223-3.368c0.024-0.879,0.059-1.688,0.682-2.427c0.313-0.372,0.43-0.96,0.511-1.471
		c0.176-1.11,0.299-2.231,0.387-3.353c0.041-0.522,0.119-1.146-0.108-1.571c-1.251-2.349-0.42-4.845-0.609-7.262
		c-0.014-0.188,0.035-0.481,0.159-0.56c1.895-1.192,0.868-3.237,1.417-4.82c0.581-1.678,0.279-3.378,0.08-5.117
		c-0.256-2.237-0.094-4.524-0.104-6.789c-0.007-1.334-0.077-2.671,0.019-3.997c0.104-1.448-0.358-2.616-1.4-3.571
		c-0.679-0.621-0.921-1.365-1.057-2.274c-0.223-1.495-0.722-2.946-1.006-4.437c-0.134-0.703-0.061-1.45-0.042-2.176
		c0.049-1.919,0.062-3.841,0.198-5.754c0.152-2.157,0.04-4.118-1.701-5.788c-0.55-0.528-0.642-1.777-0.567-2.665
		c0.166-1.965,0.575-3.908,0.874-5.861c0.067-0.445,0.285-1.017,0.096-1.324c-1.077-1.75-0.564-3.649-0.57-5.473
		c-0.007-2.186,0.261-4.37,0.34-6.557c0.037-1.022,0.007-1.983,1.029-2.631c0.286-0.181,0.501-0.645,0.546-1.004
		c0.188-1.512,0.386-3.032,0.407-4.552c0.016-1.146,0.356-2.007,1.154-2.842c0.909-0.952,1.655-2.063,2.414-3.147
		c0.251-0.36,0.4-0.836,0.461-1.278c0.39-2.831,1.231-5.417,3.477-7.392c1.139-1.001,2.238-2.077,3.188-3.254
		c0.603-0.748,1.317-1.775,1.254-2.623c-0.204-2.767,1.223-5.169,1.426-7.809c0.096-1.24,0.044-2.493,0.033-3.739
		c-0.025-2.994-0.107-5.988-0.07-8.98c0.009-0.719,0.218-1.377-0.126-2.117c-0.185-0.397,0.056-1.003,0.135-1.51
		c0.071-0.454,0.397-1.007,0.237-1.332c-0.556-1.126,0.108-1.838,0.593-2.711c0.605-1.088,0.988-2.297,1.532-3.423
		c0.249-0.513,0.557-1.099,1.007-1.394c1.272-0.834,2.567-1.703,3.972-2.255c2.947-1.159,5.993-1.667,9.161-0.79
		c1.216,0.336,2.511,0.488,3.705-0.172c1.195-0.662,2.161-0.175,3.136,0.5c0.534,0.369,1.096,0.716,1.688,0.98
		c1.693,0.758,3.258,1.615,4.036,3.461c0.51,1.209,1.4,1.908,2.826,1.709c0.523-0.073,1.067-0.042,1.598-0.006
		c0.943,0.064,1.608-0.259,2.201-1.052c1.211-1.619,2.623-2.75,4.854-3.115c1.764-0.29,3.498-0.604,5.292-0.653
		c1.489-0.041,1.805-0.56,1.197-1.882c-0.443-0.966-0.875-1.975-1.518-2.805c-1.882-2.431-1.588-8.524,0.742-10.892
		c1.196-1.215,2.403-2.507,4.154-2.994c0.192-0.054,0.404-0.086,0.567-0.189c3.271-2.06,6.709-1.582,9.913-0.156
		c3.163,1.407,6.021,3.395,6.954,7.154c0.46,1.851,1.104,3.655,1.652,5.435c0.349-0.126,0.976-0.551,1.593-0.537
		c1.461,0.035,2.718-0.207,3.612-1.479c0.108-0.154,0.305-0.305,0.483-0.341c1.248-0.251,1.432-1.183,1.446-2
		c0.778-0.598,1.43-1.098,2.08-1.6c0.312-0.242,0.632-0.707,0.932-0.693c1.375,0.062,2.356-1.045,3.7-1.138
		c0.462-0.032,0.871-0.836,1.464-1.456c0.325,0.041,0.895,0.112,1.453,0.182c1.087-1.454,2.118-1.744,4.124-1.042
		c0.808,0.282,1.612,0.658,2.309,1.146c0.634,0.445,1.173,0.816,1.991,0.524c0.182-0.064,0.481,0.253,0.744,0.348
		c0.319,0.116,0.67,0.293,0.98,0.25c0.862-0.119,1.71-0.337,2.846-0.576c0.047-0.326,0.146-0.999,0.268-1.838
		c1.708,1.361,2.721,3.797,5.501,3.641c-0.508,0.267-1.017,0.535-1.576,0.829c0.506,1.141,1.481,1.329,2.604,1.604
		c-0.108-0.483-0.197-0.879-0.302-1.343c0.755,0.233,1.474,0.455,2.25,0.694c-0.443,1.016,0.554,1.348,1.012,2.024
		c-0.262,0.162-0.563,0.346-0.895,0.549c0.515,2.233,2.34-0.042,3.227,1.062c-0.099,0.109-0.186,0.247-0.309,0.333
		c-0.161,0.111-0.351,0.181-0.567,0.288c-0.032,1.214,0.506,2.143,1.37,2.944c0.714,0.664,1.368,1.395,2.098,2.039
		c0.34,0.3,0.613,0.559,1.285,0.553c1.351-0.011,1.919,1.707,1.196,3.173c-0.146,0.297-0.435,0.524-0.659,0.784
		c-1.453-1.582-1.453-1.582-2.992-1.324c1.174,0.979,2.451,1.786,2.649,3.482c-1.18,0.267-1.872-0.595-2.788-1.107
		c1.297,2.068,3.293,3.888,2.333,6.812c1.243-0.048,1.312,0.724,1.24,1.605c-1.447,0.198-1.389,0.183-1.779-1.301
		c-0.1-0.379-0.695-0.629-1.221-0.866c1.021,1.717,0.136,3.313-0.113,4.908c-0.254,1.635-0.545,1.713-2.074,0.681
		c-0.218,0.735-0.421,1.418-0.671,2.262c-0.755-0.221-1.543-0.45-2.367-0.691c-0.067,0.3-0.153,0.675-0.24,1.059
		c-0.682-0.174-1.35-0.345-1.938-0.496c-0.272,0.842-0.493,1.526-0.834,2.582c0.338,0.22,0.94,0.666,1.59,1.024
		c2.438,1.343,4.936,2.582,7.324,4.005c2.167,1.292,2.975,3.549,3.552,5.938c-0.657-0.8-1.313-1.601-1.971-2.4
		c-0.106,0.055-0.213,0.112-0.32,0.167c0,1.292-0.322,2.688,0.059,3.855c1.265,3.878,0.859,7.989,1.896,11.878
		c0.04,0.148,0.281,0.242,0.707,0.586c0.52-4.628,0.59-9.001-0.471-13.529c1.549,0.779,2.412,2.142,2.179,3.349
		c-0.855,4.432-0.235,8.884-0.255,13.327c-0.008,1.784-0.192,3.566-0.276,5.35c-0.131,2.783-0.163,5.574-0.395,8.349
		c-0.198,2.375-0.586,4.737-0.96,7.095C1688.344,602.633,1687.985,603.207,1687.686,603.948z M1623.521,683.952
		c-0.096-0.8-0.411-2.055-0.352-3.291c0.077-1.6-0.528-2.589-1.843-3.437c-1.926-1.244-3.361-0.822-3.981,1.46
		c-0.345,1.271-0.454,2.604-0.707,3.902c-0.85,4.355-1.728,8.704-2.56,13.062c-0.094,0.494-0.127,1.122,0.096,1.533
		c0.995,1.837,0.649,3.786,0.442,5.66c-0.113,1.021-0.12,1.964,0.125,2.92c0.326,1.274,0.636,2.562,1.109,3.784
		c0.417,1.075,1.133,1.961,2.44,2.076c1.311,0.115,2.32-0.371,3.079-1.449c0.494-0.701,0.949-1.484,1.599-2.01
		c1.406-1.133,1.485-2.551,1.236-4.137c-0.143-0.913-0.279-1.839-0.271-2.758c0.022-2.635-0.357-5.268-0.013-7.905
		c0.068-0.519,0.004-1.063-0.058-1.59c-0.265-2.249-1.094-4.467-0.351-6.771C1623.572,684.82,1623.521,684.605,1623.521,683.952z
		 M1656.398,670.984c-0.221,0.347-0.497,0.634-0.608,0.975c-0.677,2.08-1.554,4.133-1.921,6.271
		c-0.804,4.688-2.021,9.31-2.319,14.086c-0.156,2.499-0.497,4.987-0.744,7.372c0.43,0.268,0.768,0.479,1.126,0.701
		c-0.488,0.562-1.033,0.932-1.194,1.426c-0.368,1.123-0.665,2.296-0.778,3.469c-0.23,2.371-0.255,4.763-0.487,7.133
		c-0.178,1.824-0.363,3.579,0.167,5.421c0.558,1.938-0.367,3.249-2.343,3.943c-0.702,0.247-1.419,0.45-2.516,0.794
		c2.253,0.862,4.124,1.308,6.294,1.271c-0.143-0.663-0.225-1.101-0.333-1.532c-0.106-0.425-0.239-0.843-0.367-1.288
		c1.114-0.179,1.983-0.112,2.407,0.898c1.721-0.881,1.968-2.425,1.836-4.139c-0.056-0.728-0.113-1.455-0.123-2.185
		c-0.017-1.237-0.026-2.477,0.012-3.713c0.104-3.437,0.265-6.871,0.34-10.309c0.052-2.386-0.245-4.804,0.046-7.153
		c0.512-4.146,1.329-8.254,2.068-12.369C1657.624,678.36,1657.917,674.695,1656.398,670.984z M1642.998,556.05
		c2.108-1.304,1.195-2.407,0.956-3.441c-2.596-0.555-3.278-1.162-3.243-2.997c0.012-0.635,0.519-1.363,0.329-1.874
		c-0.194-0.527-1.015-0.792-1.463-1.265c-0.57-0.6-1.04-1.295-1.691-2.125c-0.171-1.696,0.827-3.629,0.083-5.612
		c-0.129-0.345,0.196-0.872,0.34-1.304c0.377-1.134,0.77-2.263,1.155-3.393c-0.166-0.08-0.332-0.16-0.497-0.24
		c-0.32,0.508-0.751,0.979-0.935,1.532c-0.396,1.2-1.29,2.021-2.38,2.085c-1.198,0.07-1.66,0.723-2.061,1.549
		c-0.426,0.876-0.708,1.823-1.125,2.931c0.771,0.397,1.429,0.817,2.144,1.089c2.15,0.819,3.026,2.417,2.984,4.63
		c-0.007,0.398-0.067,0.821,0.04,1.19c0.2,0.69,0.36,1.469,0.793,2.002C1639.889,552.603,1641.463,554.306,1642.998,556.05z
		 M1667.622,728.251c-0.038-0.176-0.076-0.352-0.114-0.527c-3.713,0-7.427,0-11.022,0c0.59,0.293,1.263,0.662,1.967,0.958
		c0.269,0.113,0.657,0.175,0.905,0.065c1.669-0.736,3.367-0.485,5.08-0.271c0.786,0.098,1.588,0.109,2.38,0.095
		C1667.088,728.568,1667.354,728.364,1667.622,728.251z M1634.16,602.896c-2.726-0.902-3.197-0.83-4.395,0.627
		c0.888-0.044,1.794-0.089,2.581-0.128c0.698,0.518,0.791,1.583,1.813,1.445C1634.16,604.118,1634.16,603.494,1634.16,602.896z
		 M1624.499,603.694c0.1,1.545,2.021,1.63,4.647,0C1627.396,603.694,1625.949,603.694,1624.499,603.694z M1634.21,601.252
		c-0.155-0.875-0.264-1.488-0.374-2.108c-2.041,0.483-2.041,0.483-2.245,2.108C1632.362,601.252,1633.127,601.252,1634.21,601.252z
		 M1640.062,528.936c-0.174,0.04-0.348,0.08-0.522,0.12c0.169,1.167,0.336,2.334,0.504,3.501c0.091-0.01,0.183-0.02,0.274-0.029
		C1640.232,531.33,1640.147,530.133,1640.062,528.936z M1634.928,576.74c0.154,0.005,0.309,0.011,0.463,0.015
		c-0.087-0.364-0.174-0.729-0.261-1.093c-0.098,0.016-0.195,0.032-0.292,0.048C1634.868,576.053,1634.897,576.397,1634.928,576.74z
		 M1636.375,573.131c0.133-0.021,0.267-0.042,0.4-0.062c0-0.337,0-0.672,0-1.009c-0.188,0.014-0.378,0.028-0.568,0.042
		C1636.262,572.445,1636.318,572.788,1636.375,573.131z M1640.097,722.128c0.176,0.011,0.354,0.021,0.529,0.032
		c0-0.407,0-0.814,0-1.222c-0.092-0.01-0.185-0.02-0.277-0.029C1640.266,721.316,1640.182,721.722,1640.097,722.128z
		 M1648.204,727.57c0.659-0.276,1.068-0.447,1.84-0.771C1649.101,726.712,1648.535,726.507,1648.204,727.57z M1670.328,728.087
		c-0.018-0.037-0.037-0.075-0.054-0.113c-0.27,0-0.538,0-0.808,0c0,0.038,0.001,0.076,0.002,0.113
		C1669.754,728.087,1670.041,728.087,1670.328,728.087z"/>
	<path d="M1501.044,521.89c0.594,0.771,0.947,1.23,1.289,1.673c0.302-0.066,0.521-0.06,0.676-0.157
		c2.108-1.313,4.729-1.07,6.494,0.662c1.54,1.512,3.228,2.859,4.46,4.699c0.603,0.898,1.647,1.542,2.581,2.167
		c1.236,0.827,1.731,1.994,1.807,3.38c0.062,1.13-0.024,2.267,0.029,3.397c0.059,1.222-0.151,2.099-1.487,2.667
		c-1.408,0.599-1.565,2.643-0.359,3.552c1.079,0.813,0.5,1.745,0.523,2.663c-1.973,0.003-1.973,0.003-3.109,1.928
		c-1.226-0.059-2.414,0.072-2.482,1.829c-1.638,0.178-3.215,0.329-4.786,0.53c-0.513,0.066-1.115,0.13-1.492,0.428
		c-1.304,1.026-2.545,2.135-3.772,3.253c-0.697,0.635-0.756,1.364-0.086,2.1c2.318,2.545,4.057,5.447,4.979,8.762
		c0.8,2.876,1.488,5.792,2.058,8.724c0.708,3.648,1.292,7.323,1.841,11c0.529,3.544,0.934,7.106,1.419,10.657
		c0.287,2.104,0.651,4.198,0.931,6.303c0.506,3.814,0.985,7.632,1.458,11.45c0.513,4.147,1.021,8.296,1.493,12.447
		c0.094,0.83,0.013,1.681,0.013,2.654c-0.719,0-1.198,0.104-1.607-0.02c-1.278-0.389-2.166,0.37-3.097,0.974
		c-0.246,0.158-0.508,0.544-0.494,0.811c0.088,1.578,0.241,3.153,0.406,4.726c0.048,0.452,0.308,0.893,0.3,1.336
		c-0.018,1.015,0.382,1.771,1.095,2.463c1.046,1.019,1.606,2.26,1.478,3.77c-0.075,0.874,0.06,1.677,0.612,2.452
		c0.356,0.5,0.501,1.22,0.547,1.854c0.081,1.127,0.023,2.265,0.006,3.396c-0.037,2.404-0.041,2.404-2.308,3.092
		c0.056,0.417,0.083,0.861,0.179,1.293c0.226,1.014,0.05,1.852-0.472,2.824c-0.564,1.054-0.849,2.404-0.788,3.604
		c0.057,1.143-0.262,1.929-0.981,2.668c-0.835,0.861-1.709,1.684-2.532,2.557c-1.455,1.542-2.512,3.248-2.277,5.51
		c0.061,0.584,0.122,1.314-0.16,1.763c-1.126,1.79-0.494,3.511,0.134,5.173c0.612,1.621,0.364,2.996-0.237,4.59
		c-0.953,2.522-1.581,5.179-2.199,7.812c-0.284,1.209-0.3,2.501-0.278,3.753c0.014,0.78,0.151,1.662,0.546,2.308
		c0.642,1.05,0.682,2.131,0.659,3.264c-0.045,2.259-0.108,4.503,0.874,6.646c0.291,0.636,0.324,1.434,0.311,2.154
		c-0.05,2.588-0.162,5.175-0.27,7.761c-0.041,0.985,1.291,2.499,2.52,2.745c1.172,0.234,2.502-0.237,3.403,1.144
		c0.236,0.36,1.388,0.202,2.11,0.15c1.396-0.101,2.636,0.295,3.795,1.01c1.591,0.982,1.646,2.776,0.011,3.643
		c-1.026,0.542-2.235,0.73-3.347,1.121c-0.598,0.209-1.214,0.43-1.736,0.776c-1.827,1.209-3.349,1.229-5.083-0.204
		c-0.713-0.59-1.452-0.57-2.242-0.571c-6.063-0.004-12.127,0.009-18.191-0.011c-0.72-0.003-1.485-0.038-2.148-0.279
		c-1.398-0.508-1.494-1.063-1.455-2.576c0.052-1.979-0.001-3.992-0.335-5.936c-0.195-1.132-0.01-1.953,0.736-2.642
		c1.233-1.137,1.227-2.597,0.736-3.871c-0.58-1.503-0.534-2.982-0.619-4.504c-0.13-2.345,0.288-4.593,0.787-6.873
		c0.863-3.954,1.48-7.96,2.241-11.937c0.223-1.17,0.557-2.32,0.878-3.47c0.343-1.229,0.485-2.41,0.183-3.717
		c-0.173-0.744,0.3-1.644,0.502-2.469c0.283-1.151,0.82-2.297,0.831-3.448c0.024-2.701,1.061-4.867,2.915-6.727
		c0.141-0.141,0.26-0.305,0.404-0.44c1.377-1.298,1.403-2.761,0.534-4.332c-0.258-0.464-0.516-0.929-0.799-1.379
		c-0.839-1.331-1.212-2.792-1.238-4.353c-0.011-0.666-0.069-1.339,0.001-1.998c0.421-3.953-0.39-7.672-2.118-11.209
		c-0.65-1.33-0.845-2.605-0.23-4.021c0.646-1.487-0.412-2.533-1.22-3.555c-0.616-0.777-1.342-1.495-2.119-2.113
		c-1.95-1.551-2.484-3.71-2.703-6.006c-0.189-1.979-0.172-1.942-2.055-2.153c-3.094-0.347-6.183-0.755-9.152-2.406
		c0.154-1.946,0.285-3.982,0.48-6.012c0.356-3.695,0.724-7.39,1.14-11.078c0.201-1.779,0.575-3.539,0.777-5.318
		c0.195-1.712,0.328-3.436,0.382-5.158c0.066-2.13-0.012-4.265,0.032-6.396c0.116-5.719,0.26-11.437,0.406-17.154
		c0.012-0.461,0.117-0.921,0.195-1.378c0.334-1.958,0.563-3.942,1.035-5.867c1.151-4.693,2.732-9.247,6.328-12.675
		c1.506-1.436,3.488-2.364,5.192-3.607c0.672-0.491,1.237-1.166,1.745-1.836c0.723-0.952,1.239-2.086,2.797-1.815
		c0.26,0.045,0.789-0.493,0.914-0.856c0.187-0.547,0.146-1.178,0.169-1.774c0.144-3.584,0.275-7.169,0.421-10.753
		c0.013-0.329,0.023-0.693,0.165-0.976c1.667-3.324,3.128-6.801,6.175-9.184C1499.648,522.321,1500.388,522.168,1501.044,521.89z"/>
	<path fill="#FFFFFF" d="M1670.273,727.974c0.019,0.038,0.037,0.076,0.055,0.113c-0.288,0-0.574,0-0.861,0
		c0-0.037,0-0.075-0.001-0.113"/>
</g>
</svg>
