<?xml version="1.0" encoding="utf-8"?>
<!-- Generator: Adobe Illustrator 16.0.0, SVG Export Plug-In . SVG Version: 6.00 Build 0)  -->
<!DOCTYPE svg PUBLIC "-//W3C//DTD SVG 1.1//EN" "http://www.w3.org/Graphics/SVG/1.1/DTD/svg11.dtd">
<svg version="1.1" id="Layer_1" xmlns="http://www.w3.org/2000/svg" xmlns:xlink="http://www.w3.org/1999/xlink" x="0px" y="0px"
	 width="550.824px" height="178.4px" viewBox="0 0 550.824 178.4" enable-background="new 0 0 550.824 178.4" xml:space="preserve">
<path d="M93.634,178.401c-31.276,0-62.357,0-93.634,0C0,118.835,0,59.564,0,0c31.278,0,62.358,0,93.634,0
	C93.634,59.565,93.634,118.836,93.634,178.401z M86.528,112.732c0-15.824,0-31.364,0-46.998c-26.687,0-53.052,0-79.327,0
	c0,15.908,0,31.449,0,46.998C33.857,112.732,60.096,112.732,86.528,112.732z M7.125,9.149c0,16,0,31.398,0,46.739
	c26.716,0,53.091,0,79.385,0c0-15.787,0-31.197,0-46.739C59.916,9.149,33.656,9.149,7.125,9.149z M86.686,122.486
	c-26.858,0-53.232,0-79.578,0c0,15.768,0,31.174,0,46.577c26.69,0,53.055,0,79.578,0C86.686,153.399,86.686,138.122,86.686,122.486z
	"/>
<path d="M35.433,108.492c-3.501,0-6.761,0-10.314,0c0-10.933,0-21.626,0-32.625c3.399,0,6.651,0,10.314,0
	C35.433,86.587,35.433,97.278,35.433,108.492z"/>
<path d="M305.908,140.886c0,3.539,0,6.786,0,10.395c-10.82,0-21.496,0-32.531,0c0-3.372,0-6.745,0-10.395
	C284.184,140.886,294.729,140.886,305.908,140.886z"/>
<path d="M20.618,108.419c-3.696,0-6.939,0-10.429,0c0-10.856,0-21.405,0-32.405c3.362,0,6.716,0,10.429,0
	C20.618,86.71,20.618,97.39,20.618,108.419z"/>
<path d="M53.754,79.027c3.415-1.422,6.434-2.679,10.134-4.221c4.186,10.029,8.303,19.895,12.657,30.326
	c-3.258,1.448-6.339,2.817-10.062,4.473C62.212,99.345,58.058,89.367,53.754,79.027z"/>
<path d="M54.872,19.421c3.663,0,6.796,0,10.299,0c0,10.877,0,21.598,0,32.609c-3.419,0-6.669,0-10.299,0
	C54.872,41.253,54.872,30.547,54.872,19.421z"/>
<path d="M50.459,52.081c-3.56,0-6.812,0-10.411,0c0-10.787,0-21.478,0-32.496c3.403,0,6.77,0,10.411,0
	C50.459,30.342,50.459,40.899,50.459,52.081z"/>
<path d="M25.062,52.021c0-10.807,0-21.395,0-32.373c3.36,0,6.732,0,10.448,0c0,10.662,0,21.365,0,32.373
	C32.05,52.021,28.676,52.021,25.062,52.021z"/>
<path d="M20.691,19.61c0,10.835,0,21.518,0,32.455c-3.509,0-6.765,0-10.388,0c0-10.733,0-21.417,0-32.455
	C13.688,19.61,17.048,19.61,20.691,19.61z"/>
<path d="M20.598,165.375c-3.654,0-6.793,0-10.295,0c0-10.912,0-21.621,0-32.637c3.431,0,6.677,0,10.295,0
	C20.598,143.573,20.598,154.278,20.598,165.375z"/>
<path d="M35.541,165.297c-3.456,0-6.716,0-10.348,0c0-10.704,0-21.409,0-32.489c3.299,0,6.67,0,10.348,0
	C35.541,143.626,35.541,154.319,35.541,165.297z"/>
<path d="M50.419,165.271c-3.472,0-6.722,0-10.345,0c0-10.682,0-21.373,0-32.451c3.305,0,6.666,0,10.345,0
	C50.419,143.63,50.419,154.294,50.419,165.271z"/>
<path d="M80.201,165.369c-3.465,0-6.599,0-10.157,0c0-10.769,0-21.481,0-32.566c3.2,0,6.451,0,10.157,0
	C80.201,143.412,80.201,154.099,80.201,165.369z"/>
<path d="M54.795,132.74c3.651,0,6.88,0,10.426,0c0,10.852,0,21.402,0,32.398c-3.439,0-6.779,0-10.426,0
	C54.795,154.427,54.795,143.861,54.795,132.74z"/>
<path d="M225.124,80.298c-0.812,0.411-1.324,0.672-1.792,0.909c-0.611,0.887-0.279,1.7,0.113,2.435
	c3.074,5.752,7.567,9.669,14.033,11.334c3.376,0.87,6.739,1.154,10.182,1.104c1.707-0.023,3.37,0.14,4.572,1.638
	c0.259,0.321,0.756,0.449,1.075,0.628c3.15-1.142,11.559-1.199,13.807-0.028c0.069,0.555,0.234,1.237,0.229,1.922
	c-0.038,7.255-0.114,14.514-0.144,21.769c-0.005,0.807,0.207,1.617,0.33,2.496c0.696,0.133,1.188,0.311,1.681,0.311
	c21.863-0.102,43.729,0.096,65.731-0.37c0.188-0.942,0.441-1.616,0.437-2.287c-0.03-5.375-0.086-10.751-0.188-16.128
	c-0.062-3.341,1.059-4.345,4.35-3.724c0.371,0.069,0.721,0.256,1.352,0.49c0.129,0.842,0.394,1.769,0.394,2.695
	c-0.009,17.042-0.048,34.083-0.084,51.125c-0.005,2.03-0.644,2.647-2.685,2.643c-20.274-0.083-40.551-0.175-60.826-0.244
	c-4.21-0.016-8.422,0.035-12.633,0.048c-2.86,0.009-3.373-0.497-3.367-3.421c0.038-15.614,0.089-31.229,0.127-46.847
	c0.003-1.229-0.019-2.462-0.103-3.689c-0.041-0.613-0.247-1.218-0.403-1.945c-2.372-0.185-4.6-0.354-7.026-0.544
	c-0.212,0.291-0.562,0.668-0.794,1.104c-1.176,2.225-3.128,3.389-5.514,3.379c-8.778-0.041-17.114-1.759-24.344-7.138
	c-0.878-0.655-1.644-1.462-2.492-2.161c-0.572-0.474-1.197-0.883-2.057-1.51c-0.601,2.643-1.148,4.952-1.648,7.269
	c-0.271,1.267-0.421,2.556-0.709,3.815c-0.345,1.516-0.069,2.759,1.099,3.879c6.195,5.938,10.914,12.967,14.688,20.61
	c2.519,5.104,4.604,10.406,5.931,15.979c0.688,2.892,1.571,5.742,2.163,8.653c0.708,3.485,1.325,7.002,1.749,10.529
	c0.487,4.057-2.058,7.869-5.897,9.245c-4.634,1.661-9.603-1.051-10.717-5.948c-0.414-1.821-0.519-3.715-0.807-5.568
	c-0.335-2.167-0.671-4.338-1.089-6.492c-0.417-2.151-0.896-4.294-1.417-6.423c-1.217-4.983-3.057-9.749-5.238-14.384
	c-0.381-0.809-0.75-1.682-2.021-1.747c-0.157,0.465-0.397,0.928-0.461,1.411c-0.583,4.386-1.74,8.622-3.333,12.737
	c-2.439,6.305-5.512,12.271-9.602,17.683c-1.404,1.855-2.797,3.729-4.281,5.526c-1.863,2.263-4.071,4.016-7.194,4.072
	c-3.327,0.057-5.604-1.743-7.303-4.37c-0.586-0.908-0.952-1.99-1.247-3.044c-0.694-2.474,0.316-4.604,1.731-6.499
	c2.047-2.749,4.3-5.341,6.365-8.077c2.546-3.373,4.601-7.04,6.003-11.04c0.898-2.56,1.976-5.1,2.486-7.741
	c0.734-3.804,1.082-7.688,0.725-11.591c-0.019-0.195-0.075-0.386-0.074-0.579c0.021-4.019-1.381-7.494-3.481-10.912
	c-1.124-1.832-1.69-4.307-1.668-6.479c0.069-6.935,0.785-13.804,2.939-20.486c1.699-5.269,3.958-10.254,6.629-15.069
	c1.737-3.133,4.144-5.607,7.462-7.106c3.217-1.453,6.507-1.531,9.861-0.57c1.417,0.407,2.562,1.186,3.436,2.394
	c1.934,2.678,3.003,5.598,2.354,8.921C226.145,76.769,225.563,78.615,225.124,80.298z M267.441,130.001
	c-0.09,0.939-0.233,1.753-0.233,2.565c-0.002,6.345,0.014,12.688,0.057,19.032c0.003,0.61,0.219,1.215,0.347,1.886
	c0.659,0.096,1.158,0.23,1.659,0.234c11.129,0.041,22.26,0.107,33.391,0.088c10.166-0.016,20.328-0.12,30.492-0.212
	c0.664-0.003,1.324-0.24,2.123-0.397c-0.014-7.729,0.295-15.265-0.029-22.71c-0.547-0.266-0.834-0.521-1.121-0.523
	c-21.68-0.103-43.363-0.188-65.042-0.26C268.647,129.702,268.209,129.86,267.441,130.001z"/>
<path d="M223.55,61.491c-8.456,0.003-14.664-7.417-14.564-14.867c0.117-8.654,7.249-15.008,15.307-14.799
	c8.771,0.229,14.82,8.135,14.491,15.469C238.434,55.073,231.651,61.945,223.55,61.491z"/>
<path d="M333.9,173.593c-3.312,0.041-5.986-2.38-5.976-5.565c0.011-3.304,2.367-5.604,5.765-5.941
	c2.992-0.301,5.801,2.729,5.867,6.021C339.615,170.964,336.943,173.555,333.9,173.593z"/>
<path d="M268.978,173.496c-3.037,0.188-5.736-2.854-5.62-5.708c0.138-3.456,2.749-5.435,5.629-5.572
	c2.846-0.136,5.634,2.804,5.656,5.619C274.664,171.014,272.146,173.53,268.978,173.496z"/>
<path d="M279.839,121.053c-3.539,0-6.787,0-10.394,0c0-10.82,0-21.497,0-32.531c3.372,0,6.747,0,10.394,0
	C279.839,99.328,279.839,109.874,279.839,121.053z"/>
<path d="M311.839,121.053c-3.539,0-6.787,0-10.396,0c0-10.82,0-21.497,0-32.531c3.373,0,6.746,0,10.396,0
	C311.839,99.328,311.839,109.874,311.839,121.053z"/>
<path d="M294.839,121.053c-3.539,0-6.787,0-10.396,0c0-10.82,0-21.497,0-32.531c3.373,0,6.746,0,10.396,0
	C294.839,99.328,294.839,109.874,294.839,121.053z"/>
<path d="M311.839,91.609c3.414-1.423,6.435-2.679,10.136-4.221c4.186,10.028,8.303,19.895,12.655,30.326
	c-3.258,1.448-6.338,2.817-10.062,4.473C320.298,111.927,316.145,101.949,311.839,91.609z"/>
<path d="M497.985,93.562c-9.976,0.001-19.949,0.001-29.925,0.001c-0.931,0-0.994-0.055-0.994-0.955
	c0-9.725,0.002-19.448,0.006-29.174c0.001-1.104,0.01-1.148,1.085-1.1c0.698,0.032,0.87-0.264,0.836-0.875
	c-0.03-0.523,0.049-1.058-0.02-1.573c-0.214-1.633,0.499-2.921,1.452-4.133c1.996-2.535,4.353-4.642,7.337-5.941
	c2.78-1.211,5.668-1.723,8.718-1.292c2.592,0.366,5.015,1.148,7.134,2.685c1.306,0.945,2.536,2.011,3.71,3.119
	c0.539,0.508,0.769,0.502,1.238-0.045c1.924-2.231,4.296-3.912,7.043-4.9c2.613-0.939,5.338-1.254,8.157-0.798
	c5.493,0.889,9.454,3.994,12.536,8.404c0.412,0.59,0.538,1.429,0.636,2.173c0.106,0.811,0.032,1.646,0.021,2.472
	c-0.006,0.481,0.147,0.716,0.693,0.702c1.285-0.033,1.245-0.199,1.245,1.25c0.002,9.674,0.004,19.349,0.004,29.022
	c0,0.908-0.055,0.959-0.989,0.959C517.934,93.561,507.959,93.561,497.985,93.562z M522.692,85.68
	c0.017-0.378,0.034-0.597,0.034-0.814c0.002-8.35,0.01-16.698-0.017-25.047c-0.001-0.433-0.165-0.954-0.438-1.281
	c-2.419-2.904-5.21-5.158-9.145-5.767c-2.049-0.316-3.98-0.119-5.864,0.514c-2.55,0.854-4.575,2.531-6.264,4.603
	c-0.511,0.625-1.039,1.248-1.025,2.165c0.035,2.474,0.021,4.949,0.021,7.424c0.001,5.725-0.003,11.448,0.009,17.172
	c0,0.246,0.143,0.491,0.218,0.736c0.21-0.094,0.45-0.148,0.626-0.286c2.034-1.593,4.277-2.714,6.81-3.325
	c2.247-0.543,4.5-0.594,6.719-0.147c2.511,0.504,4.861,1.501,6.92,3.088C521.71,85.032,522.157,85.312,522.692,85.68z
	 M495.796,85.647c0-0.96-0.001-1.677,0.001-2.393c0.016-7.548,0.04-15.096,0.035-22.644c0-0.847-0.022-1.674-0.678-2.429
	c-2.394-2.761-5.148-4.795-8.878-5.418c-2.046-0.341-3.99-0.121-5.866,0.521c-2.805,0.957-4.988,2.841-6.754,5.194
	c-0.247,0.331-0.416,0.811-0.417,1.222c-0.023,8.322-0.019,16.646-0.016,24.969c0,0.253,0.03,0.506,0.056,0.884
	C480.799,79.849,488.21,79.975,495.796,85.647z M490.285,87.055c-3.953-1.967-7.688-1.972-11.65-0.016
	c0.387,0.139,0.589,0.273,0.792,0.274c3.367,0.013,6.735,0.011,10.104-0.004C489.725,87.31,489.92,87.183,490.285,87.055z
	 M516.887,87.116c-3.745-1.983-7.426-2.055-11.126-0.097c0.197,0.158,0.416,0.288,0.636,0.289c3.271,0.015,6.544,0.016,9.814,0.002
	C516.438,87.311,516.663,87.184,516.887,87.116z"/>
<polygon points="534.324,99.192 463.824,99.404 463.824,93.563 534.324,93.35 "/>
<polygon points="500.324,170.071 495.833,170.097 495.833,99.404 500.324,99.377 "/>
<polygon points="550.824,177.095 447.824,177.095 447.324,170.243 550.324,170.243 "/>
</svg>
