<?xml version="1.0" encoding="utf-8"?>
<!-- Generator: Adobe Illustrator 16.0.0, SVG Export Plug-In . SVG Version: 6.00 Build 0)  -->
<!DOCTYPE svg PUBLIC "-//W3C//DTD SVG 1.1//EN" "http://www.w3.org/Graphics/SVG/1.1/DTD/svg11.dtd">
<svg version="1.1" id="Layer_1" xmlns="http://www.w3.org/2000/svg" xmlns:xlink="http://www.w3.org/1999/xlink" x="0px" y="0px"
	 width="1784.868px" height="363.168px" viewBox="0 0 1784.868 363.168" enable-background="new 0 0 1784.868 363.168"
	 xml:space="preserve">
<g>
	<path d="M106.727,357.866c-2.626-1.696-5.632-3.015-7.796-5.173c-3.889-3.882-4.358-8.818-2.36-13.832
		c2.018-5.062,6.149-7.584,11.341-8.555c0.731-0.137,1.495-0.135,2.244-0.135c18.191-0.009,36.382-0.021,54.572,0
		c5.567,0.006,10.13,2.201,12.903,7.081c4.352,7.659,1.018,16.319-7.273,19.587c-0.763,0.301-1.496,0.682-2.243,1.024
		C147.652,357.866,127.19,357.866,106.727,357.866z"/>
	<path d="M150.094,5.303c2.967,2.121,3.574,5.078,3.468,8.555c-0.191,6.267-0.026,12.543-0.065,18.815
		c-0.031,5.043-2.181,7.098-7.178,6.459c-6.261-0.799-12.469-0.729-18.722,0.044c-4.459,0.551-6.743-1.546-6.79-6.033
		c-0.072-6.833,0.086-13.67-0.069-20.5c-0.076-3.351,0.953-5.832,4.012-7.34C133.197,5.303,141.646,5.303,150.094,5.303z"/>
	<path d="M137.111,275.084c-13.606,0.001-27.212,0.008-40.818-0.002c-5.237-0.005-7.204-1.553-7.375-6.678
		c-0.521-15.572-6.196-29.611-12.626-43.43c-7.232-15.545-14.941-30.879-21.784-46.591c-7.335-16.843-10.106-34.536-6.702-52.812
		c3.049-16.367,10.023-30.888,21.016-43.5c8.969-10.291,19.695-18.178,32.114-23.625c12.076-5.297,24.82-7.755,38.058-7.446
		c20.584,0.481,39.017,7.114,54.989,19.999c15.067,12.154,25.265,27.666,30.553,46.424c6.031,21.397,3.545,42.063-5.322,62.028
		c-7.186,16.179-15.274,31.956-22.578,48.083c-3.275,7.229-6.026,14.766-8.239,22.388c-1.63,5.615-2.266,11.569-2.866,17.42
		c-0.633,6.181-1.979,7.734-8.164,7.737C163.948,275.086,150.53,275.082,137.111,275.084z"/>
	<path d="M137.217,289.141c11.072-0.002,22.144-0.024,33.216,0.006c6.209,0.021,11.075,2.945,12.961,8.07
		c2.147,5.832,1.435,11.281-3.099,15.855c-2.422,2.439-5.503,3.639-8.892,3.646c-22.799,0.052-45.6,0.115-68.399-0.02
		c-7.795-0.047-13.223-6.031-13.202-13.875c0.021-7.849,5.514-13.584,13.356-13.653C114.51,289.068,125.863,289.145,137.217,289.141
		z"/>
	<path d="M16.786,158.973c-3.378,0-6.757,0.061-10.133-0.014c-4.567-0.101-6.542-2.033-6.594-6.583
		c-0.076-6.661-0.083-13.324,0.005-19.985c0.057-4.329,2.156-6.411,6.448-6.452c7.037-0.067,14.075-0.083,21.112,0.006
		c4.5,0.058,6.967,2.95,6.231,7.381c-1.009,6.079-0.995,12.099,0.035,18.179c0.782,4.616-1.639,7.324-6.408,7.449
		C23.919,159.047,20.352,158.972,16.786,158.973z"/>
	<path d="M257.367,125.918c3.377,0,6.755-0.034,10.133,0.009c4.52,0.057,6.656,2.042,6.715,6.479
		c0.089,6.66,0.084,13.323,0.004,19.984c-0.055,4.551-2.03,6.511-6.605,6.562c-6.942,0.078-13.887,0.101-20.829-0.005
		c-4.878-0.074-7.205-2.91-6.355-7.735c1.038-5.888,1.017-11.73,0.031-17.618c-0.798-4.766,1.637-7.586,6.492-7.665
		C250.423,125.872,253.896,125.917,257.367,125.918z"/>
	<path d="M81.554,17.286c0.994,0.702,2.834,1.375,3.647,2.686c4.042,6.512,7.911,13.14,11.637,19.84
		c1.619,2.911,0.805,5.792-2.067,7.541c-6.222,3.79-12.526,7.45-18.889,10.998c-2.92,1.629-5.711,0.771-7.466-2.159
		c-3.798-6.339-7.527-12.722-11.166-19.153c-1.711-3.024-1.058-5.926,1.955-7.774c6.297-3.863,12.729-7.506,19.139-11.183
		C79.038,17.685,79.95,17.668,81.554,17.286z"/>
	<path d="M36.297,102.851c-0.901-0.41-2.564-1.025-4.087-1.886c-5.382-3.046-10.719-6.171-16.067-9.279
		c-4.054-2.355-4.916-5.26-2.597-9.422c3.192-5.731,6.456-11.424,9.796-17.069c2.165-3.659,5.151-4.399,8.813-2.316
		c6.026,3.426,12.035,6.885,18.026,10.372c3.722,2.166,4.58,5.303,2.545,8.735c-3.487,5.879-6.972,11.761-10.385,17.684
		C41.154,101.731,39.538,102.872,36.297,102.851z"/>
	<path d="M245.215,61.65c2.991,0.12,4.662,1.703,5.891,3.808c3.165,5.422,6.285,10.87,9.387,16.329
		c2.652,4.667,1.775,7.584-2.862,10.201c-5.711,3.223-11.342,6.592-17.079,9.77c-3.914,2.167-6.604,1.248-8.866-2.634
		c-3.299-5.665-6.619-11.316-9.995-16.935c-2.002-3.333-1.585-6.504,1.723-8.504c6.494-3.923,13.126-7.617,19.727-11.362
		C243.852,61.917,244.729,61.801,245.215,61.65z"/>
	<path d="M217.968,34.148c-0.312,0.969-0.464,2.029-0.958,2.893c-3.63,6.343-7.268,12.682-11.031,18.947
		c-1.984,3.306-4.775,3.996-8.163,2.086c-5.949-3.353-11.862-6.77-17.723-10.274c-3.607-2.157-4.305-5.156-2.191-8.86
		c3.342-5.856,6.709-11.7,10.149-17.499c2.612-4.403,5.18-4.961,9.542-2.406c5.417,3.172,10.889,6.248,16.315,9.403
		C216.075,29.696,218.049,31.145,217.968,34.148z"/>
	<path d="M221.928,207.826c0.715-1.965,1.122-3.309,1.685-4.584c2.496-5.658,5.029-11.297,7.562-16.938
		c2.093-4.661,4.965-5.606,9.406-3.07c6.021,3.438,12.027,6.906,18.033,10.373c3.292,1.897,4.394,4.697,2.578,8.062
		c-3.469,6.426-7.148,12.746-10.941,18.985c-1.638,2.695-4.573,3.337-7.411,1.771c-5.988-3.306-11.96-6.659-17.75-10.296
		C223.624,211.209,222.869,209.158,221.928,207.826z"/>
	<path d="M52.029,208.26c-0.821,1.117-1.621,3.119-3.096,4.049c-5.55,3.493-11.288,6.695-17.02,9.89
		c-3.51,1.954-6.347,1.188-8.393-2.237c-3.409-5.713-6.764-11.461-10.012-17.268c-2.32-4.144-1.418-7.006,2.671-9.363
		c6.089-3.514,12.157-7.062,18.274-10.527c3.171-1.796,6.278-1.062,7.823,2.203c3.202,6.777,6.114,13.688,9.116,20.559
		C51.649,206.15,51.699,206.83,52.029,208.26z"/>
</g>
<g>
	<path d="M1579.168,0.166c59.16,0,118.32,0.252,177.477-0.165c16.105-0.114,28.293,10.817,28.223,28.2
		c-0.416,102.484-0.203,204.972-0.205,307.458c-0.002,17.647-9.85,27.501-27.543,27.503c-118.984,0.008-237.969,0.009-356.953-0.002
		c-17.684-0.001-27.516-9.867-27.516-27.529c-0.002-102.652-0.002-205.306,0-307.959c0-17.648,9.846-27.498,27.543-27.502
		C1459.852,0.159,1519.51,0.166,1579.168,0.166z M1397.606,337.884c120.764,0,241.301,0,361.941,0c0-90.579,0-180.919,0-271.246
		c-120.846,0-241.254,0-361.941,0C1397.606,157.162,1397.606,247.382,1397.606,337.884z M1652.76,17.031
		c-8.734,0.03-16.297,7.459-16.404,16.117c-0.111,8.899,7.502,16.507,16.504,16.489c9.023-0.018,16.455-7.587,16.291-16.596
		C1668.991,24.229,1661.59,17,1652.76,17.031z M1727.159,33.271c-0.012,9.067,7.441,16.47,16.484,16.369
		c8.766-0.098,16.189-7.506,16.275-16.242c0.088-8.843-7.662-16.458-16.645-16.357C1734.405,17.14,1727.168,24.426,1727.159,33.271z
		 M1714.321,33.248c-0.055-9.01-7.225-16.213-16.146-16.224c-9.152-0.011-16.268,7.309-16.186,16.653
		c0.08,8.912,7.434,16.086,16.365,15.964C1707.317,49.52,1714.374,42.272,1714.321,33.248z"/>
	<path d="M1544.989,244.979c-7.035-3.024-13.396-5.746-19.744-8.496c-22.123-9.588-44.215-19.246-66.391-28.705
		c-2.871-1.227-4.125-2.61-3.934-5.814c0.352-5.799-1.711-12.918,0.973-17.066c2.656-4.108,9.885-5.334,15.184-7.646
		c22.713-9.905,45.449-19.75,68.186-29.602c1.646-0.713,3.348-1.304,5.715-2.22c0,8.108,0.184,15.688-0.176,23.242
		c-0.061,1.312-2.174,3.081-3.715,3.688c-17.938,7.074-35.945,13.964-53.934,20.916c-1.18,0.457-2.318,1.021-4.086,1.807
		c19.496,7.684,38.324,15.204,57.252,22.467c3.441,1.32,4.979,2.875,4.768,6.762
		C1544.729,230.898,1544.989,237.527,1544.989,244.979z"/>
	<path d="M1612.325,145.614c7.816,3.332,14.824,6.289,21.807,9.3c21.383,9.217,42.729,18.528,64.17,27.604
		c3.125,1.322,4.314,2.897,4.096,6.271c-0.367,5.633,1.66,12.552-0.941,16.591c-2.576,3.994-9.598,5.192-14.744,7.442
		c-22.859,9.994-45.744,19.929-68.627,29.871c-1.631,0.709-3.305,1.322-5.742,2.289c0-8.252-0.186-15.838,0.186-23.397
		c0.061-1.251,2.363-2.86,3.955-3.497c17.447-6.973,34.965-13.781,52.457-20.65c1.664-0.651,3.287-1.41,5.584-2.399
		c-19.596-7.61-38.439-15.09-57.432-22.174c-3.848-1.437-5.066-3.253-4.855-7.202
		C1612.571,159.358,1612.325,153.024,1612.325,145.614z"/>
	<path d="M1564.295,262.029c-7.057-0.012-10.207-3.785-8.521-11.187c4.766-20.918,9.762-41.782,14.762-62.646
		c4.146-17.308,8.262-34.626,12.793-51.834c0.852-3.231,2.969-7.282,5.645-8.558c2.691-1.284,7.527-0.617,10.074,1.146
		c1.996,1.383,3.105,5.961,2.58,8.736c-2.033,10.773-4.84,21.402-7.428,32.069c-6.701,27.641-13.381,55.285-20.199,82.896
		C1572.196,259.968,1569.774,262.037,1564.295,262.029z"/>
</g>
<g enable-background="new    ">
	<path d="M696.697,22.371v-9.457c-0.336,0.352-0.744,0.615-1.225,0.791s-1.08,0.264-1.799,0.264h-0.504v-1.781h0.961
		c0.688,0,1.279-0.135,1.775-0.404s0.881-0.686,1.154-1.248h1.582v11.836h3.117v1.699h-8.59v-1.699H696.697z"/>
	<path d="M694.845,47.801c-0.664-0.336-1.213-0.807-1.646-1.412s-0.754-1.34-0.961-2.203s-0.311-1.814-0.311-2.854
		c0-1.062,0.107-2.029,0.322-2.9s0.547-1.615,0.996-2.232s1.006-1.094,1.67-1.43s1.449-0.504,2.355-0.504
		c0.914,0,1.703,0.168,2.367,0.504s1.217,0.809,1.658,1.418s0.766,1.342,0.973,2.197s0.311,1.803,0.311,2.842
		c0,1.055-0.107,2.02-0.322,2.895s-0.547,1.619-0.996,2.232s-1.01,1.092-1.682,1.436s-1.465,0.516-2.379,0.516
		C696.294,48.305,695.509,48.137,694.845,47.801z M698.894,46.137c0.426-0.297,0.762-0.689,1.008-1.178s0.414-1.053,0.504-1.693
		s0.135-1.305,0.135-1.992s-0.045-1.346-0.135-1.975s-0.258-1.188-0.504-1.676s-0.582-0.881-1.008-1.178S697.919,36,697.248,36
		s-1.219,0.148-1.641,0.445s-0.758,0.689-1.008,1.178s-0.418,1.047-0.504,1.676s-0.129,1.287-0.129,1.975s0.043,1.352,0.129,1.992
		s0.254,1.205,0.504,1.693s0.586,0.881,1.008,1.178s0.969,0.445,1.641,0.445S698.468,46.434,698.894,46.137z M696.515,42.006
		c-0.184-0.184-0.275-0.428-0.275-0.732c0-0.281,0.092-0.516,0.275-0.703s0.428-0.281,0.732-0.281s0.549,0.094,0.732,0.281
		s0.275,0.422,0.275,0.703c0,0.305-0.092,0.549-0.275,0.732s-0.428,0.275-0.732,0.275S696.699,42.189,696.515,42.006z"/>
	<path d="M696.697,70.371v-9.457c-0.336,0.352-0.744,0.615-1.225,0.791s-1.08,0.264-1.799,0.264h-0.504v-1.781h0.961
		c0.688,0,1.279-0.135,1.775-0.404s0.881-0.686,1.154-1.248h1.582v11.836h3.117v1.699h-8.59v-1.699H696.697z"/>
	<path d="M694.845,95.801c-0.664-0.336-1.213-0.807-1.646-1.412s-0.754-1.34-0.961-2.203s-0.311-1.814-0.311-2.854
		c0-1.062,0.107-2.029,0.322-2.9s0.547-1.615,0.996-2.232s1.006-1.094,1.67-1.43s1.449-0.504,2.355-0.504
		c0.914,0,1.703,0.168,2.367,0.504s1.217,0.809,1.658,1.418s0.766,1.342,0.973,2.197s0.311,1.803,0.311,2.842
		c0,1.055-0.107,2.02-0.322,2.895s-0.547,1.619-0.996,2.232s-1.01,1.092-1.682,1.436s-1.465,0.516-2.379,0.516
		C696.294,96.305,695.509,96.137,694.845,95.801z M698.894,94.137c0.426-0.297,0.762-0.689,1.008-1.178s0.414-1.053,0.504-1.693
		s0.135-1.305,0.135-1.992s-0.045-1.346-0.135-1.975s-0.258-1.188-0.504-1.676s-0.582-0.881-1.008-1.178S697.919,84,697.248,84
		s-1.219,0.148-1.641,0.445s-0.758,0.689-1.008,1.178s-0.418,1.047-0.504,1.676s-0.129,1.287-0.129,1.975s0.043,1.352,0.129,1.992
		s0.254,1.205,0.504,1.693s0.586,0.881,1.008,1.178s0.969,0.445,1.641,0.445S698.468,94.434,698.894,94.137z M696.515,90.006
		c-0.184-0.184-0.275-0.428-0.275-0.732c0-0.281,0.092-0.516,0.275-0.703s0.428-0.281,0.732-0.281s0.549,0.094,0.732,0.281
		s0.275,0.422,0.275,0.703c0,0.305-0.092,0.549-0.275,0.732s-0.428,0.275-0.732,0.275S696.699,90.189,696.515,90.006z"/>
	<path d="M694.845,119.801c-0.664-0.336-1.213-0.807-1.646-1.412s-0.754-1.34-0.961-2.203s-0.311-1.814-0.311-2.854
		c0-1.062,0.107-2.029,0.322-2.9s0.547-1.615,0.996-2.232s1.006-1.094,1.67-1.43s1.449-0.504,2.355-0.504
		c0.914,0,1.703,0.168,2.367,0.504s1.217,0.809,1.658,1.418s0.766,1.342,0.973,2.197s0.311,1.803,0.311,2.842
		c0,1.055-0.107,2.02-0.322,2.895s-0.547,1.619-0.996,2.232s-1.01,1.092-1.682,1.436s-1.465,0.516-2.379,0.516
		C696.294,120.305,695.509,120.137,694.845,119.801z M698.894,118.137c0.426-0.297,0.762-0.689,1.008-1.178s0.414-1.053,0.504-1.693
		s0.135-1.305,0.135-1.992s-0.045-1.346-0.135-1.975s-0.258-1.188-0.504-1.676s-0.582-0.881-1.008-1.178S697.919,108,697.248,108
		s-1.219,0.148-1.641,0.445s-0.758,0.689-1.008,1.178s-0.418,1.047-0.504,1.676s-0.129,1.287-0.129,1.975s0.043,1.352,0.129,1.992
		s0.254,1.205,0.504,1.693s0.586,0.881,1.008,1.178s0.969,0.445,1.641,0.445S698.468,118.434,698.894,118.137z M696.515,114.006
		c-0.184-0.184-0.275-0.428-0.275-0.732c0-0.281,0.092-0.516,0.275-0.703s0.428-0.281,0.732-0.281s0.549,0.094,0.732,0.281
		s0.275,0.422,0.275,0.703c0,0.305-0.092,0.549-0.275,0.732s-0.428,0.275-0.732,0.275S696.699,114.189,696.515,114.006z"/>
	<path d="M696.697,142.371v-9.457c-0.336,0.352-0.744,0.615-1.225,0.791s-1.08,0.264-1.799,0.264h-0.504v-1.781h0.961
		c0.688,0,1.279-0.135,1.775-0.404s0.881-0.686,1.154-1.248h1.582v11.836h3.117v1.699h-8.59v-1.699H696.697z"/>
	<path d="M694.845,167.801c-0.664-0.336-1.213-0.807-1.646-1.412s-0.754-1.34-0.961-2.203s-0.311-1.814-0.311-2.854
		c0-1.062,0.107-2.029,0.322-2.9s0.547-1.615,0.996-2.232s1.006-1.094,1.67-1.43s1.449-0.504,2.355-0.504
		c0.914,0,1.703,0.168,2.367,0.504s1.217,0.809,1.658,1.418s0.766,1.342,0.973,2.197s0.311,1.803,0.311,2.842
		c0,1.055-0.107,2.02-0.322,2.895s-0.547,1.619-0.996,2.232s-1.01,1.092-1.682,1.436s-1.465,0.516-2.379,0.516
		C696.294,168.305,695.509,168.137,694.845,167.801z M698.894,166.137c0.426-0.297,0.762-0.689,1.008-1.178s0.414-1.053,0.504-1.693
		s0.135-1.305,0.135-1.992s-0.045-1.346-0.135-1.975s-0.258-1.188-0.504-1.676s-0.582-0.881-1.008-1.178S697.919,156,697.248,156
		s-1.219,0.148-1.641,0.445s-0.758,0.689-1.008,1.178s-0.418,1.047-0.504,1.676s-0.129,1.287-0.129,1.975s0.043,1.352,0.129,1.992
		s0.254,1.205,0.504,1.693s0.586,0.881,1.008,1.178s0.969,0.445,1.641,0.445S698.468,166.434,698.894,166.137z M696.515,162.006
		c-0.184-0.184-0.275-0.428-0.275-0.732c0-0.281,0.092-0.516,0.275-0.703s0.428-0.281,0.732-0.281s0.549,0.094,0.732,0.281
		s0.275,0.422,0.275,0.703c0,0.305-0.092,0.549-0.275,0.732s-0.428,0.275-0.732,0.275S696.699,162.189,696.515,162.006z"/>
	<path d="M694.845,191.801c-0.664-0.336-1.213-0.807-1.646-1.412s-0.754-1.34-0.961-2.203s-0.311-1.814-0.311-2.854
		c0-1.062,0.107-2.029,0.322-2.9s0.547-1.615,0.996-2.232s1.006-1.094,1.67-1.43s1.449-0.504,2.355-0.504
		c0.914,0,1.703,0.168,2.367,0.504s1.217,0.809,1.658,1.418s0.766,1.342,0.973,2.197s0.311,1.803,0.311,2.842
		c0,1.055-0.107,2.02-0.322,2.895s-0.547,1.619-0.996,2.232s-1.01,1.092-1.682,1.436s-1.465,0.516-2.379,0.516
		C696.294,192.305,695.509,192.137,694.845,191.801z M698.894,190.137c0.426-0.297,0.762-0.689,1.008-1.178s0.414-1.053,0.504-1.693
		s0.135-1.305,0.135-1.992s-0.045-1.346-0.135-1.975s-0.258-1.188-0.504-1.676s-0.582-0.881-1.008-1.178S697.919,180,697.248,180
		s-1.219,0.148-1.641,0.445s-0.758,0.689-1.008,1.178s-0.418,1.047-0.504,1.676s-0.129,1.287-0.129,1.975s0.043,1.352,0.129,1.992
		s0.254,1.205,0.504,1.693s0.586,0.881,1.008,1.178s0.969,0.445,1.641,0.445S698.468,190.434,698.894,190.137z M696.515,186.006
		c-0.184-0.184-0.275-0.428-0.275-0.732c0-0.281,0.092-0.516,0.275-0.703s0.428-0.281,0.732-0.281s0.549,0.094,0.732,0.281
		s0.275,0.422,0.275,0.703c0,0.305-0.092,0.549-0.275,0.732s-0.428,0.275-0.732,0.275S696.699,186.189,696.515,186.006z"/>
	<path d="M696.697,214.371v-9.457c-0.336,0.352-0.744,0.615-1.225,0.791s-1.08,0.264-1.799,0.264h-0.504v-1.781h0.961
		c0.688,0,1.279-0.135,1.775-0.404s0.881-0.686,1.154-1.248h1.582v11.836h3.117v1.699h-8.59v-1.699H696.697z"/>
	<path d="M694.845,239.801c-0.664-0.336-1.213-0.807-1.646-1.412s-0.754-1.34-0.961-2.203s-0.311-1.814-0.311-2.854
		c0-1.062,0.107-2.029,0.322-2.9s0.547-1.615,0.996-2.232s1.006-1.094,1.67-1.43s1.449-0.504,2.355-0.504
		c0.914,0,1.703,0.168,2.367,0.504s1.217,0.809,1.658,1.418s0.766,1.342,0.973,2.197s0.311,1.803,0.311,2.842
		c0,1.055-0.107,2.02-0.322,2.895s-0.547,1.619-0.996,2.232s-1.01,1.092-1.682,1.436s-1.465,0.516-2.379,0.516
		C696.294,240.305,695.509,240.137,694.845,239.801z M698.894,238.137c0.426-0.297,0.762-0.689,1.008-1.178s0.414-1.053,0.504-1.693
		s0.135-1.305,0.135-1.992s-0.045-1.346-0.135-1.975s-0.258-1.188-0.504-1.676s-0.582-0.881-1.008-1.178S697.919,228,697.248,228
		s-1.219,0.148-1.641,0.445s-0.758,0.689-1.008,1.178s-0.418,1.047-0.504,1.676s-0.129,1.287-0.129,1.975s0.043,1.352,0.129,1.992
		s0.254,1.205,0.504,1.693s0.586,0.881,1.008,1.178s0.969,0.445,1.641,0.445S698.468,238.434,698.894,238.137z M696.515,234.006
		c-0.184-0.184-0.275-0.428-0.275-0.732c0-0.281,0.092-0.516,0.275-0.703s0.428-0.281,0.732-0.281s0.549,0.094,0.732,0.281
		s0.275,0.422,0.275,0.703c0,0.305-0.092,0.549-0.275,0.732s-0.428,0.275-0.732,0.275S696.699,234.189,696.515,234.006z"/>
	<path d="M696.697,262.371v-9.457c-0.336,0.352-0.744,0.615-1.225,0.791s-1.08,0.264-1.799,0.264h-0.504v-1.781h0.961
		c0.688,0,1.279-0.135,1.775-0.404s0.881-0.686,1.154-1.248h1.582v11.836h3.117v1.699h-8.59v-1.699H696.697z"/>
	<path d="M694.845,287.801c-0.664-0.336-1.213-0.807-1.646-1.412s-0.754-1.34-0.961-2.203s-0.311-1.814-0.311-2.854
		c0-1.062,0.107-2.029,0.322-2.9s0.547-1.615,0.996-2.232s1.006-1.094,1.67-1.43s1.449-0.504,2.355-0.504
		c0.914,0,1.703,0.168,2.367,0.504s1.217,0.809,1.658,1.418s0.766,1.342,0.973,2.197s0.311,1.803,0.311,2.842
		c0,1.055-0.107,2.02-0.322,2.895s-0.547,1.619-0.996,2.232s-1.01,1.092-1.682,1.436s-1.465,0.516-2.379,0.516
		C696.294,288.305,695.509,288.137,694.845,287.801z M698.894,286.137c0.426-0.297,0.762-0.689,1.008-1.178s0.414-1.053,0.504-1.693
		s0.135-1.305,0.135-1.992s-0.045-1.346-0.135-1.975s-0.258-1.188-0.504-1.676s-0.582-0.881-1.008-1.178S697.919,276,697.248,276
		s-1.219,0.148-1.641,0.445s-0.758,0.689-1.008,1.178s-0.418,1.047-0.504,1.676s-0.129,1.287-0.129,1.975s0.043,1.352,0.129,1.992
		s0.254,1.205,0.504,1.693s0.586,0.881,1.008,1.178s0.969,0.445,1.641,0.445S698.468,286.434,698.894,286.137z M696.515,282.006
		c-0.184-0.184-0.275-0.428-0.275-0.732c0-0.281,0.092-0.516,0.275-0.703s0.428-0.281,0.732-0.281s0.549,0.094,0.732,0.281
		s0.275,0.422,0.275,0.703c0,0.305-0.092,0.549-0.275,0.732s-0.428,0.275-0.732,0.275S696.699,282.189,696.515,282.006z"/>
	<path d="M696.697,310.371v-9.457c-0.336,0.352-0.744,0.615-1.225,0.791s-1.08,0.264-1.799,0.264h-0.504v-1.781h0.961
		c0.688,0,1.279-0.135,1.775-0.404s0.881-0.686,1.154-1.248h1.582v11.836h3.117v1.699h-8.59v-1.699H696.697z"/>
	<path d="M694.845,335.801c-0.664-0.336-1.213-0.807-1.646-1.412s-0.754-1.34-0.961-2.203s-0.311-1.814-0.311-2.854
		c0-1.062,0.107-2.029,0.322-2.9s0.547-1.615,0.996-2.232s1.006-1.094,1.67-1.43s1.449-0.504,2.355-0.504
		c0.914,0,1.703,0.168,2.367,0.504s1.217,0.809,1.658,1.418s0.766,1.342,0.973,2.197s0.311,1.803,0.311,2.842
		c0,1.055-0.107,2.02-0.322,2.895s-0.547,1.619-0.996,2.232s-1.01,1.092-1.682,1.436s-1.465,0.516-2.379,0.516
		C696.294,336.305,695.509,336.137,694.845,335.801z M698.894,334.137c0.426-0.297,0.762-0.689,1.008-1.178s0.414-1.053,0.504-1.693
		s0.135-1.305,0.135-1.992s-0.045-1.346-0.135-1.975s-0.258-1.188-0.504-1.676s-0.582-0.881-1.008-1.178S697.919,324,697.248,324
		s-1.219,0.148-1.641,0.445s-0.758,0.689-1.008,1.178s-0.418,1.047-0.504,1.676s-0.129,1.287-0.129,1.975s0.043,1.352,0.129,1.992
		s0.254,1.205,0.504,1.693s0.586,0.881,1.008,1.178s0.969,0.445,1.641,0.445S698.468,334.434,698.894,334.137z M696.515,330.006
		c-0.184-0.184-0.275-0.428-0.275-0.732c0-0.281,0.092-0.516,0.275-0.703s0.428-0.281,0.732-0.281s0.549,0.094,0.732,0.281
		s0.275,0.422,0.275,0.703c0,0.305-0.092,0.549-0.275,0.732s-0.428,0.275-0.732,0.275S696.699,330.189,696.515,330.006z"/>
</g>
<g enable-background="new    ">
	<path d="M742.845,23.801c-0.664-0.336-1.213-0.807-1.646-1.412s-0.754-1.34-0.961-2.203s-0.311-1.814-0.311-2.854
		c0-1.062,0.107-2.029,0.322-2.9s0.547-1.615,0.996-2.232s1.006-1.094,1.67-1.43s1.449-0.504,2.355-0.504
		c0.914,0,1.703,0.168,2.367,0.504s1.217,0.809,1.658,1.418s0.766,1.342,0.973,2.197s0.311,1.803,0.311,2.842
		c0,1.055-0.107,2.02-0.322,2.895s-0.547,1.619-0.996,2.232s-1.01,1.092-1.682,1.436s-1.465,0.516-2.379,0.516
		C744.294,24.305,743.509,24.137,742.845,23.801z M746.894,22.137c0.426-0.297,0.762-0.689,1.008-1.178s0.414-1.053,0.504-1.693
		s0.135-1.305,0.135-1.992s-0.045-1.346-0.135-1.975s-0.258-1.188-0.504-1.676s-0.582-0.881-1.008-1.178S745.919,12,745.248,12
		s-1.219,0.148-1.641,0.445s-0.758,0.689-1.008,1.178s-0.418,1.047-0.504,1.676s-0.129,1.287-0.129,1.975s0.043,1.352,0.129,1.992
		s0.254,1.205,0.504,1.693s0.586,0.881,1.008,1.178s0.969,0.445,1.641,0.445S746.468,22.434,746.894,22.137z M744.515,18.006
		c-0.184-0.184-0.275-0.428-0.275-0.732c0-0.281,0.092-0.516,0.275-0.703s0.428-0.281,0.732-0.281s0.549,0.094,0.732,0.281
		s0.275,0.422,0.275,0.703c0,0.305-0.092,0.549-0.275,0.732s-0.428,0.275-0.732,0.275S744.699,18.189,744.515,18.006z"/>
	<path d="M744.697,46.371v-9.457c-0.336,0.352-0.744,0.615-1.225,0.791s-1.08,0.264-1.799,0.264h-0.504v-1.781h0.961
		c0.688,0,1.279-0.135,1.775-0.404s0.881-0.686,1.154-1.248h1.582v11.836h3.117v1.699h-8.59v-1.699H744.697z"/>
	<path d="M744.697,70.371v-9.457c-0.336,0.352-0.744,0.615-1.225,0.791s-1.08,0.264-1.799,0.264h-0.504v-1.781h0.961
		c0.688,0,1.279-0.135,1.775-0.404s0.881-0.686,1.154-1.248h1.582v11.836h3.117v1.699h-8.59v-1.699H744.697z"/>
	<path d="M742.845,95.801c-0.664-0.336-1.213-0.807-1.646-1.412s-0.754-1.34-0.961-2.203s-0.311-1.814-0.311-2.854
		c0-1.062,0.107-2.029,0.322-2.9s0.547-1.615,0.996-2.232s1.006-1.094,1.67-1.43s1.449-0.504,2.355-0.504
		c0.914,0,1.703,0.168,2.367,0.504s1.217,0.809,1.658,1.418s0.766,1.342,0.973,2.197s0.311,1.803,0.311,2.842
		c0,1.055-0.107,2.02-0.322,2.895s-0.547,1.619-0.996,2.232s-1.01,1.092-1.682,1.436s-1.465,0.516-2.379,0.516
		C744.294,96.305,743.509,96.137,742.845,95.801z M746.894,94.137c0.426-0.297,0.762-0.689,1.008-1.178s0.414-1.053,0.504-1.693
		s0.135-1.305,0.135-1.992s-0.045-1.346-0.135-1.975s-0.258-1.188-0.504-1.676s-0.582-0.881-1.008-1.178S745.919,84,745.248,84
		s-1.219,0.148-1.641,0.445s-0.758,0.689-1.008,1.178s-0.418,1.047-0.504,1.676s-0.129,1.287-0.129,1.975s0.043,1.352,0.129,1.992
		s0.254,1.205,0.504,1.693s0.586,0.881,1.008,1.178s0.969,0.445,1.641,0.445S746.468,94.434,746.894,94.137z M744.515,90.006
		c-0.184-0.184-0.275-0.428-0.275-0.732c0-0.281,0.092-0.516,0.275-0.703s0.428-0.281,0.732-0.281s0.549,0.094,0.732,0.281
		s0.275,0.422,0.275,0.703c0,0.305-0.092,0.549-0.275,0.732s-0.428,0.275-0.732,0.275S744.699,90.189,744.515,90.006z"/>
	<path d="M744.697,118.371v-9.457c-0.336,0.352-0.744,0.615-1.225,0.791s-1.08,0.264-1.799,0.264h-0.504v-1.781h0.961
		c0.688,0,1.279-0.135,1.775-0.404s0.881-0.686,1.154-1.248h1.582v11.836h3.117v1.699h-8.59v-1.699H744.697z"/>
	<path d="M742.845,143.801c-0.664-0.336-1.213-0.807-1.646-1.412s-0.754-1.34-0.961-2.203s-0.311-1.814-0.311-2.854
		c0-1.062,0.107-2.029,0.322-2.9s0.547-1.615,0.996-2.232s1.006-1.094,1.67-1.43s1.449-0.504,2.355-0.504
		c0.914,0,1.703,0.168,2.367,0.504s1.217,0.809,1.658,1.418s0.766,1.342,0.973,2.197s0.311,1.803,0.311,2.842
		c0,1.055-0.107,2.02-0.322,2.895s-0.547,1.619-0.996,2.232s-1.01,1.092-1.682,1.436s-1.465,0.516-2.379,0.516
		C744.294,144.305,743.509,144.137,742.845,143.801z M746.894,142.137c0.426-0.297,0.762-0.689,1.008-1.178s0.414-1.053,0.504-1.693
		s0.135-1.305,0.135-1.992s-0.045-1.346-0.135-1.975s-0.258-1.188-0.504-1.676s-0.582-0.881-1.008-1.178S745.919,132,745.248,132
		s-1.219,0.148-1.641,0.445s-0.758,0.689-1.008,1.178s-0.418,1.047-0.504,1.676s-0.129,1.287-0.129,1.975s0.043,1.352,0.129,1.992
		s0.254,1.205,0.504,1.693s0.586,0.881,1.008,1.178s0.969,0.445,1.641,0.445S746.468,142.434,746.894,142.137z M744.515,138.006
		c-0.184-0.184-0.275-0.428-0.275-0.732c0-0.281,0.092-0.516,0.275-0.703s0.428-0.281,0.732-0.281s0.549,0.094,0.732,0.281
		s0.275,0.422,0.275,0.703c0,0.305-0.092,0.549-0.275,0.732s-0.428,0.275-0.732,0.275S744.699,138.189,744.515,138.006z"/>
	<path d="M742.845,167.801c-0.664-0.336-1.213-0.807-1.646-1.412s-0.754-1.34-0.961-2.203s-0.311-1.814-0.311-2.854
		c0-1.062,0.107-2.029,0.322-2.9s0.547-1.615,0.996-2.232s1.006-1.094,1.67-1.43s1.449-0.504,2.355-0.504
		c0.914,0,1.703,0.168,2.367,0.504s1.217,0.809,1.658,1.418s0.766,1.342,0.973,2.197s0.311,1.803,0.311,2.842
		c0,1.055-0.107,2.02-0.322,2.895s-0.547,1.619-0.996,2.232s-1.01,1.092-1.682,1.436s-1.465,0.516-2.379,0.516
		C744.294,168.305,743.509,168.137,742.845,167.801z M746.894,166.137c0.426-0.297,0.762-0.689,1.008-1.178s0.414-1.053,0.504-1.693
		s0.135-1.305,0.135-1.992s-0.045-1.346-0.135-1.975s-0.258-1.188-0.504-1.676s-0.582-0.881-1.008-1.178S745.919,156,745.248,156
		s-1.219,0.148-1.641,0.445s-0.758,0.689-1.008,1.178s-0.418,1.047-0.504,1.676s-0.129,1.287-0.129,1.975s0.043,1.352,0.129,1.992
		s0.254,1.205,0.504,1.693s0.586,0.881,1.008,1.178s0.969,0.445,1.641,0.445S746.468,166.434,746.894,166.137z M744.515,162.006
		c-0.184-0.184-0.275-0.428-0.275-0.732c0-0.281,0.092-0.516,0.275-0.703s0.428-0.281,0.732-0.281s0.549,0.094,0.732,0.281
		s0.275,0.422,0.275,0.703c0,0.305-0.092,0.549-0.275,0.732s-0.428,0.275-0.732,0.275S744.699,162.189,744.515,162.006z"/>
	<path d="M744.697,190.371v-9.457c-0.336,0.352-0.744,0.615-1.225,0.791s-1.08,0.264-1.799,0.264h-0.504v-1.781h0.961
		c0.688,0,1.279-0.135,1.775-0.404s0.881-0.686,1.154-1.248h1.582v11.836h3.117v1.699h-8.59v-1.699H744.697z"/>
	<path d="M742.845,215.801c-0.664-0.336-1.213-0.807-1.646-1.412s-0.754-1.34-0.961-2.203s-0.311-1.814-0.311-2.854
		c0-1.062,0.107-2.029,0.322-2.9s0.547-1.615,0.996-2.232s1.006-1.094,1.67-1.43s1.449-0.504,2.355-0.504
		c0.914,0,1.703,0.168,2.367,0.504s1.217,0.809,1.658,1.418s0.766,1.342,0.973,2.197s0.311,1.803,0.311,2.842
		c0,1.055-0.107,2.02-0.322,2.895s-0.547,1.619-0.996,2.232s-1.01,1.092-1.682,1.436s-1.465,0.516-2.379,0.516
		C744.294,216.305,743.509,216.137,742.845,215.801z M746.894,214.137c0.426-0.297,0.762-0.689,1.008-1.178s0.414-1.053,0.504-1.693
		s0.135-1.305,0.135-1.992s-0.045-1.346-0.135-1.975s-0.258-1.188-0.504-1.676s-0.582-0.881-1.008-1.178S745.919,204,745.248,204
		s-1.219,0.148-1.641,0.445s-0.758,0.689-1.008,1.178s-0.418,1.047-0.504,1.676s-0.129,1.287-0.129,1.975s0.043,1.352,0.129,1.992
		s0.254,1.205,0.504,1.693s0.586,0.881,1.008,1.178s0.969,0.445,1.641,0.445S746.468,214.434,746.894,214.137z M744.515,210.006
		c-0.184-0.184-0.275-0.428-0.275-0.732c0-0.281,0.092-0.516,0.275-0.703s0.428-0.281,0.732-0.281s0.549,0.094,0.732,0.281
		s0.275,0.422,0.275,0.703c0,0.305-0.092,0.549-0.275,0.732s-0.428,0.275-0.732,0.275S744.699,210.189,744.515,210.006z"/>
	<path d="M744.697,238.371v-9.457c-0.336,0.352-0.744,0.615-1.225,0.791s-1.08,0.264-1.799,0.264h-0.504v-1.781h0.961
		c0.688,0,1.279-0.135,1.775-0.404s0.881-0.686,1.154-1.248h1.582v11.836h3.117v1.699h-8.59v-1.699H744.697z"/>
	<path d="M742.845,263.801c-0.664-0.336-1.213-0.807-1.646-1.412s-0.754-1.34-0.961-2.203s-0.311-1.814-0.311-2.854
		c0-1.062,0.107-2.029,0.322-2.9s0.547-1.615,0.996-2.232s1.006-1.094,1.67-1.43s1.449-0.504,2.355-0.504
		c0.914,0,1.703,0.168,2.367,0.504s1.217,0.809,1.658,1.418s0.766,1.342,0.973,2.197s0.311,1.803,0.311,2.842
		c0,1.055-0.107,2.02-0.322,2.895s-0.547,1.619-0.996,2.232s-1.01,1.092-1.682,1.436s-1.465,0.516-2.379,0.516
		C744.294,264.305,743.509,264.137,742.845,263.801z M746.894,262.137c0.426-0.297,0.762-0.689,1.008-1.178s0.414-1.053,0.504-1.693
		s0.135-1.305,0.135-1.992s-0.045-1.346-0.135-1.975s-0.258-1.188-0.504-1.676s-0.582-0.881-1.008-1.178S745.919,252,745.248,252
		s-1.219,0.148-1.641,0.445s-0.758,0.689-1.008,1.178s-0.418,1.047-0.504,1.676s-0.129,1.287-0.129,1.975s0.043,1.352,0.129,1.992
		s0.254,1.205,0.504,1.693s0.586,0.881,1.008,1.178s0.969,0.445,1.641,0.445S746.468,262.434,746.894,262.137z M744.515,258.006
		c-0.184-0.184-0.275-0.428-0.275-0.732c0-0.281,0.092-0.516,0.275-0.703s0.428-0.281,0.732-0.281s0.549,0.094,0.732,0.281
		s0.275,0.422,0.275,0.703c0,0.305-0.092,0.549-0.275,0.732s-0.428,0.275-0.732,0.275S744.699,258.189,744.515,258.006z"/>
	<path d="M744.697,286.371v-9.457c-0.336,0.352-0.744,0.615-1.225,0.791s-1.08,0.264-1.799,0.264h-0.504v-1.781h0.961
		c0.688,0,1.279-0.135,1.775-0.404s0.881-0.686,1.154-1.248h1.582v11.836h3.117v1.699h-8.59v-1.699H744.697z"/>
</g>
<g enable-background="new    ">
	<path d="M794.697,22.371v-9.457c-0.336,0.352-0.744,0.615-1.225,0.791s-1.08,0.264-1.799,0.264h-0.504v-1.781h0.961
		c0.688,0,1.279-0.135,1.775-0.404s0.881-0.686,1.154-1.248h1.582v11.836h3.117v1.699h-8.59v-1.699H794.697z"/>
	<path d="M792.845,47.801c-0.664-0.336-1.213-0.807-1.646-1.412s-0.754-1.34-0.961-2.203s-0.311-1.814-0.311-2.854
		c0-1.062,0.107-2.029,0.322-2.9s0.547-1.615,0.996-2.232s1.006-1.094,1.67-1.43s1.449-0.504,2.355-0.504
		c0.914,0,1.703,0.168,2.367,0.504s1.217,0.809,1.658,1.418s0.766,1.342,0.973,2.197s0.311,1.803,0.311,2.842
		c0,1.055-0.107,2.02-0.322,2.895s-0.547,1.619-0.996,2.232s-1.01,1.092-1.682,1.436s-1.465,0.516-2.379,0.516
		C794.294,48.305,793.509,48.137,792.845,47.801z M796.894,46.137c0.426-0.297,0.762-0.689,1.008-1.178s0.414-1.053,0.504-1.693
		s0.135-1.305,0.135-1.992s-0.045-1.346-0.135-1.975s-0.258-1.188-0.504-1.676s-0.582-0.881-1.008-1.178S795.919,36,795.248,36
		s-1.219,0.148-1.641,0.445s-0.758,0.689-1.008,1.178s-0.418,1.047-0.504,1.676s-0.129,1.287-0.129,1.975s0.043,1.352,0.129,1.992
		s0.254,1.205,0.504,1.693s0.586,0.881,1.008,1.178s0.969,0.445,1.641,0.445S796.468,46.434,796.894,46.137z M794.515,42.006
		c-0.184-0.184-0.275-0.428-0.275-0.732c0-0.281,0.092-0.516,0.275-0.703s0.428-0.281,0.732-0.281s0.549,0.094,0.732,0.281
		s0.275,0.422,0.275,0.703c0,0.305-0.092,0.549-0.275,0.732s-0.428,0.275-0.732,0.275S794.699,42.189,794.515,42.006z"/>
	<path d="M794.697,70.371v-9.457c-0.336,0.352-0.744,0.615-1.225,0.791s-1.08,0.264-1.799,0.264h-0.504v-1.781h0.961
		c0.688,0,1.279-0.135,1.775-0.404s0.881-0.686,1.154-1.248h1.582v11.836h3.117v1.699h-8.59v-1.699H794.697z"/>
	<path d="M792.845,95.801c-0.664-0.336-1.213-0.807-1.646-1.412s-0.754-1.34-0.961-2.203s-0.311-1.814-0.311-2.854
		c0-1.062,0.107-2.029,0.322-2.9s0.547-1.615,0.996-2.232s1.006-1.094,1.67-1.43s1.449-0.504,2.355-0.504
		c0.914,0,1.703,0.168,2.367,0.504s1.217,0.809,1.658,1.418s0.766,1.342,0.973,2.197s0.311,1.803,0.311,2.842
		c0,1.055-0.107,2.02-0.322,2.895s-0.547,1.619-0.996,2.232s-1.01,1.092-1.682,1.436s-1.465,0.516-2.379,0.516
		C794.294,96.305,793.509,96.137,792.845,95.801z M796.894,94.137c0.426-0.297,0.762-0.689,1.008-1.178s0.414-1.053,0.504-1.693
		s0.135-1.305,0.135-1.992s-0.045-1.346-0.135-1.975s-0.258-1.188-0.504-1.676s-0.582-0.881-1.008-1.178S795.919,84,795.248,84
		s-1.219,0.148-1.641,0.445s-0.758,0.689-1.008,1.178s-0.418,1.047-0.504,1.676s-0.129,1.287-0.129,1.975s0.043,1.352,0.129,1.992
		s0.254,1.205,0.504,1.693s0.586,0.881,1.008,1.178s0.969,0.445,1.641,0.445S796.468,94.434,796.894,94.137z M794.515,90.006
		c-0.184-0.184-0.275-0.428-0.275-0.732c0-0.281,0.092-0.516,0.275-0.703s0.428-0.281,0.732-0.281s0.549,0.094,0.732,0.281
		s0.275,0.422,0.275,0.703c0,0.305-0.092,0.549-0.275,0.732s-0.428,0.275-0.732,0.275S794.699,90.189,794.515,90.006z"/>
	<path d="M792.845,119.801c-0.664-0.336-1.213-0.807-1.646-1.412s-0.754-1.34-0.961-2.203s-0.311-1.814-0.311-2.854
		c0-1.062,0.107-2.029,0.322-2.9s0.547-1.615,0.996-2.232s1.006-1.094,1.67-1.43s1.449-0.504,2.355-0.504
		c0.914,0,1.703,0.168,2.367,0.504s1.217,0.809,1.658,1.418s0.766,1.342,0.973,2.197s0.311,1.803,0.311,2.842
		c0,1.055-0.107,2.02-0.322,2.895s-0.547,1.619-0.996,2.232s-1.01,1.092-1.682,1.436s-1.465,0.516-2.379,0.516
		C794.294,120.305,793.509,120.137,792.845,119.801z M796.894,118.137c0.426-0.297,0.762-0.689,1.008-1.178s0.414-1.053,0.504-1.693
		s0.135-1.305,0.135-1.992s-0.045-1.346-0.135-1.975s-0.258-1.188-0.504-1.676s-0.582-0.881-1.008-1.178S795.919,108,795.248,108
		s-1.219,0.148-1.641,0.445s-0.758,0.689-1.008,1.178s-0.418,1.047-0.504,1.676s-0.129,1.287-0.129,1.975s0.043,1.352,0.129,1.992
		s0.254,1.205,0.504,1.693s0.586,0.881,1.008,1.178s0.969,0.445,1.641,0.445S796.468,118.434,796.894,118.137z M794.515,114.006
		c-0.184-0.184-0.275-0.428-0.275-0.732c0-0.281,0.092-0.516,0.275-0.703s0.428-0.281,0.732-0.281s0.549,0.094,0.732,0.281
		s0.275,0.422,0.275,0.703c0,0.305-0.092,0.549-0.275,0.732s-0.428,0.275-0.732,0.275S794.699,114.189,794.515,114.006z"/>
	<path d="M792.845,143.801c-0.664-0.336-1.213-0.807-1.646-1.412s-0.754-1.34-0.961-2.203s-0.311-1.814-0.311-2.854
		c0-1.062,0.107-2.029,0.322-2.9s0.547-1.615,0.996-2.232s1.006-1.094,1.67-1.43s1.449-0.504,2.355-0.504
		c0.914,0,1.703,0.168,2.367,0.504s1.217,0.809,1.658,1.418s0.766,1.342,0.973,2.197s0.311,1.803,0.311,2.842
		c0,1.055-0.107,2.02-0.322,2.895s-0.547,1.619-0.996,2.232s-1.01,1.092-1.682,1.436s-1.465,0.516-2.379,0.516
		C794.294,144.305,793.509,144.137,792.845,143.801z M796.894,142.137c0.426-0.297,0.762-0.689,1.008-1.178s0.414-1.053,0.504-1.693
		s0.135-1.305,0.135-1.992s-0.045-1.346-0.135-1.975s-0.258-1.188-0.504-1.676s-0.582-0.881-1.008-1.178S795.919,132,795.248,132
		s-1.219,0.148-1.641,0.445s-0.758,0.689-1.008,1.178s-0.418,1.047-0.504,1.676s-0.129,1.287-0.129,1.975s0.043,1.352,0.129,1.992
		s0.254,1.205,0.504,1.693s0.586,0.881,1.008,1.178s0.969,0.445,1.641,0.445S796.468,142.434,796.894,142.137z M794.515,138.006
		c-0.184-0.184-0.275-0.428-0.275-0.732c0-0.281,0.092-0.516,0.275-0.703s0.428-0.281,0.732-0.281s0.549,0.094,0.732,0.281
		s0.275,0.422,0.275,0.703c0,0.305-0.092,0.549-0.275,0.732s-0.428,0.275-0.732,0.275S794.699,138.189,794.515,138.006z"/>
	<path d="M792.845,167.801c-0.664-0.336-1.213-0.807-1.646-1.412s-0.754-1.34-0.961-2.203s-0.311-1.814-0.311-2.854
		c0-1.062,0.107-2.029,0.322-2.9s0.547-1.615,0.996-2.232s1.006-1.094,1.67-1.43s1.449-0.504,2.355-0.504
		c0.914,0,1.703,0.168,2.367,0.504s1.217,0.809,1.658,1.418s0.766,1.342,0.973,2.197s0.311,1.803,0.311,2.842
		c0,1.055-0.107,2.02-0.322,2.895s-0.547,1.619-0.996,2.232s-1.01,1.092-1.682,1.436s-1.465,0.516-2.379,0.516
		C794.294,168.305,793.509,168.137,792.845,167.801z M796.894,166.137c0.426-0.297,0.762-0.689,1.008-1.178s0.414-1.053,0.504-1.693
		s0.135-1.305,0.135-1.992s-0.045-1.346-0.135-1.975s-0.258-1.188-0.504-1.676s-0.582-0.881-1.008-1.178S795.919,156,795.248,156
		s-1.219,0.148-1.641,0.445s-0.758,0.689-1.008,1.178s-0.418,1.047-0.504,1.676s-0.129,1.287-0.129,1.975s0.043,1.352,0.129,1.992
		s0.254,1.205,0.504,1.693s0.586,0.881,1.008,1.178s0.969,0.445,1.641,0.445S796.468,166.434,796.894,166.137z M794.515,162.006
		c-0.184-0.184-0.275-0.428-0.275-0.732c0-0.281,0.092-0.516,0.275-0.703s0.428-0.281,0.732-0.281s0.549,0.094,0.732,0.281
		s0.275,0.422,0.275,0.703c0,0.305-0.092,0.549-0.275,0.732s-0.428,0.275-0.732,0.275S794.699,162.189,794.515,162.006z"/>
</g>
<g enable-background="new    ">
	<path d="M838.697,22.371v-9.457c-0.336,0.352-0.744,0.615-1.225,0.791s-1.08,0.264-1.799,0.264h-0.504v-1.781h0.961
		c0.688,0,1.279-0.135,1.775-0.404s0.881-0.686,1.154-1.248h1.582v11.836h3.117v1.699h-8.59v-1.699H838.697z"/>
	<path d="M838.697,46.371v-9.457c-0.336,0.352-0.744,0.615-1.225,0.791s-1.08,0.264-1.799,0.264h-0.504v-1.781h0.961
		c0.688,0,1.279-0.135,1.775-0.404s0.881-0.686,1.154-1.248h1.582v11.836h3.117v1.699h-8.59v-1.699H838.697z"/>
	<path d="M836.845,71.801c-0.664-0.336-1.213-0.807-1.646-1.412s-0.754-1.34-0.961-2.203s-0.311-1.814-0.311-2.854
		c0-1.062,0.107-2.029,0.322-2.9s0.547-1.615,0.996-2.232s1.006-1.094,1.67-1.43s1.449-0.504,2.355-0.504
		c0.914,0,1.703,0.168,2.367,0.504s1.217,0.809,1.658,1.418s0.766,1.342,0.973,2.197s0.311,1.803,0.311,2.842
		c0,1.055-0.107,2.02-0.322,2.895s-0.547,1.619-0.996,2.232s-1.01,1.092-1.682,1.436s-1.465,0.516-2.379,0.516
		C838.294,72.305,837.509,72.137,836.845,71.801z M840.894,70.137c0.426-0.297,0.762-0.689,1.008-1.178s0.414-1.053,0.504-1.693
		s0.135-1.305,0.135-1.992s-0.045-1.346-0.135-1.975s-0.258-1.188-0.504-1.676s-0.582-0.881-1.008-1.178S839.919,60,839.248,60
		s-1.219,0.148-1.641,0.445s-0.758,0.689-1.008,1.178s-0.418,1.047-0.504,1.676s-0.129,1.287-0.129,1.975s0.043,1.352,0.129,1.992
		s0.254,1.205,0.504,1.693s0.586,0.881,1.008,1.178s0.969,0.445,1.641,0.445S840.468,70.434,840.894,70.137z M838.515,66.006
		c-0.184-0.184-0.275-0.428-0.275-0.732c0-0.281,0.092-0.516,0.275-0.703s0.428-0.281,0.732-0.281s0.549,0.094,0.732,0.281
		s0.275,0.422,0.275,0.703c0,0.305-0.092,0.549-0.275,0.732s-0.428,0.275-0.732,0.275S838.699,66.189,838.515,66.006z"/>
	<path d="M836.845,95.801c-0.664-0.336-1.213-0.807-1.646-1.412s-0.754-1.34-0.961-2.203s-0.311-1.814-0.311-2.854
		c0-1.062,0.107-2.029,0.322-2.9s0.547-1.615,0.996-2.232s1.006-1.094,1.67-1.43s1.449-0.504,2.355-0.504
		c0.914,0,1.703,0.168,2.367,0.504s1.217,0.809,1.658,1.418s0.766,1.342,0.973,2.197s0.311,1.803,0.311,2.842
		c0,1.055-0.107,2.02-0.322,2.895s-0.547,1.619-0.996,2.232s-1.01,1.092-1.682,1.436s-1.465,0.516-2.379,0.516
		C838.294,96.305,837.509,96.137,836.845,95.801z M840.894,94.137c0.426-0.297,0.762-0.689,1.008-1.178s0.414-1.053,0.504-1.693
		s0.135-1.305,0.135-1.992s-0.045-1.346-0.135-1.975s-0.258-1.188-0.504-1.676s-0.582-0.881-1.008-1.178S839.919,84,839.248,84
		s-1.219,0.148-1.641,0.445s-0.758,0.689-1.008,1.178s-0.418,1.047-0.504,1.676s-0.129,1.287-0.129,1.975s0.043,1.352,0.129,1.992
		s0.254,1.205,0.504,1.693s0.586,0.881,1.008,1.178s0.969,0.445,1.641,0.445S840.468,94.434,840.894,94.137z M838.515,90.006
		c-0.184-0.184-0.275-0.428-0.275-0.732c0-0.281,0.092-0.516,0.275-0.703s0.428-0.281,0.732-0.281s0.549,0.094,0.732,0.281
		s0.275,0.422,0.275,0.703c0,0.305-0.092,0.549-0.275,0.732s-0.428,0.275-0.732,0.275S838.699,90.189,838.515,90.006z"/>
	<path d="M836.845,119.801c-0.664-0.336-1.213-0.807-1.646-1.412s-0.754-1.34-0.961-2.203s-0.311-1.814-0.311-2.854
		c0-1.062,0.107-2.029,0.322-2.9s0.547-1.615,0.996-2.232s1.006-1.094,1.67-1.43s1.449-0.504,2.355-0.504
		c0.914,0,1.703,0.168,2.367,0.504s1.217,0.809,1.658,1.418s0.766,1.342,0.973,2.197s0.311,1.803,0.311,2.842
		c0,1.055-0.107,2.02-0.322,2.895s-0.547,1.619-0.996,2.232s-1.01,1.092-1.682,1.436s-1.465,0.516-2.379,0.516
		C838.294,120.305,837.509,120.137,836.845,119.801z M840.894,118.137c0.426-0.297,0.762-0.689,1.008-1.178s0.414-1.053,0.504-1.693
		s0.135-1.305,0.135-1.992s-0.045-1.346-0.135-1.975s-0.258-1.188-0.504-1.676s-0.582-0.881-1.008-1.178S839.919,108,839.248,108
		s-1.219,0.148-1.641,0.445s-0.758,0.689-1.008,1.178s-0.418,1.047-0.504,1.676s-0.129,1.287-0.129,1.975s0.043,1.352,0.129,1.992
		s0.254,1.205,0.504,1.693s0.586,0.881,1.008,1.178s0.969,0.445,1.641,0.445S840.468,118.434,840.894,118.137z M838.515,114.006
		c-0.184-0.184-0.275-0.428-0.275-0.732c0-0.281,0.092-0.516,0.275-0.703s0.428-0.281,0.732-0.281s0.549,0.094,0.732,0.281
		s0.275,0.422,0.275,0.703c0,0.305-0.092,0.549-0.275,0.732s-0.428,0.275-0.732,0.275S838.699,114.189,838.515,114.006z"/>
	<path d="M836.845,143.801c-0.664-0.336-1.213-0.807-1.646-1.412s-0.754-1.34-0.961-2.203s-0.311-1.814-0.311-2.854
		c0-1.062,0.107-2.029,0.322-2.9s0.547-1.615,0.996-2.232s1.006-1.094,1.67-1.43s1.449-0.504,2.355-0.504
		c0.914,0,1.703,0.168,2.367,0.504s1.217,0.809,1.658,1.418s0.766,1.342,0.973,2.197s0.311,1.803,0.311,2.842
		c0,1.055-0.107,2.02-0.322,2.895s-0.547,1.619-0.996,2.232s-1.01,1.092-1.682,1.436s-1.465,0.516-2.379,0.516
		C838.294,144.305,837.509,144.137,836.845,143.801z M840.894,142.137c0.426-0.297,0.762-0.689,1.008-1.178s0.414-1.053,0.504-1.693
		s0.135-1.305,0.135-1.992s-0.045-1.346-0.135-1.975s-0.258-1.188-0.504-1.676s-0.582-0.881-1.008-1.178S839.919,132,839.248,132
		s-1.219,0.148-1.641,0.445s-0.758,0.689-1.008,1.178s-0.418,1.047-0.504,1.676s-0.129,1.287-0.129,1.975s0.043,1.352,0.129,1.992
		s0.254,1.205,0.504,1.693s0.586,0.881,1.008,1.178s0.969,0.445,1.641,0.445S840.468,142.434,840.894,142.137z M838.515,138.006
		c-0.184-0.184-0.275-0.428-0.275-0.732c0-0.281,0.092-0.516,0.275-0.703s0.428-0.281,0.732-0.281s0.549,0.094,0.732,0.281
		s0.275,0.422,0.275,0.703c0,0.305-0.092,0.549-0.275,0.732s-0.428,0.275-0.732,0.275S838.699,138.189,838.515,138.006z"/>
	<path d="M836.845,167.801c-0.664-0.336-1.213-0.807-1.646-1.412s-0.754-1.34-0.961-2.203s-0.311-1.814-0.311-2.854
		c0-1.062,0.107-2.029,0.322-2.9s0.547-1.615,0.996-2.232s1.006-1.094,1.67-1.43s1.449-0.504,2.355-0.504
		c0.914,0,1.703,0.168,2.367,0.504s1.217,0.809,1.658,1.418s0.766,1.342,0.973,2.197s0.311,1.803,0.311,2.842
		c0,1.055-0.107,2.02-0.322,2.895s-0.547,1.619-0.996,2.232s-1.01,1.092-1.682,1.436s-1.465,0.516-2.379,0.516
		C838.294,168.305,837.509,168.137,836.845,167.801z M840.894,166.137c0.426-0.297,0.762-0.689,1.008-1.178s0.414-1.053,0.504-1.693
		s0.135-1.305,0.135-1.992s-0.045-1.346-0.135-1.975s-0.258-1.188-0.504-1.676s-0.582-0.881-1.008-1.178S839.919,156,839.248,156
		s-1.219,0.148-1.641,0.445s-0.758,0.689-1.008,1.178s-0.418,1.047-0.504,1.676s-0.129,1.287-0.129,1.975s0.043,1.352,0.129,1.992
		s0.254,1.205,0.504,1.693s0.586,0.881,1.008,1.178s0.969,0.445,1.641,0.445S840.468,166.434,840.894,166.137z M838.515,162.006
		c-0.184-0.184-0.275-0.428-0.275-0.732c0-0.281,0.092-0.516,0.275-0.703s0.428-0.281,0.732-0.281s0.549,0.094,0.732,0.281
		s0.275,0.422,0.275,0.703c0,0.305-0.092,0.549-0.275,0.732s-0.428,0.275-0.732,0.275S838.699,162.189,838.515,162.006z"/>
	<path d="M836.845,191.801c-0.664-0.336-1.213-0.807-1.646-1.412s-0.754-1.34-0.961-2.203s-0.311-1.814-0.311-2.854
		c0-1.062,0.107-2.029,0.322-2.9s0.547-1.615,0.996-2.232s1.006-1.094,1.67-1.43s1.449-0.504,2.355-0.504
		c0.914,0,1.703,0.168,2.367,0.504s1.217,0.809,1.658,1.418s0.766,1.342,0.973,2.197s0.311,1.803,0.311,2.842
		c0,1.055-0.107,2.02-0.322,2.895s-0.547,1.619-0.996,2.232s-1.01,1.092-1.682,1.436s-1.465,0.516-2.379,0.516
		C838.294,192.305,837.509,192.137,836.845,191.801z M840.894,190.137c0.426-0.297,0.762-0.689,1.008-1.178s0.414-1.053,0.504-1.693
		s0.135-1.305,0.135-1.992s-0.045-1.346-0.135-1.975s-0.258-1.188-0.504-1.676s-0.582-0.881-1.008-1.178S839.919,180,839.248,180
		s-1.219,0.148-1.641,0.445s-0.758,0.689-1.008,1.178s-0.418,1.047-0.504,1.676s-0.129,1.287-0.129,1.975s0.043,1.352,0.129,1.992
		s0.254,1.205,0.504,1.693s0.586,0.881,1.008,1.178s0.969,0.445,1.641,0.445S840.468,190.434,840.894,190.137z M838.515,186.006
		c-0.184-0.184-0.275-0.428-0.275-0.732c0-0.281,0.092-0.516,0.275-0.703s0.428-0.281,0.732-0.281s0.549,0.094,0.732,0.281
		s0.275,0.422,0.275,0.703c0,0.305-0.092,0.549-0.275,0.732s-0.428,0.275-0.732,0.275S838.699,186.189,838.515,186.006z"/>
	<path d="M836.845,215.801c-0.664-0.336-1.213-0.807-1.646-1.412s-0.754-1.34-0.961-2.203s-0.311-1.814-0.311-2.854
		c0-1.062,0.107-2.029,0.322-2.9s0.547-1.615,0.996-2.232s1.006-1.094,1.67-1.43s1.449-0.504,2.355-0.504
		c0.914,0,1.703,0.168,2.367,0.504s1.217,0.809,1.658,1.418s0.766,1.342,0.973,2.197s0.311,1.803,0.311,2.842
		c0,1.055-0.107,2.02-0.322,2.895s-0.547,1.619-0.996,2.232s-1.01,1.092-1.682,1.436s-1.465,0.516-2.379,0.516
		C838.294,216.305,837.509,216.137,836.845,215.801z M840.894,214.137c0.426-0.297,0.762-0.689,1.008-1.178s0.414-1.053,0.504-1.693
		s0.135-1.305,0.135-1.992s-0.045-1.346-0.135-1.975s-0.258-1.188-0.504-1.676s-0.582-0.881-1.008-1.178S839.919,204,839.248,204
		s-1.219,0.148-1.641,0.445s-0.758,0.689-1.008,1.178s-0.418,1.047-0.504,1.676s-0.129,1.287-0.129,1.975s0.043,1.352,0.129,1.992
		s0.254,1.205,0.504,1.693s0.586,0.881,1.008,1.178s0.969,0.445,1.641,0.445S840.468,214.434,840.894,214.137z M838.515,210.006
		c-0.184-0.184-0.275-0.428-0.275-0.732c0-0.281,0.092-0.516,0.275-0.703s0.428-0.281,0.732-0.281s0.549,0.094,0.732,0.281
		s0.275,0.422,0.275,0.703c0,0.305-0.092,0.549-0.275,0.732s-0.428,0.275-0.732,0.275S838.699,210.189,838.515,210.006z"/>
	<path d="M838.697,238.371v-9.457c-0.336,0.352-0.744,0.615-1.225,0.791s-1.08,0.264-1.799,0.264h-0.504v-1.781h0.961
		c0.688,0,1.279-0.135,1.775-0.404s0.881-0.686,1.154-1.248h1.582v11.836h3.117v1.699h-8.59v-1.699H838.697z"/>
</g>
<g enable-background="new    ">
	<path d="M880.697,22.371v-9.457c-0.336,0.352-0.744,0.615-1.225,0.791s-1.08,0.264-1.799,0.264h-0.504v-1.781h0.961
		c0.688,0,1.279-0.135,1.775-0.404s0.881-0.686,1.154-1.248h1.582v11.836h3.117v1.699h-8.59v-1.699H880.697z"/>
	<path d="M878.845,47.801c-0.664-0.336-1.213-0.807-1.646-1.412s-0.754-1.34-0.961-2.203s-0.311-1.814-0.311-2.854
		c0-1.062,0.107-2.029,0.322-2.9s0.547-1.615,0.996-2.232s1.006-1.094,1.67-1.43s1.449-0.504,2.355-0.504
		c0.914,0,1.703,0.168,2.367,0.504s1.217,0.809,1.658,1.418s0.766,1.342,0.973,2.197s0.311,1.803,0.311,2.842
		c0,1.055-0.107,2.02-0.322,2.895s-0.547,1.619-0.996,2.232s-1.01,1.092-1.682,1.436s-1.465,0.516-2.379,0.516
		C880.294,48.305,879.509,48.137,878.845,47.801z M882.894,46.137c0.426-0.297,0.762-0.689,1.008-1.178s0.414-1.053,0.504-1.693
		s0.135-1.305,0.135-1.992s-0.045-1.346-0.135-1.975s-0.258-1.188-0.504-1.676s-0.582-0.881-1.008-1.178S881.919,36,881.248,36
		s-1.219,0.148-1.641,0.445s-0.758,0.689-1.008,1.178s-0.418,1.047-0.504,1.676s-0.129,1.287-0.129,1.975s0.043,1.352,0.129,1.992
		s0.254,1.205,0.504,1.693s0.586,0.881,1.008,1.178s0.969,0.445,1.641,0.445S882.468,46.434,882.894,46.137z M880.515,42.006
		c-0.184-0.184-0.275-0.428-0.275-0.732c0-0.281,0.092-0.516,0.275-0.703s0.428-0.281,0.732-0.281s0.549,0.094,0.732,0.281
		s0.275,0.422,0.275,0.703c0,0.305-0.092,0.549-0.275,0.732s-0.428,0.275-0.732,0.275S880.699,42.189,880.515,42.006z"/>
	<path d="M878.845,71.801c-0.664-0.336-1.213-0.807-1.646-1.412s-0.754-1.34-0.961-2.203s-0.311-1.814-0.311-2.854
		c0-1.062,0.107-2.029,0.322-2.9s0.547-1.615,0.996-2.232s1.006-1.094,1.67-1.43s1.449-0.504,2.355-0.504
		c0.914,0,1.703,0.168,2.367,0.504s1.217,0.809,1.658,1.418s0.766,1.342,0.973,2.197s0.311,1.803,0.311,2.842
		c0,1.055-0.107,2.02-0.322,2.895s-0.547,1.619-0.996,2.232s-1.01,1.092-1.682,1.436s-1.465,0.516-2.379,0.516
		C880.294,72.305,879.509,72.137,878.845,71.801z M882.894,70.137c0.426-0.297,0.762-0.689,1.008-1.178s0.414-1.053,0.504-1.693
		s0.135-1.305,0.135-1.992s-0.045-1.346-0.135-1.975s-0.258-1.188-0.504-1.676s-0.582-0.881-1.008-1.178S881.919,60,881.248,60
		s-1.219,0.148-1.641,0.445s-0.758,0.689-1.008,1.178s-0.418,1.047-0.504,1.676s-0.129,1.287-0.129,1.975s0.043,1.352,0.129,1.992
		s0.254,1.205,0.504,1.693s0.586,0.881,1.008,1.178s0.969,0.445,1.641,0.445S882.468,70.434,882.894,70.137z M880.515,66.006
		c-0.184-0.184-0.275-0.428-0.275-0.732c0-0.281,0.092-0.516,0.275-0.703s0.428-0.281,0.732-0.281s0.549,0.094,0.732,0.281
		s0.275,0.422,0.275,0.703c0,0.305-0.092,0.549-0.275,0.732s-0.428,0.275-0.732,0.275S880.699,66.189,880.515,66.006z"/>
	<path d="M880.697,94.371v-9.457c-0.336,0.352-0.744,0.615-1.225,0.791s-1.08,0.264-1.799,0.264h-0.504v-1.781h0.961
		c0.688,0,1.279-0.135,1.775-0.404s0.881-0.686,1.154-1.248h1.582v11.836h3.117v1.699h-8.59v-1.699H880.697z"/>
	<path d="M878.845,119.801c-0.664-0.336-1.213-0.807-1.646-1.412s-0.754-1.34-0.961-2.203s-0.311-1.814-0.311-2.854
		c0-1.062,0.107-2.029,0.322-2.9s0.547-1.615,0.996-2.232s1.006-1.094,1.67-1.43s1.449-0.504,2.355-0.504
		c0.914,0,1.703,0.168,2.367,0.504s1.217,0.809,1.658,1.418s0.766,1.342,0.973,2.197s0.311,1.803,0.311,2.842
		c0,1.055-0.107,2.02-0.322,2.895s-0.547,1.619-0.996,2.232s-1.01,1.092-1.682,1.436s-1.465,0.516-2.379,0.516
		C880.294,120.305,879.509,120.137,878.845,119.801z M882.894,118.137c0.426-0.297,0.762-0.689,1.008-1.178s0.414-1.053,0.504-1.693
		s0.135-1.305,0.135-1.992s-0.045-1.346-0.135-1.975s-0.258-1.188-0.504-1.676s-0.582-0.881-1.008-1.178S881.919,108,881.248,108
		s-1.219,0.148-1.641,0.445s-0.758,0.689-1.008,1.178s-0.418,1.047-0.504,1.676s-0.129,1.287-0.129,1.975s0.043,1.352,0.129,1.992
		s0.254,1.205,0.504,1.693s0.586,0.881,1.008,1.178s0.969,0.445,1.641,0.445S882.468,118.434,882.894,118.137z M880.515,114.006
		c-0.184-0.184-0.275-0.428-0.275-0.732c0-0.281,0.092-0.516,0.275-0.703s0.428-0.281,0.732-0.281s0.549,0.094,0.732,0.281
		s0.275,0.422,0.275,0.703c0,0.305-0.092,0.549-0.275,0.732s-0.428,0.275-0.732,0.275S880.699,114.189,880.515,114.006z"/>
	<path d="M878.845,143.801c-0.664-0.336-1.213-0.807-1.646-1.412s-0.754-1.34-0.961-2.203s-0.311-1.814-0.311-2.854
		c0-1.062,0.107-2.029,0.322-2.9s0.547-1.615,0.996-2.232s1.006-1.094,1.67-1.43s1.449-0.504,2.355-0.504
		c0.914,0,1.703,0.168,2.367,0.504s1.217,0.809,1.658,1.418s0.766,1.342,0.973,2.197s0.311,1.803,0.311,2.842
		c0,1.055-0.107,2.02-0.322,2.895s-0.547,1.619-0.996,2.232s-1.01,1.092-1.682,1.436s-1.465,0.516-2.379,0.516
		C880.294,144.305,879.509,144.137,878.845,143.801z M882.894,142.137c0.426-0.297,0.762-0.689,1.008-1.178s0.414-1.053,0.504-1.693
		s0.135-1.305,0.135-1.992s-0.045-1.346-0.135-1.975s-0.258-1.188-0.504-1.676s-0.582-0.881-1.008-1.178S881.919,132,881.248,132
		s-1.219,0.148-1.641,0.445s-0.758,0.689-1.008,1.178s-0.418,1.047-0.504,1.676s-0.129,1.287-0.129,1.975s0.043,1.352,0.129,1.992
		s0.254,1.205,0.504,1.693s0.586,0.881,1.008,1.178s0.969,0.445,1.641,0.445S882.468,142.434,882.894,142.137z M880.515,138.006
		c-0.184-0.184-0.275-0.428-0.275-0.732c0-0.281,0.092-0.516,0.275-0.703s0.428-0.281,0.732-0.281s0.549,0.094,0.732,0.281
		s0.275,0.422,0.275,0.703c0,0.305-0.092,0.549-0.275,0.732s-0.428,0.275-0.732,0.275S880.699,138.189,880.515,138.006z"/>
	<path d="M880.697,166.371v-9.457c-0.336,0.352-0.744,0.615-1.225,0.791s-1.08,0.264-1.799,0.264h-0.504v-1.781h0.961
		c0.688,0,1.279-0.135,1.775-0.404s0.881-0.686,1.154-1.248h1.582v11.836h3.117v1.699h-8.59v-1.699H880.697z"/>
</g>
<g enable-background="new    ">
	<path d="M918.845,23.801c-0.664-0.336-1.213-0.807-1.646-1.412s-0.754-1.34-0.961-2.203s-0.311-1.814-0.311-2.854
		c0-1.062,0.107-2.029,0.322-2.9s0.547-1.615,0.996-2.232s1.006-1.094,1.67-1.43s1.449-0.504,2.355-0.504
		c0.914,0,1.703,0.168,2.367,0.504s1.217,0.809,1.658,1.418s0.766,1.342,0.973,2.197s0.311,1.803,0.311,2.842
		c0,1.055-0.107,2.02-0.322,2.895s-0.547,1.619-0.996,2.232s-1.01,1.092-1.682,1.436s-1.465,0.516-2.379,0.516
		C920.294,24.305,919.509,24.137,918.845,23.801z M922.894,22.137c0.426-0.297,0.762-0.689,1.008-1.178s0.414-1.053,0.504-1.693
		s0.135-1.305,0.135-1.992s-0.045-1.346-0.135-1.975s-0.258-1.188-0.504-1.676s-0.582-0.881-1.008-1.178S921.919,12,921.248,12
		s-1.219,0.148-1.641,0.445s-0.758,0.689-1.008,1.178s-0.418,1.047-0.504,1.676s-0.129,1.287-0.129,1.975s0.043,1.352,0.129,1.992
		s0.254,1.205,0.504,1.693s0.586,0.881,1.008,1.178s0.969,0.445,1.641,0.445S922.468,22.434,922.894,22.137z M920.515,18.006
		c-0.184-0.184-0.275-0.428-0.275-0.732c0-0.281,0.092-0.516,0.275-0.703s0.428-0.281,0.732-0.281s0.549,0.094,0.732,0.281
		s0.275,0.422,0.275,0.703c0,0.305-0.092,0.549-0.275,0.732s-0.428,0.275-0.732,0.275S920.699,18.189,920.515,18.006z"/>
	<path d="M918.845,47.801c-0.664-0.336-1.213-0.807-1.646-1.412s-0.754-1.34-0.961-2.203s-0.311-1.814-0.311-2.854
		c0-1.062,0.107-2.029,0.322-2.9s0.547-1.615,0.996-2.232s1.006-1.094,1.67-1.43s1.449-0.504,2.355-0.504
		c0.914,0,1.703,0.168,2.367,0.504s1.217,0.809,1.658,1.418s0.766,1.342,0.973,2.197s0.311,1.803,0.311,2.842
		c0,1.055-0.107,2.02-0.322,2.895s-0.547,1.619-0.996,2.232s-1.01,1.092-1.682,1.436s-1.465,0.516-2.379,0.516
		C920.294,48.305,919.509,48.137,918.845,47.801z M922.894,46.137c0.426-0.297,0.762-0.689,1.008-1.178s0.414-1.053,0.504-1.693
		s0.135-1.305,0.135-1.992s-0.045-1.346-0.135-1.975s-0.258-1.188-0.504-1.676s-0.582-0.881-1.008-1.178S921.919,36,921.248,36
		s-1.219,0.148-1.641,0.445s-0.758,0.689-1.008,1.178s-0.418,1.047-0.504,1.676s-0.129,1.287-0.129,1.975s0.043,1.352,0.129,1.992
		s0.254,1.205,0.504,1.693s0.586,0.881,1.008,1.178s0.969,0.445,1.641,0.445S922.468,46.434,922.894,46.137z M920.515,42.006
		c-0.184-0.184-0.275-0.428-0.275-0.732c0-0.281,0.092-0.516,0.275-0.703s0.428-0.281,0.732-0.281s0.549,0.094,0.732,0.281
		s0.275,0.422,0.275,0.703c0,0.305-0.092,0.549-0.275,0.732s-0.428,0.275-0.732,0.275S920.699,42.189,920.515,42.006z"/>
	<path d="M920.697,70.371v-9.457c-0.336,0.352-0.744,0.615-1.225,0.791s-1.08,0.264-1.799,0.264h-0.504v-1.781h0.961
		c0.688,0,1.279-0.135,1.775-0.404s0.881-0.686,1.154-1.248h1.582v11.836h3.117v1.699h-8.59v-1.699H920.697z"/>
	<path d="M918.845,95.801c-0.664-0.336-1.213-0.807-1.646-1.412s-0.754-1.34-0.961-2.203s-0.311-1.814-0.311-2.854
		c0-1.062,0.107-2.029,0.322-2.9s0.547-1.615,0.996-2.232s1.006-1.094,1.67-1.43s1.449-0.504,2.355-0.504
		c0.914,0,1.703,0.168,2.367,0.504s1.217,0.809,1.658,1.418s0.766,1.342,0.973,2.197s0.311,1.803,0.311,2.842
		c0,1.055-0.107,2.02-0.322,2.895s-0.547,1.619-0.996,2.232s-1.01,1.092-1.682,1.436s-1.465,0.516-2.379,0.516
		C920.294,96.305,919.509,96.137,918.845,95.801z M922.894,94.137c0.426-0.297,0.762-0.689,1.008-1.178s0.414-1.053,0.504-1.693
		s0.135-1.305,0.135-1.992s-0.045-1.346-0.135-1.975s-0.258-1.188-0.504-1.676s-0.582-0.881-1.008-1.178S921.919,84,921.248,84
		s-1.219,0.148-1.641,0.445s-0.758,0.689-1.008,1.178s-0.418,1.047-0.504,1.676s-0.129,1.287-0.129,1.975s0.043,1.352,0.129,1.992
		s0.254,1.205,0.504,1.693s0.586,0.881,1.008,1.178s0.969,0.445,1.641,0.445S922.468,94.434,922.894,94.137z M920.515,90.006
		c-0.184-0.184-0.275-0.428-0.275-0.732c0-0.281,0.092-0.516,0.275-0.703s0.428-0.281,0.732-0.281s0.549,0.094,0.732,0.281
		s0.275,0.422,0.275,0.703c0,0.305-0.092,0.549-0.275,0.732s-0.428,0.275-0.732,0.275S920.699,90.189,920.515,90.006z"/>
	<path d="M918.845,119.801c-0.664-0.336-1.213-0.807-1.646-1.412s-0.754-1.34-0.961-2.203s-0.311-1.814-0.311-2.854
		c0-1.062,0.107-2.029,0.322-2.9s0.547-1.615,0.996-2.232s1.006-1.094,1.67-1.43s1.449-0.504,2.355-0.504
		c0.914,0,1.703,0.168,2.367,0.504s1.217,0.809,1.658,1.418s0.766,1.342,0.973,2.197s0.311,1.803,0.311,2.842
		c0,1.055-0.107,2.02-0.322,2.895s-0.547,1.619-0.996,2.232s-1.01,1.092-1.682,1.436s-1.465,0.516-2.379,0.516
		C920.294,120.305,919.509,120.137,918.845,119.801z M922.894,118.137c0.426-0.297,0.762-0.689,1.008-1.178s0.414-1.053,0.504-1.693
		s0.135-1.305,0.135-1.992s-0.045-1.346-0.135-1.975s-0.258-1.188-0.504-1.676s-0.582-0.881-1.008-1.178S921.919,108,921.248,108
		s-1.219,0.148-1.641,0.445s-0.758,0.689-1.008,1.178s-0.418,1.047-0.504,1.676s-0.129,1.287-0.129,1.975s0.043,1.352,0.129,1.992
		s0.254,1.205,0.504,1.693s0.586,0.881,1.008,1.178s0.969,0.445,1.641,0.445S922.468,118.434,922.894,118.137z M920.515,114.006
		c-0.184-0.184-0.275-0.428-0.275-0.732c0-0.281,0.092-0.516,0.275-0.703s0.428-0.281,0.732-0.281s0.549,0.094,0.732,0.281
		s0.275,0.422,0.275,0.703c0,0.305-0.092,0.549-0.275,0.732s-0.428,0.275-0.732,0.275S920.699,114.189,920.515,114.006z"/>
	<path d="M918.845,143.801c-0.664-0.336-1.213-0.807-1.646-1.412s-0.754-1.34-0.961-2.203s-0.311-1.814-0.311-2.854
		c0-1.062,0.107-2.029,0.322-2.9s0.547-1.615,0.996-2.232s1.006-1.094,1.67-1.43s1.449-0.504,2.355-0.504
		c0.914,0,1.703,0.168,2.367,0.504s1.217,0.809,1.658,1.418s0.766,1.342,0.973,2.197s0.311,1.803,0.311,2.842
		c0,1.055-0.107,2.02-0.322,2.895s-0.547,1.619-0.996,2.232s-1.01,1.092-1.682,1.436s-1.465,0.516-2.379,0.516
		C920.294,144.305,919.509,144.137,918.845,143.801z M922.894,142.137c0.426-0.297,0.762-0.689,1.008-1.178s0.414-1.053,0.504-1.693
		s0.135-1.305,0.135-1.992s-0.045-1.346-0.135-1.975s-0.258-1.188-0.504-1.676s-0.582-0.881-1.008-1.178S921.919,132,921.248,132
		s-1.219,0.148-1.641,0.445s-0.758,0.689-1.008,1.178s-0.418,1.047-0.504,1.676s-0.129,1.287-0.129,1.975s0.043,1.352,0.129,1.992
		s0.254,1.205,0.504,1.693s0.586,0.881,1.008,1.178s0.969,0.445,1.641,0.445S922.468,142.434,922.894,142.137z M920.515,138.006
		c-0.184-0.184-0.275-0.428-0.275-0.732c0-0.281,0.092-0.516,0.275-0.703s0.428-0.281,0.732-0.281s0.549,0.094,0.732,0.281
		s0.275,0.422,0.275,0.703c0,0.305-0.092,0.549-0.275,0.732s-0.428,0.275-0.732,0.275S920.699,138.189,920.515,138.006z"/>
	<path d="M918.845,167.801c-0.664-0.336-1.213-0.807-1.646-1.412s-0.754-1.34-0.961-2.203s-0.311-1.814-0.311-2.854
		c0-1.062,0.107-2.029,0.322-2.9s0.547-1.615,0.996-2.232s1.006-1.094,1.67-1.43s1.449-0.504,2.355-0.504
		c0.914,0,1.703,0.168,2.367,0.504s1.217,0.809,1.658,1.418s0.766,1.342,0.973,2.197s0.311,1.803,0.311,2.842
		c0,1.055-0.107,2.02-0.322,2.895s-0.547,1.619-0.996,2.232s-1.01,1.092-1.682,1.436s-1.465,0.516-2.379,0.516
		C920.294,168.305,919.509,168.137,918.845,167.801z M922.894,166.137c0.426-0.297,0.762-0.689,1.008-1.178s0.414-1.053,0.504-1.693
		s0.135-1.305,0.135-1.992s-0.045-1.346-0.135-1.975s-0.258-1.188-0.504-1.676s-0.582-0.881-1.008-1.178S921.919,156,921.248,156
		s-1.219,0.148-1.641,0.445s-0.758,0.689-1.008,1.178s-0.418,1.047-0.504,1.676s-0.129,1.287-0.129,1.975s0.043,1.352,0.129,1.992
		s0.254,1.205,0.504,1.693s0.586,0.881,1.008,1.178s0.969,0.445,1.641,0.445S922.468,166.434,922.894,166.137z M920.515,162.006
		c-0.184-0.184-0.275-0.428-0.275-0.732c0-0.281,0.092-0.516,0.275-0.703s0.428-0.281,0.732-0.281s0.549,0.094,0.732,0.281
		s0.275,0.422,0.275,0.703c0,0.305-0.092,0.549-0.275,0.732s-0.428,0.275-0.732,0.275S920.699,162.189,920.515,162.006z"/>
	<path d="M920.697,190.371v-9.457c-0.336,0.352-0.744,0.615-1.225,0.791s-1.08,0.264-1.799,0.264h-0.504v-1.781h0.961
		c0.688,0,1.279-0.135,1.775-0.404s0.881-0.686,1.154-1.248h1.582v11.836h3.117v1.699h-8.59v-1.699H920.697z"/>
	<path d="M918.845,215.801c-0.664-0.336-1.213-0.807-1.646-1.412s-0.754-1.34-0.961-2.203s-0.311-1.814-0.311-2.854
		c0-1.062,0.107-2.029,0.322-2.9s0.547-1.615,0.996-2.232s1.006-1.094,1.67-1.43s1.449-0.504,2.355-0.504
		c0.914,0,1.703,0.168,2.367,0.504s1.217,0.809,1.658,1.418s0.766,1.342,0.973,2.197s0.311,1.803,0.311,2.842
		c0,1.055-0.107,2.02-0.322,2.895s-0.547,1.619-0.996,2.232s-1.01,1.092-1.682,1.436s-1.465,0.516-2.379,0.516
		C920.294,216.305,919.509,216.137,918.845,215.801z M922.894,214.137c0.426-0.297,0.762-0.689,1.008-1.178s0.414-1.053,0.504-1.693
		s0.135-1.305,0.135-1.992s-0.045-1.346-0.135-1.975s-0.258-1.188-0.504-1.676s-0.582-0.881-1.008-1.178S921.919,204,921.248,204
		s-1.219,0.148-1.641,0.445s-0.758,0.689-1.008,1.178s-0.418,1.047-0.504,1.676s-0.129,1.287-0.129,1.975s0.043,1.352,0.129,1.992
		s0.254,1.205,0.504,1.693s0.586,0.881,1.008,1.178s0.969,0.445,1.641,0.445S922.468,214.434,922.894,214.137z M920.515,210.006
		c-0.184-0.184-0.275-0.428-0.275-0.732c0-0.281,0.092-0.516,0.275-0.703s0.428-0.281,0.732-0.281s0.549,0.094,0.732,0.281
		s0.275,0.422,0.275,0.703c0,0.305-0.092,0.549-0.275,0.732s-0.428,0.275-0.732,0.275S920.699,210.189,920.515,210.006z"/>
</g>
<g enable-background="new    ">
	<path d="M442.878,168.701v-5.027h13.254v-13.113h5.52v13.113h13.184v5.027h-13.184v13.254h-5.52v-13.254H442.878z"/>
</g>
<g enable-background="new    ">
	<path d="M1148.742,156.904v5.027h-25.77v-5.027H1148.742z M1148.742,169.842v5.062h-25.77v-5.062H1148.742z"/>
</g>
</svg>
