<?xml version="1.0" encoding="utf-8"?>
<!DOCTYPE svg PUBLIC "-//W3C//DTD SVG 1.1//EN" "http://www.w3.org/Graphics/SVG/1.1/DTD/svg11.dtd">
<svg version="1.1" id="Layer_1" xmlns="http://www.w3.org/2000/svg" xmlns:xlink="http://www.w3.org/1999/xlink" x="0px" y="0px"
	 width="826.205px" height="256px" viewBox="0 0 826.205 256">
<path d="M237.553,0c0.014,7.668,0.014,7.668,0,12.931c-0.103,36.486-0.055,72.973-0.055,109.458c0,1.646,0,3.292,0,5.269
	c-6.74,0-13.073,0-19.795,0c0.642-1.325,1.072-2.362,1.626-3.33c3.87-6.772,3.858-7.828-0.935-13.838
	c-0.73-0.917-2.1-1.87-3.181-1.879c-15.296-0.121-30.595-0.083-46.587-0.083c0,6.628,0,12.86,0,19.269c-23.466,0-46.232,0-68.972,0
	c-1.691-8.494-1.833-9.122,5.966-10.883c13.402-3.026,22.599-11.025,30.094-22.026c5.326-7.816,11.531-15.029,17.244-22.587
	c4.819-6.374,6.717-13.271,3.23-20.978c-3.006-6.643-8.104-10.461-15.357-11.025c-7.693-0.598-13.933,2.4-18.692,8.437
	c-6.168,7.821-12.208,15.746-18.515,23.453c-1.238,1.513-3.324,2.849-5.221,3.21c-5.997,1.146-12.089,1.79-18.988,2.745
	c12.021-15.419,13.715-30.772,1.402-45.864c-9.875-12.104-22.994-14.728-40.826-8.849c1.116-8.27-0.477-2.762,0.158-23.429
	C102.15,0,175.553,0,237.553,0z"/>
<path d="M0,233c0.789-2.418,1.486-4.869,2.383-7.244c3.903-10.344,11.57-16.364,21.228-18.664
	c-3.438-3.354-7.688-6.518-10.616-10.625c-3.196-4.481-3.166-10.071-1.643-15.389c2.374-8.289,11.35-14.557,19.746-13.959
	c9.678,0.689,17.327,7.291,18.861,16.277c1.767,10.352-2.938,18.119-14.697,23.299c12.635,2.854,20.725,10.016,24.536,23.604
	c4.045-12.911,11.497-20.707,22.831-23.17c-3.506-3.532-7.741-6.848-10.708-11.055c-3.191-4.523-2.993-10.004-1.208-15.328
	c2.765-8.25,10.46-13.902,18.857-13.703c8.998,0.215,16.959,6.371,19.144,14.806c2.577,9.944-1.451,17.442-13.602,24.979
	c12.257,2.781,20.001,10.221,23.822,23.357c3.986-12.881,11.51-20.721,24.111-23.318c-12.515-7.475-16.533-15.246-13.514-25.543
	c2.498-8.518,10.715-14.541,19.477-14.281c9.107,0.271,16.906,6.715,18.954,15.664c2.267,9.896-2.185,17.748-13.896,24.039
	c12.146,2.937,20.197,10.062,23.897,23.666c4.226-13.453,11.907-21.125,24.636-23.512c-12.258-6.27-16.791-14.211-14.344-24.561
	c2.095-8.859,10.689-15.527,19.719-15.301c8.854,0.227,17.031,6.735,18.939,15.078c2.43,10.616-2.119,18.885-13.764,24.479
	c1.107,0.42,1.918,0.773,2.758,1.037c13.561,4.256,21.311,14.658,21.596,28.949c0.129,6.475,0.328,12.942,0.496,19.416
	c-79.334,0-158.667,0-238,0C0,248.302,0,240.652,0,233z"/>
<path d="M238,158c-49.08,0-89.161,0-138.621,0c0-6.762,0-13.317,0-20.5c2.068,0,4.19,0,6.313,0c41.77,0,90.081,0.07,131.85-0.139
	c0.458,8.973,0.021,2.16,0.458,8.973C238,151,238,153.333,238,158z"/>
<path d="M89.499,157.605c-17.48,1.939-25.891,9.752-29.679,27.908c-1.367-10.188-5.426-17.744-13.247-22.945
	c-7.858-5.229-16.42-5.646-25.801-3.1c-0.105-2.025-0.258-3.619-0.26-5.213c-0.018-15.498-0.031-30.997-0.004-46.496
	c0.022-12.854,6.403-19.132,19.439-19.266c14.315-0.147,28.642-0.039,42.94-0.628c7.101-0.293,14.176-1.746,21.201-3.019
	c1.717-0.312,3.611-1.648,4.706-3.067c6.896-8.938,13.595-18.022,20.347-27.068c4.535-6.076,10.377-7.527,15.4-3.8
	c4.635,3.44,5.49,10.803,1.469,16.161c-8.182,10.903-16.395,21.796-25.02,32.345c-2.166,2.649-5.726,4.549-9.022,5.798
	c-5.877,2.227-11.986,3.927-18.107,5.39c-3.42,0.816-4.503,2.329-4.441,5.809c0.208,11.83,0.079,23.665,0.079,35.497
	C89.499,153.729,89.499,155.544,89.499,157.605z"/>
<path d="M54.779,78.999c-13.437-0.088-24.854-11.542-24.773-24.853c0.085-13.958,11.337-24.742,25.713-24.645
	c13.119,0.089,24.137,11.248,24.274,24.587C80.133,67.564,68.468,79.089,54.779,78.999z"/>
<path d="M40.15,0c62,0,135.403,0,197.403,0c0.447,9.827,0.014,7.668,0,12.931"/>
<g>
	<path d="M738.499,216.416c-1.966-0.422-2.854,0.321-3.5,1.979c-1.225,3.143-2.802,6.148-4.023,9.294
		c-0.419,1.076-0.523,2.476-0.24,3.593c1.334,5.322,2.886,10.59,4.293,15.893c0.67,2.521-0.649,4.754-3.06,5.438
		c-2.313,0.657-4.65-0.456-5.326-2.875c-1.883-6.761-3.678-13.547-5.332-20.366c-0.246-1.017,0.29-2.33,0.738-3.391
		c1.787-4.213,3.506-8.473,5.6-12.534c1.468-2.85,1.242-5.737,1.091-8.668c-0.205-3.93-0.579-7.853-0.876-11.778
		c-0.111-1.457-0.083-2.942-0.396-4.354c-0.118-0.541-0.941-1.131-1.562-1.323c-3.56-1.105-7.116-2.242-10.741-3.095
		c-3.745-0.88-6.927-2.54-9.68-5.256c-2.902-2.861-6.167-5.36-9.006-8.28c-1.756-1.807-1.467-4.066,0.132-5.682
		c1.522-1.539,3.909-1.793,5.757-0.297c3.571,2.894,6.988,5.975,10.531,8.904c0.835,0.688,1.867,1.242,2.9,1.572
		c3.352,1.066,6.781,1.891,10.109,3.018c2.848,0.963,5.672,0.367,8.51,0.283c0.134-0.004,0.275-0.156,0.395-0.136
		c5.419,0.917,8.026-3.44,11.507-6.144c0.831-0.646,1.491-1.539,2.369-2.098c3.387-2.148,5.002-5.186,5.261-9.172
		c0.158-2.447,0.72-4.878,1.21-7.294c0.501-2.456,2.521-4.022,4.623-3.739c2.571,0.35,4.282,2.217,3.936,4.854
		c-0.651,4.948-1.51,9.876-2.416,14.786c-0.164,0.891-0.813,1.832-1.504,2.459c-3.747,3.4-7.462,6.854-11.428,9.986
		c-1.822,1.442-2.262,2.948-2.096,5.062c0.624,7.975,1.31,15.951,1.646,23.939c0.137,3.272-0.354,6.612-0.913,9.861
		c-0.825,4.811-0.384,9.248,2.014,13.621c2.125,3.871,3.78,8.003,5.552,12.061c1.519,3.483-0.946,6.955-4.535,6.465
		c-2.033-0.276-3.064-1.778-3.788-3.465c-1.071-2.502-1.917-5.104-3.037-7.58c-1.081-2.39-2.26-4.758-3.628-6.994
		c-2.179-3.557-2.054-7.368-1.685-11.268C738.124,221.315,738.294,218.925,738.499,216.416z"/>
	<path d="M644.725,79.954c0.427,4.252,0.958,7.672,1.049,11.104c0.065,2.552-0.086,5.216-0.762,7.658
		c-1.471,5.32-3.39,10.515-5.028,15.79c-1.121,3.605-5.55,4.392-7.667,1.953c-1.36-1.562-0.999-3.34-0.521-4.989
		c1.382-4.77,3.106-9.446,4.341-14.25c0.628-2.45,0.729-5.105,0.642-7.654c-0.112-3.296-0.661-6.575-1.009-9.864
		c-0.485-4.605,1.232-8.865,2.18-13.23c1.557-7.181,3.34-14.311,5.046-21.456c0.595-2.5,2.118-3.423,4.646-2.845
		c3.068,0.702,6.18,1.276,9.188,2.178c3.44,1.03,6.472-0.46,9.623-1.207c0.485-0.115,0.939-0.933,1.163-1.519
		c1.041-2.743,1.964-5.532,2.991-8.282c0.894-2.388,3.024-3.382,5.374-2.592c2.475,0.832,3.661,3.012,2.857,5.472
		c-1.3,3.992-2.521,8.023-4.116,11.898c-0.509,1.238-1.943,2.355-3.227,2.953c-1.674,0.78-3.611,0.989-5.569,1.478
		c1.387,1.729,2.813,2.428,4.967,1.544c3.365-1.381,6.814-2.569,10.249-3.783c2.727-0.961,5.003-0.057,5.997,2.287
		c1.012,2.384,0.05,4.663-2.777,5.83c-3.688,1.522-7.467,2.816-11.206,4.206c-0.788,0.293-1.595,0.542-2.368,0.87
		c-2.205,0.937-4.227,0.665-6.163-0.741c-1.7-1.234-3.468-2.374-5.413-3.699c-1.194,5.018-2.354,9.768-3.393,14.545
		c-0.077,0.361,0.668,1.129,1.186,1.355c3.012,1.326,6.045,2.612,9.121,3.782c2.047,0.779,3.132,2.189,3.645,4.261
		c1.44,5.84,2.906,11.674,4.448,17.488c0.875,3.291-0.584,5.569-2.669,6.246c-2.718,0.881-5.07-0.684-5.922-3.888
		c-1.327-5.008-2.565-10.04-3.913-15.042c-0.177-0.654-0.653-1.512-1.208-1.734C655.413,84.023,650.277,82.089,644.725,79.954z"/>
	<path d="M799.167,144.126c-1.719,1.271-3.074,2.885-4.766,3.397c-3.1,0.944-6.385,1.323-9.614,1.774
		c-2.152,0.301-4.342,0.4-6.519,0.439c-2.202,0.043-3.821-1.597-3.967-3.798c-0.158-2.373,1.404-4.474,3.595-4.663
		c2.679-0.234,5.385-0.209,8.044-0.562c4.438-0.59,7.854-3.1,10.885-6.24c2.563-2.661,2.242-4.818-0.963-6.877
		c-2.42-1.556-4.921-3.05-7.081-4.924c-2.734-2.371-5.831-4.205-8.647-6.441c-3.008-2.391-3.069-6.209,0.028-7.745
		c1.664-0.825,3.438-0.735,4.937,0.493c2.808,2.302,5.417,4.869,8.367,6.96c2.976,2.109,6.508,3.468,9.353,5.715
		c3.229,2.551,6.643,1.935,10.17,1.778c2.541-0.112,3.582,0.741,3.93,3.31c0.367,2.719,0.525,5.467,0.709,8.209
		c0.451,6.811,0.611,13.651,1.379,20.426c0.658,5.812,1.938,11.56,3.045,17.315c1.303,6.787,2.738,13.548,4.062,20.329
		c0.534,2.736-1.279,4.895-3.918,5.441c-2.021,0.424-4.373-1.424-4.896-3.912c-0.785-3.756-1.475-7.532-2.193-11.305
		c-1.284-6.715-2.536-13.438-3.893-20.139c-0.111-0.555-0.916-1.382-1.375-1.367c-1.064,0.034-2.725,0.19-3.07,0.854
		c-1.86,3.593-3.539,7.301-4.955,11.089c-0.432,1.153-0.004,2.733,0.326,4.045c1.232,4.86,2.629,9.681,3.875,14.539
		c0.455,1.769,0.404,3.606-1.184,4.854c-1.455,1.141-3.297,1.764-4.879,0.568c-1.136-0.857-2.189-2.24-2.582-3.592
		c-1.824-6.288-3.5-12.625-4.994-18.999c-0.283-1.2,0.297-2.738,0.83-3.972c1.963-4.555,3.981-9.09,6.164-13.541
		c1.285-2.627,0.237-5.24,0.369-7.85C799.825,147.958,799.392,146.15,799.167,144.126z"/>
	<path d="M605.205,168.313c-0.697,2.81-1.493,5.713-2.096,8.655c-0.147,0.726,0.17,1.678,0.558,2.361
		c2.414,4.224,4.923,8.395,7.375,12.598c2.053,3.521,2.002,4.396-0.517,7.602c-3.802,4.836-7.627,9.653-11.459,14.467
		c-1.888,2.364-4.598,2.799-6.653,1.105c-1.996-1.641-2.124-4.256-0.279-6.602c3.206-4.07,6.382-8.168,9.701-12.148
		c0.816-0.979,0.728-1.779,0.232-2.62c-1.533-2.601-3.163-5.146-4.744-7.72c-1.208-1.967-1.201-1.971-4.075-2.139
		c0.822,3.019,1.565,5.986,2.446,8.914c0.738,2.455,0.393,4.504-1.309,6.549c-4.094,4.92-8.005,9.988-12.001,14.986
		c-1.402,1.756-4.065,2.278-5.705,0.936c-2.546-2.092-2.816-4.235-1.21-6.385c2.415-3.223,4.987-6.326,7.49-9.483
		c1.052-1.33,2.187-2.608,3.112-4.021c0.386-0.592,0.595-1.537,0.432-2.211c-0.901-3.691-2.036-7.324-2.888-11.025
		c-0.318-1.387-0.384-2.969-0.066-4.346c2.312-10.064,4.722-20.106,7.168-30.14c0.577-2.364,1.564-3.03,3.979-2.567
		c4.002,0.771,7.981,1.68,11.933,2.687c1.668,0.425,2.367,1.718,2.466,3.526c0.062,1.145,0.531,2.426,1.222,3.342
		c1.691,2.24,3.751,4.213,5.413,6.475c1.297,1.766,2.83,2.756,4.965,3.23c2.942,0.654,5.839,1.562,8.723,2.463
		c3.509,1.098,4.781,5.224,2.118,7.396c-1.07,0.871-2.967,1.016-4.485,1.012c-6.301-0.021-12.119-2.316-17.985-4.24
		C607.704,170.522,606.6,169.302,605.205,168.313z"/>
	<path d="M700.179,50.769c-1.439,2.162-2.839,4.266-4.302,6.461c-0.951-0.517-1.798-0.976-2.854-1.546
		c1.019-2.352,2.01-4.639,2.985-6.899c-0.093-0.166-0.133-0.317-0.229-0.403c-2.876-2.56-2.878-2.56-6.021-0.415
		c-1.05,0.716-2.094,1.439-3.281,2.254c-0.651-0.804-1.297-1.594-2.072-2.547c1.346-1.303,2.524-2.615,3.879-3.71
		c1.537-1.243,2.031-2.419,0.469-3.97c-0.337-0.334-0.519-0.824-0.854-1.378c-2.403,0.48-4.804,0.959-7.394,1.477
		c-0.335-0.968-0.671-1.934-1.067-3.074c2.485-0.991,4.865-1.941,7.242-2.891c-0.155-1.402-0.294-2.652-0.46-4.124
		c-2.213-0.491-4.51-1.002-7.013-1.557c0-0.896,0-1.916,0-3.18c1.66,0,3.356-0.164,5.008,0.043c1.976,0.246,3.073-0.358,3.336-2.372
		c0.063-0.479,0.265-0.939,0.46-1.616c-1.467-0.958-2.995-1.928-4.489-2.946c-1.036-0.706-1.86-1.469-1.094-2.946
		c0.821-1.589,1.82-0.771,2.797-0.351c1.67,0.715,3.319,1.472,4.855,2.155c0.252-0.136,0.333-0.154,0.373-0.206
		c2.527-3.186,2.518-3.18,0.079-6.535c-0.656-0.901-1.238-1.854-1.894-2.842c0.863-0.718,1.613-1.339,2.488-2.065
		c1.387,1.415,2.904,2.63,3.979,4.156c0.993,1.412,1.807,1.433,3.049,0.533c0.609-0.442,1.334-0.728,2.078-1.122
		c-0.334-1.586-0.632-3.097-0.969-4.6c-0.669-2.988-0.679-2.986,2.572-3.859c0.756,1.898,1.604,3.805,2.266,5.772
		c0.356,1.058,0.906,1.669,1.965,1.311c1.111-0.38,2.839,0.352,3.138-1.688c0.285-1.934,0.719-3.845,1.114-5.909
		c0.996,0,2.027,0,3.203,0c0,2.675,0,5.206,0,7.791c1.374,0.417,2.632,0.799,3.994,1.212c1.411-2.142,2.799-4.245,4.256-6.457
		c0.979,0.603,1.854,1.143,2.829,1.742c-1.045,2.366-2.025,4.594-3.001,6.799c0.806,0.845,1.481,1.768,2.371,2.385
		c0.381,0.266,1.319,0.08,1.807-0.221c1.77-1.091,3.455-2.316,5.345-3.611c0.693,0.798,1.365,1.572,2.196,2.529
		c-1.574,1.464-2.957,2.988-4.587,4.179c-1.01,0.74-0.848,1.221-0.524,2.211c0.761,2.332,2.104,2.938,4.384,2.158
		c1.387-0.477,2.878-0.648,4.548-1.007c0.341,1.018,0.667,1.983,1.052,3.126c-2.398,0.942-4.741,1.862-7.146,2.806
		c0,0.54,0.021,1.099-0.003,1.654c-0.078,1.737,0.305,2.893,2.45,3.031c1.843,0.119,3.653,0.755,5.499,1.167
		c-0.211,1.173-0.371,2.06-0.525,2.923c-2.126,0-4.167,0.094-6.197-0.024c-2.294-0.136-1.785,1.792-2.181,2.93
		c-0.179,0.509,0.229,1.54,0.703,1.902c1.617,1.241,3.381,2.29,5.272,3.535c-0.485,0.89-0.975,1.782-1.561,2.852
		c-2.381-1.026-4.685-2.019-6.955-2.997c-0.171,0.105-0.318,0.152-0.397,0.252c-2.449,3.037-2.445,3.035-0.144,6.35
		c0.642,0.921,1.26,1.856,1.866,2.755c-2.138,2.541-2.292,2.552-4.354,0.362c-0.193-0.205-0.373-0.426-0.562-0.636
		c-2.797-3.104-2.797-3.103-6.555-0.986c0.474,2.347,0.957,4.741,1.479,7.323c-0.94,0.375-1.885,0.752-3.052,1.217
		c-0.811-2.088-1.482-4.071-2.369-5.954c-0.264-0.562-1.3-1.312-1.677-1.168c-1.159,0.44-3.238-0.839-3.388,1.743
		c-0.093,1.604-0.442,3.215-0.889,4.762c-0.146,0.512-1.038,1.24-1.436,1.155c-0.711-0.152-1.751-0.764-1.858-1.333
		c-0.257-1.364-0.142-2.823-0.01-4.229c0.162-1.714-0.215-2.851-2.188-2.99C701.423,51.375,700.85,51.016,700.179,50.769z
		 M708.709,47.461c9.578,0.081,17.328-7.531,17.634-16.874c0.304-9.315-7.268-17.868-16.906-18.08
		c-10.286-0.227-18.277,7.336-18.232,17.658C691.246,40.084,698.799,47.394,708.709,47.461z"/>
	<path d="M689.817,81.373c2.698,0,5.167,0,7.533,0c0.199-0.185,0.354-0.257,0.382-0.361c0.952-3.87,0.95-3.87-2.978-6.427
		c-2.486-1.617-2.486-1.617-0.865-4.373c1.874,0.798,3.826,1.519,5.668,2.457c1.001,0.51,1.996,0.398,2.278-0.405
		c0.411-1.167,2.444-1.912,1.092-3.608c-0.74-0.931-1.455-1.883-2.142-2.854c-1.668-2.364-1.656-2.371,0.904-4.424
		c1.763,1.833,3.55,3.69,5.263,5.472c0.215,0,0.298,0.025,0.354-0.004c3.633-1.826,3.641-1.829,2.793-5.801
		c-0.246-1.157-0.562-2.301-0.841-3.427c2.893-1.517,2.995-1.478,4.063,1.316c0.324,0.846,0.865,1.652,0.994,2.522
		c0.351,2.367,2.024,2.169,3.651,2.015c1.639-0.156,1.79-1.42,1.964-2.745c0.207-1.577,0.61-3.129,0.946-4.772
		c1.062,0,2.088,0,3.168,0c-0.113,1.627-0.17,3.148-0.335,4.657c-0.227,2.068,0.41,3.423,2.67,3.667
		c0.545,0.06,1.073,0.269,1.725,0.439c1.347-2.099,2.699-4.212,4.03-6.287c2.994,1.002,3.042,1.105,1.865,3.842
		c-0.165,0.386-0.331,0.772-0.493,1.16c-1.565,3.712-1.565,3.712,2.029,6.046c2.002-1.394,4.055-2.825,6.258-4.36
		c0.669,0.85,1.303,1.652,2.002,2.539c-1.58,1.502-3.007,2.967-4.554,4.288c-1.027,0.879-0.792,1.632-0.141,2.52
		c0.723,0.983,0.808,2.742,2.785,2.126c1.062-0.33,2.164-0.521,3.244-0.784c2.833-0.693,2.833-0.695,3.64,2.385
		c-2.349,0.987-4.716,1.982-7.125,2.994c0.177,1.423,0.345,2.786,0.514,4.168c1.686,0.363,3.314,1.011,4.939,0.997
		c2.484-0.021,2.926,1.103,2.314,3.489c-1.979,0-4.077,0.05-6.171-0.021c-1.031-0.035-1.998,0.146-1.98,1.261
		c0.02,1.235-1.556,2.696,0.409,3.748c1.051,0.564,2.057,1.223,3.062,1.867c2.479,1.587,2.481,1.633,0.598,4.239
		c-2.343-1.002-4.714-2.015-7.07-3.021c-0.835,1.135-1.64,2.229-2.511,3.413c1.278,1.938,2.598,3.939,4.021,6.098
		c-1.411,0.112-2.423,0.193-3.432,0.273c-0.137,0.255-0.271,0.51-0.408,0.765c-1.167-1.459-2.332-2.916-3.407-4.265
		c-4.272,2.025-4.266,2.024-3.226,6.651c0.211,0.942,0.339,1.902,0.527,2.968c-1.008,0.338-1.839,0.616-2.742,0.918
		c-0.825-1.947-1.794-3.734-2.333-5.643c-0.535-1.884-1.868-1.461-3.027-1.352c-1.201,0.112-2.228,0.585-2.283,2.168
		c-0.05,1.315-0.401,2.617-0.612,3.881c-3.713,0.817-3.845,0.722-3.583-2.501c0.281-3.437,0.279-3.435-2.936-4.512
		c-0.325-0.108-0.643-0.248-1.042-0.404c-1.418,2.179-2.815,4.33-4.25,6.538c-1.038-0.545-1.891-0.991-2.777-1.458
		c0.744-1.826,1.2-3.652,2.173-5.142c1.097-1.679,0.452-2.51-0.869-3.377c-0.582-0.384-1.133-0.816-1.719-1.242
		c-2.107,1.444-4.163,2.854-6.317,4.333c-0.692-0.897-1.286-1.661-1.998-2.583c1.398-1.282,2.614-2.564,4.003-3.624
		c1.708-1.301,1.031-2.505,0.296-3.985c-0.708-1.426-1.533-1.548-2.872-1.035c-0.896,0.344-1.902,0.383-2.856,0.584
		c-2.706,0.571-2.703,0.577-3.518-2.389c1.82-0.759,3.622-1.687,5.529-2.263c2.435-0.735,1.015-2.559,1.199-3.869
		c0.049-0.349-0.978-1.07-1.613-1.252c-1.465-0.417-2.993-0.609-4.497-0.892C689.168,84.339,689.778,82.863,689.817,81.373z
		 M702.054,85.473c0.277,10.15,7.312,17.406,16.81,17.708c11.228,0.358,18.116-7.977,18.392-17.079
		c0.298-9.806-6.931-17.757-16.752-18.107C708.903,67.58,702.18,76.626,702.054,85.473z"/>
	<path d="M667.139,111.37c0.87-0.688,1.643-1.3,2.48-1.965c1.764,1.81,3.532,3.621,5.276,5.407c1.443-0.683,2.748-1.301,4.059-1.92
		c-0.48-1.974-1.108-3.986-1.396-6.048c-0.089-0.634,0.618-1.771,1.212-1.987c0.518-0.188,1.675,0.423,2.037,1.002
		c0.737,1.17,1.225,2.53,1.641,3.866c0.449,1.454,1.021,2.253,2.696,1.459c0.593-0.279,1.385-0.133,2.288-0.195
		c0.346-1.989,0.784-3.961,0.997-5.958c0.139-1.297,0.671-1.646,1.905-1.607c1.236,0.04,1.572,0.564,1.538,1.702
		c-0.061,2.047-0.018,4.096-0.018,6.011c0.152,0.182,0.186,0.257,0.237,0.277c3.81,1.438,3.81,1.438,6.017-2.031
		c0.188-0.298,0.383-0.593,0.57-0.891c1.54-2.44,1.54-2.44,4.318-0.811c-0.586,1.369-1.066,2.836-1.812,4.151
		c-1.152,2.035-1.133,3.649,1.123,4.837c0.366,0.191,0.67,0.498,0.775,0.577c1.368-0.506,2.531-0.937,3.754-1.39
		c-0.612-1.442,1.206-2,2.262-2.22c0.806-0.168,1.879,0.967,3.119,1.688c-1.851,1.62-3.371,2.777-4.652,4.156
		c-0.531,0.571-1.023,1.948-0.717,2.377c0.744,1.044,0.584,3.426,3.056,2.554c1.109-0.393,2.328-0.47,3.484-0.737
		c2.642-0.61,2.942-0.392,3.153,2.411c-1.548,0.651-3.042,1.519-4.653,1.901c-2.266,0.539-2.464,1.922-2.057,3.764
		c0.121,0.547,0.272,1.088,0.424,1.685c2.444,0.418,4.906,0.839,7.555,1.293c-0.163,1.011-0.327,2.015-0.5,3.06
		c-2.064,0-3.975,0.094-5.87-0.031c-1.443-0.096-2.302,0.094-2.233,1.843c0.026,0.707-0.486,1.435-0.791,2.254
		c2.073,1.317,4.139,2.633,6.34,4.032c-0.381,0.97-0.748,1.904-1.188,3.025c-2.438-1.025-4.728-1.986-7.118-2.99
		c-0.905,1.101-1.793,2.181-2.754,3.354c1.41,1.999,2.82,3.999,4.226,5.993c-1.721,2.366-2.388,2.394-4.309,0.245
		c-0.563-0.633-1.276-1.145-1.779-1.814c-1.018-1.355-1.926-1.562-3.521-0.611c-1.453,0.865-2.107,1.445-1.447,3.224
		c0.622,1.672,0.767,3.521,1.113,5.245c-2.791,1.246-2.995,1.167-3.986-1.377c-0.278-0.719-0.559-1.438-0.853-2.151
		c-1.016-2.483-1.768-2.896-4.431-2.239c-0.421,0.104-0.934,0.615-1.05,1.035c-0.275,1.008-0.328,2.075-0.5,3.114
		c-0.172,1.038-0.375,2.071-0.603,3.286c-0.927,0-1.938,0-3.136,0c0-2.523,0-5.043,0-7.398c-0.271-0.261-0.354-0.41-0.468-0.437
		c-3.824-0.894-3.818-0.888-6.011,2.573c-0.563,0.892-1.17,1.756-1.909,2.856c-0.854-0.452-1.745-0.926-2.781-1.474
		c1.01-2.424,1.994-4.784,2.967-7.111c-3.429-2.669-3.433-2.675-6.854-0.314c-0.908,0.627-1.79,1.297-2.764,2.002
		c-0.702-0.77-1.36-1.487-2.199-2.403c1.991-1.771,3.889-3.456,5.461-4.854c0-0.672,0.025-0.756-0.004-0.812
		c-1.879-3.729-1.879-3.729-5.933-2.724c-0.748,0.185-1.502,0.345-2.241,0.558c-1.508,0.438-1.644-0.829-1.838-1.679
		c-0.058-0.262,0.913-1.051,1.467-1.112c2.549-0.294,5.303-3.255,5.162-5.483c-0.09-1.482-0.941-1.912-2.104-2.125
		c-1.916-0.352-3.843-0.646-5.867-0.979c0.172-1.099,0.31-1.986,0.46-2.95c1.655,0,3.303-0.039,4.948,0.008
		c2.716,0.079,3.104-0.199,3.707-3.502c0.306-1.666-1.31-1.826-2.271-2.451c-1.278-0.829-2.58-1.623-3.839-2.413
		c1.036-2.471,1.621-2.725,3.845-1.812c0.648,0.268,1.291,0.556,1.938,0.832c2.607,1.121,3.784,0.729,4.906-1.777
		c0.171-0.384-0.032-1.087-0.297-1.487C669.747,114.992,668.499,113.293,667.139,111.37z M670.136,133.378
		c-0.389,9.662,8.281,18.094,18.057,17.66c9.12-0.406,17.383-7.233,17.024-18.061c-0.342-10.339-7.302-17.007-17.844-17.074
		C677.716,115.841,670.112,123.472,670.136,133.378z"/>
	<path d="M774.54,109.625c0.697,0.973,1.259,1.755,1.968,2.741c-1.479,1.027-2.876,1.998-4.522,3.143
		c0.085,0.342,0.321,1.157,0.483,1.988c0.241,1.234,0.963,1.356,2.035,1.072c0.737-0.196,1.534-0.154,2.3-0.262
		c2.158-0.305,2.687,0.859,2.529,2.709c-1.812,0.603-3.57,1.188-5.396,1.794c0,0.885,0,1.796,0,2.876
		c1.284,0.369,2.58,0.888,3.929,1.087c1.403,0.209,1.607,0.918,1.565,2.15c-0.049,1.438-0.918,1.342-1.875,1.287
		c-1.396-0.078-2.795-0.148-4.27-0.227c-1.217,1.607-1.4,3.042,0.869,4.178c0.979,0.49,1.772,1.359,2.685,2.082
		c-0.615,0.893-1.157,1.684-1.781,2.588c-1.795-0.914-3.467-1.767-5.251-2.679c-0.583,0.667-1.182,1.356-1.872,2.146
		c0.907,1.57,1.874,3.244,2.899,5.021c-0.845,0.616-1.625,1.186-2.607,1.901c-1.065-1.229-2.036-2.519-3.195-3.603
		c-0.411-0.385-1.396-0.533-1.915-0.312c-0.52,0.221-1.085,1.037-1.094,1.599c-0.021,1.591,0.231,3.187,0.396,4.964
		c-1.141,0.096-2.1,0.176-3.168,0.268c-0.445-1.422-0.747-2.782-1.312-4.021c-0.268-0.587-0.992-1.234-1.596-1.335
		c-0.967-0.159-1.895,0.085-2.061,1.494c-0.16,1.362-0.669,2.687-1.083,4.246c-1.037-0.196-2.02-0.388-3.248-0.623
		c0.164-1.414,0.448-2.729,0.419-4.037c-0.019-0.741-0.366-1.667-0.893-2.159c-0.896-0.842-1.885-0.66-2.639,0.439
		c-0.792,1.156-1.653,2.266-2.545,3.479c-0.979-0.591-1.856-1.117-2.769-1.668c0.547-1.062,0.918-2.07,1.523-2.904
		c1.271-1.754,1.229-3.17-0.917-4.338c-1.57,0.895-3.254,1.854-5.036,2.867c-0.618-0.812-1.209-1.589-1.891-2.486
		c1.523-1.324,3.051-2.651,4.469-3.883c-0.428-2.684-1.854-3.062-4.092-2.285c-0.743,0.258-1.838-0.002-2.573-0.396
		c-0.45-0.238-0.701-1.182-0.701-1.811c0-0.336,0.666-0.777,1.116-0.986c0.563-0.261,1.208-0.383,1.83-0.472
		c2.195-0.311,2.974-1.51,2.327-3.723c-1.679-0.488-3.413-0.994-5.414-1.577c0.124-1.011,0.254-2.063,0.369-2.997
		c2.139,0.111,3.944,0.206,5.822,0.303c0.379-0.776,0.737-1.516,1.202-2.47c-1.534-1.208-3.066-2.414-4.732-3.725
		c0.525-0.866,1.046-1.72,1.656-2.726c1.068,0.562,2.066,0.938,2.89,1.549c1.777,1.324,3.164,1.222,4.266-1
		c-0.862-1.534-1.782-3.172-2.817-5.016c0.854-0.591,1.688-1.165,2.63-1.815c1.294,1.532,2.518,2.977,3.711,4.39
		c2.857-0.929,2.896-1.009,2.384-3.86c-0.172-0.958-0.271-1.929-0.396-2.855c3.078-1.021,3.067-1.019,3.936,1.827
		c0.282,0.934,0.631,1.849,0.934,2.727c2.296,0.762,3.322-0.217,3.628-2.374c0.138-0.962,0.444-1.899,0.738-3.104
		c1.034,0.167,2.031,0.326,3.2,0.513c-0.16,1.677-0.473,3.201-0.371,4.698c0.043,0.64,0.849,1.441,1.504,1.751
		c0.439,0.205,1.417-0.146,1.82-0.566c1.015-1.058,1.838-2.296,2.841-3.594c0.938,0.586,1.753,1.094,2.756,1.718
		c-0.742,1.4-1.575,2.7-2.108,4.112c-0.222,0.581-0.03,1.64,0.39,2.054c0.433,0.423,1.499,0.621,2.073,0.389
		C771.839,111.339,773.062,110.477,774.54,109.625z M755.281,111.501c-5.863-0.517-9.116,4.214-12.565,8.287
		c-0.837,0.99-0.362,3.22-0.251,4.863c0.509,7.42,5.585,13.019,13.045,13.132c7.959,0.123,13.487-5.625,13.534-12.953
		C769.095,116.905,763.116,111.54,755.281,111.501z"/>
	<path d="M658.825,154.025c-1.582,2.584-2.085,2.73-5.188,1.129c-1.316-0.683-2.367-0.961-3.067,0.624
		c-0.194,0.438-0.259,1.123-0.047,1.517c0.762,1.406,1.666,2.74,2.597,4.229c-0.776,0.6-1.59,1.225-2.532,1.95
		c-1.365-1.509-2.679-2.957-3.964-4.374c-3.003,1.486-2.835,0.061-1.576,6.82c-2.763,1.431-3.07,1.312-4.125-1.635
		c-0.188-0.527-0.206-1.216-0.562-1.566c-0.499-0.491-1.264-1.043-1.875-1.004c-0.612,0.039-1.506,0.662-1.708,1.23
		c-0.508,1.426-0.695,2.965-1.017,4.477c-1.123-0.141-2.009-0.254-2.972-0.375c0-1.592,0.124-3.145-0.061-4.659
		c-0.075-0.612-0.729-1.438-1.3-1.626c-0.554-0.186-1.562,0.113-1.978,0.562c-1.038,1.127-1.854,2.461-2.854,3.846
		c-0.879-0.737-1.67-1.404-2.495-2.099c0.779-1.653,1.522-3.231,2.357-5.002c-0.709-0.603-1.439-1.224-2.185-1.856
		c-0.966,0.6-1.854,1.143-2.733,1.699c-2.461,1.559-2.459,1.561-4.011-1.039c1.267-1.404,2.541-2.813,3.966-4.396
		c-0.237-0.471-0.641-1.27-1.108-2.197c-1.819,0.301-3.657,0.6-5.76,0.944c-0.286-0.902-0.596-1.868-0.954-2.987
		c1.791-0.675,3.548-1.338,5.38-2.027c0.444-1.891,0.414-3.469-2.271-3.424c-0.618,0.012-1.498-0.009-1.806-0.386
		c-0.599-0.735-0.876-1.729-1.287-2.618c0.613-0.242,1.216-0.632,1.851-0.697c0.978-0.1,2.016,0.199,2.952-0.014
		c0.61-0.137,1.368-0.785,1.549-1.365c0.186-0.597-0.04-1.572-0.462-2.05c-0.677-0.763-1.792-1.137-2.469-1.897
		c-0.399-0.45-0.646-1.58-0.362-1.959c0.388-0.52,1.442-0.982,2.03-0.818c1.312,0.365,2.514,1.135,3.764,1.736
		c2.32-2.028,2.32-2.028,0.417-4.888c-1.712-2.569-1.712-2.569,1.34-4.132c0.603,0.713,1.372,1.465,1.943,2.345
		c1.261,1.939,2.676,1.895,4.295,0.517c-0.683-2.823,0.172-5.938,2.018-6.559c0.511,1.407,1.117,2.803,1.51,4.256
		c0.385,1.425,1.437,1.536,2.426,1.206c0.59-0.196,1.155-1.014,1.37-1.672c0.447-1.358,0.652-2.795,0.988-4.35
		c1.119,0.262,1.985,0.464,2.619,0.613c1.137,2.349-1.799,6.049,2.979,6.699c1.062-1.489,2.191-3.07,3.294-4.614
		c2.91,1.192,2.91,1.192,0.324,6.746c1.069,0.638,1.595,2.574,3.487,1.127c1.114-0.852,2.345-1.554,3.513-2.319
		c2.464,2.333,2.466,2.335,0.053,4.456c-0.742,0.652-1.488,1.3-2.214,1.934c1.048,2.688,1.048,2.688,6.938,1.694
		c0.295,0.878,0.601,1.785,0.97,2.888c-1.048,0.432-2.034,1.051-3.094,1.232c-2.26,0.389-2.928,1.561-2.191,3.77
		c1.824,0.418,3.715,0.854,5.796,1.332c-0.209,1.055-0.396,1.988-0.608,3.057c-1.526,0-3.026-0.146-4.477,0.062
		c-0.729,0.104-1.649,0.721-1.939,1.354c-0.204,0.443,0.352,1.496,0.859,1.945C656.244,152.376,657.526,153.123,658.825,154.025z
		 M637.303,156.585c6.604,0.158,13.223-4.821,13.171-13.285c-0.046-7.281-5.091-13.145-13.155-12.928
		c-8.356,0.228-12.81,4.403-13.163,12.973C623.854,150.746,629.828,156.58,637.303,156.585z"/>
	<path d="M642.564,29.323c-0.022-5.941,4.23-9.961,10.445-9.869c4.885,0.071,9.11,4.647,9.122,9.878
		c0.013,5.54-4.241,9.742-9.647,9.995C647.231,39.572,641.621,34.278,642.564,29.323z"/>
	<path d="M810.858,120.004c-5.093-0.033-9.861-4.728-9.757-9.839c0.125-6.159,4.925-10.12,10.019-10.021
		c5.797,0.113,9.77,4.218,9.817,9.753C820.993,115.97,816.642,119.854,810.858,120.004z"/>
	<path d="M743.277,165.875c0.027,5.599-4.213,9.819-9.849,9.806c-5.3-0.015-9.564-4.371-9.729-9.669
		c-0.156-5.137,3.54-10.307,10.44-10.141C739.265,155.994,743.928,160.74,743.277,165.875z"/>
	<path d="M602.921,142.953c-5.604-0.018-9.665-4.229-9.643-10.002c0.019-5.231,4.339-9.435,9.541-9.569
		c5.69-0.147,10.236,4.971,10.095,10.12C612.767,138.773,607.518,143.552,602.921,142.953z"/>
	<path d="M708.8,43.944c-7.924-0.001-13.98-6.105-13.965-14.089c0.014-7.265,5.53-13.899,14.028-13.853
		c8.117,0.045,13.901,5.938,13.953,13.911C722.871,38.862,715.407,44.297,708.8,43.944z M708.901,25.634
		c-2.599-0.027-4.551,1.789-4.644,4.321c-0.081,2.211,2.279,4.593,4.592,4.634c2.063,0.036,4.497-2.303,4.581-4.405
		C713.526,27.836,711.358,25.66,708.901,25.634z M706.528,41.424c1.623-0.024,2.799-1.226,2.75-2.81
		c-0.048-1.518-1.432-2.888-2.91-2.717c-1.572,0.184-2.567,1.077-2.614,2.76C703.709,40.289,704.891,41.448,706.528,41.424z
		 M719.079,34.842c-0.028-1.542-1.386-2.96-2.827-2.761c-1.527,0.209-2.604,1.09-2.701,2.737c-0.094,1.582,1.165,2.796,2.771,2.804
		C717.954,37.63,719.107,36.467,719.079,34.842z M713.085,24.61c-0.13,1.742,1.246,2.357,2.713,2.622
		c1.257,0.228,2.807-1.484,2.825-2.849c0.019-1.416-1.408-2.849-2.833-2.844C714.267,21.544,713.064,22.826,713.085,24.61z
		 M705.623,18.874c-1.634-0.022-2.785,1.129-2.73,2.783c0.056,1.658,0.946,2.609,2.595,2.723c1.521,0.104,2.903-1.214,2.938-2.689
		C708.464,20.192,707.173,18.895,705.623,18.874z M700.193,27.761c-1.922,0.005-3.247,1.285-3.21,2.762
		c0.035,1.373,1.567,2.826,2.939,2.788c1.587-0.042,2.673-1.254,2.606-2.953C702.463,28.647,701.466,27.871,700.193,27.761z"/>
	<path d="M719.675,71.567c7.327,0.006,13.977,5.82,14.016,13.883c0.042,8.396-6.768,14.243-14.148,14.18
		c-6.914-0.059-14.107-5.587-13.91-14.772C705.782,77.867,712.434,71.369,719.675,71.567z M730.585,85.645
		c0.267-6.192-5.051-11.042-10.89-11.093c-5.976-0.053-10.901,4.868-10.988,10.896c-0.089,6.115,4.778,11.121,10.879,11.188
		C725.658,96.705,730.557,91.812,730.585,85.645z"/>
	<path d="M696.552,144.128c-3.46,3.072-7.592,3.906-12.034,2.938c-6.095-1.326-10.59-6.501-10.875-12.759
		c-0.325-7.183,4.201-13.392,11.802-14.646c7.633-1.261,14.398,3.852,15.836,11.174c0.633,3.229,0.298,6.193-1.223,8.939
		c-0.696,1.262-2.192,2.081-3.306,3.082c-0.503-2.091-0.894-3.709-1.276-5.305c-0.773,0.107-1.517,0.195-2.252,0.316
		c-1.472,0.246-2.818,1.875-2.441,3.196c0.407,1.438,1.3,2.474,3.038,2.345c0.878-0.062,1.764-0.011,2.646-0.011
		C696.495,143.643,696.523,143.886,696.552,144.128z M687.588,137.882c2.403,0.016,4.637-1.98,4.648-4.149
		c0.011-2.565-2.099-4.778-4.572-4.795c-2.419-0.019-4.78,2.335-4.727,4.706C682.989,135.791,685.267,137.867,687.588,137.882z
		 M680.312,142.253c1.618,0.039,3-1.131,3.038-2.576c0.041-1.491-1.437-3.074-2.878-3.086c-1.524-0.012-2.904,1.324-2.904,2.816
		C677.566,140.871,678.865,142.216,680.312,142.253z M694.771,130.225c1.423,0.081,2.878-1.142,2.986-2.509
		c0.105-1.325-1.307-2.929-2.662-3.026c-1.462-0.104-2.98,1.115-3.128,2.514C691.812,128.701,693.139,130.13,694.771,130.225z
		 M681.734,128.992c1.502-0.039,2.94-1.449,2.85-2.792c-0.098-1.407-1.576-2.797-2.963-2.784c-1.404,0.012-2.843,1.473-2.827,2.877
		C678.807,127.74,680.213,129.031,681.734,128.992z"/>
	<path d="M745.403,124.473c-0.045-5.446,4.569-10.442,10.354-10.336c6.421,0.119,10.385,4.971,10.502,10.59
		c0.103,4.963-5.056,10.562-10.433,10.415C749.891,134.979,745.396,130.515,745.403,124.473z M760.28,124.708
		c0.035-2.478-2.056-4.676-4.464-4.693c-2.321-0.015-4.412,2.059-4.466,4.432c-0.057,2.591,1.864,4.736,4.322,4.822
		C758.043,129.354,760.242,127.175,760.28,124.708z"/>
	<path d="M637.44,133.188c5.053-0.901,10.562,5.226,10.34,10.386c-0.245,5.67-4.646,10.254-10.287,10.477
		c-5.381,0.211-10.632-4.924-10.761-10.205C626.598,138.285,631.367,132.565,637.44,133.188z M637.348,139.076
		c-2.604-0.033-4.538,1.827-4.558,4.385c-0.017,2.354,1.996,4.461,4.365,4.57c2.338,0.11,4.564-2.113,4.558-4.549
		C641.705,141.059,639.771,139.105,637.348,139.076z"/>
	<path d="M711.828,85.784c-0.771-3.623,2.626-7.986,7.396-8.267c4.188-0.244,8.262,3.339,8.368,7.108
		c0.147,5.136-2.8,8.788-7.36,9.038C715.798,93.906,711.097,90.026,711.828,85.784z M715.221,85.505
		c-0.039,2.396,1.977,4.635,4.254,4.729c2.252,0.093,4.646-2.238,4.681-4.558c0.036-2.379-2.14-4.662-4.513-4.737
		C717.448,80.871,715.259,83.132,715.221,85.505z"/>
</g>
</svg>
