<?xml version="1.0" encoding="utf-8"?>
<!-- Generator: Adobe Illustrator 16.0.0, SVG Export Plug-In . SVG Version: 6.00 Build 0)  -->
<!DOCTYPE svg PUBLIC "-//W3C//DTD SVG 1.1//EN" "http://www.w3.org/Graphics/SVG/1.1/DTD/svg11.dtd">
<svg version="1.1" id="Layer_1" xmlns="http://www.w3.org/2000/svg" xmlns:xlink="http://www.w3.org/1999/xlink" x="0px" y="0px"
	 width="351.03px" height="351.002px" viewBox="0 0 351.03 351.002" enable-background="new 0 0 351.03 351.002"
	 xml:space="preserve">
<g>
	<path fill-rule="evenodd" clip-rule="evenodd" d="M0.003,175.69C-0.578,79.888,78.16,0.599,174.469,0.003
		c97.259-0.602,176.087,77.741,176.56,175.472c0.465,96.191-77.697,174.881-174.348,175.523
		C79.322,351.647,0.598,273.532,0.003,175.69z M32.011,175.765c0.885,80.432,65.436,144.138,145.123,143.223
		c78.82-0.905,142.648-65.627,141.855-143.839c-0.811-79.84-65.218-143.769-144.226-143.154
		C95.912,32.608,31.154,97.828,32.011,175.765z"/>
	<path fill-rule="evenodd" clip-rule="evenodd" fill="#E5CF39" d="M32.011,175.765c-0.857-77.938,63.9-143.157,142.752-143.771
		c79.008-0.614,143.415,63.314,144.226,143.154c0.793,78.212-63.035,142.934-141.855,143.839
		C97.447,319.903,32.896,256.197,32.011,175.765z M124.428,175.776c0.006,0,0.013,0,0.02,0c0,19.321-0.181,38.644,0.061,57.962
		c0.171,13.7,9.463,18.972,21.67,12.68c0.739-0.381,1.452-0.813,2.179-1.218c33.455-18.578,66.917-37.146,100.36-55.747
		c5.709-3.175,11.944-6.276,11.826-14.055c-0.113-7.483-6.177-10.512-11.739-13.609c-21.078-11.737-42.179-23.433-63.27-35.147
		c-12.799-7.109-25.55-14.308-38.403-21.319c-13.289-7.25-22.317-2.022-22.689,12.991c-0.024,0.999-0.015,1.999-0.015,2.998
		C124.428,139.466,124.428,157.621,124.428,175.776z"/>
	<path fill-rule="evenodd" clip-rule="evenodd" d="M124.428,175.776c0-18.155,0-36.31,0-54.465c0-0.999-0.009-1.999,0.015-2.998
		c0.372-15.014,9.4-20.241,22.689-12.991c12.853,7.012,25.604,14.21,38.403,21.319c21.091,11.715,42.191,23.41,63.27,35.147
		c5.562,3.098,11.626,6.126,11.739,13.609c0.118,7.778-6.117,10.88-11.826,14.055c-33.442,18.602-66.905,37.169-100.36,55.747
		c-0.728,0.404-1.44,0.837-2.179,1.218c-12.208,6.292-21.499,1.021-21.67-12.68c-0.242-19.318-0.061-38.641-0.061-57.962
		C124.441,175.776,124.435,175.776,124.428,175.776z"/>
</g>
</svg>
