<?xml version="1.0" encoding="utf-8"?>
<!-- Generator: Adobe Illustrator 16.0.0, SVG Export Plug-In . SVG Version: 6.00 Build 0)  -->
<!DOCTYPE svg PUBLIC "-//W3C//DTD SVG 1.1//EN" "http://www.w3.org/Graphics/SVG/1.1/DTD/svg11.dtd">
<svg version="1.1" id="Layer_1" xmlns="http://www.w3.org/2000/svg" xmlns:xlink="http://www.w3.org/1999/xlink" x="0px" y="0px"
	 width="1569.412px" height="1234.411px" viewBox="0 0 1569.412 1234.411" enable-background="new 0 0 1569.412 1234.411"
	 xml:space="preserve">
<g>
	<path d="M1188.868,0.381c109.447,0,218.893,0.466,328.332-0.306c29.795-0.211,52.342,20.011,52.211,52.17
		c-0.771,189.597-0.375,379.198-0.379,568.798c-0.004,32.646-18.224,50.877-50.955,50.88
		c-220.121,0.015-440.242,0.017-660.363-0.003c-32.715-0.002-50.903-18.255-50.903-50.93c-0.002-189.906-0.002-379.815,0-569.724
		c0-32.649,18.217-50.872,50.955-50.879C968.131,0.369,1078.5,0.381,1188.868,0.381z M852.975,625.16c223.414,0,446.406,0,669.595,0
		c0-167.571,0-334.7,0-501.805c-223.564,0-446.32,0-669.595,0C852.975,290.824,852.975,457.73,852.975,625.16z M1325.01,31.583
		c-16.156,0.056-30.146,13.799-30.348,29.816c-0.205,16.463,13.879,30.538,30.533,30.505c16.692-0.033,30.44-14.037,30.137-30.703
		C1355.04,44.898,1341.346,31.524,1325.01,31.583z M1462.649,61.626c-0.021,16.773,13.768,30.47,30.493,30.282
		c16.22-0.182,29.951-13.887,30.109-30.048c0.164-16.359-14.174-30.447-30.791-30.26
		C1476.053,31.783,1462.667,45.262,1462.649,61.626z M1438.899,61.583c-0.103-16.669-13.365-29.994-29.871-30.015
		c-16.935-0.02-30.097,13.522-29.943,30.808c0.148,16.487,13.754,29.76,30.277,29.534
		C1425.942,91.687,1438.997,78.277,1438.899,61.583z"/>
	<path d="M1125.633,453.285c-13.014-5.595-24.781-10.63-36.524-15.718c-40.929-17.737-81.798-35.604-122.822-53.104
		c-5.312-2.269-7.631-4.829-7.277-10.756c0.65-10.729-3.166-23.898,1.802-31.573c4.911-7.601,18.284-9.868,28.09-14.146
		c42.018-18.324,84.08-36.537,126.143-54.763c3.047-1.318,6.193-2.413,10.572-4.108c0,15.001,0.34,29.024-0.324,42.998
		c-0.113,2.429-4.021,5.7-6.873,6.822c-33.184,13.087-66.498,25.835-99.775,38.694c-2.184,0.846-4.289,1.89-7.561,3.343
		c36.068,14.215,70.9,28.127,105.916,41.563c6.367,2.442,9.211,5.318,8.82,12.509C1125.155,427.236,1125.633,439.5,1125.633,453.285
		z"/>
	<path d="M1250.208,269.461c14.459,6.162,27.424,11.633,40.342,17.204c39.56,17.052,79.047,34.275,118.715,51.066
		c5.781,2.446,7.98,5.36,7.576,11.603c-0.68,10.421,3.072,23.221-1.741,30.693c-4.767,7.389-17.755,9.605-27.275,13.769
		c-42.291,18.488-84.627,36.868-126.961,55.261c-3.017,1.312-6.113,2.446-10.623,4.235c0-15.267-0.342-29.301,0.344-43.285
		c0.111-2.314,4.373-5.292,7.316-6.47c32.276-12.899,64.686-25.495,97.047-38.203c3.078-1.205,6.08-2.609,10.33-4.439
		c-36.252-14.079-71.113-27.916-106.248-41.021c-7.119-2.657-9.373-6.018-8.984-13.324
		C1250.663,294.886,1250.208,283.168,1250.208,269.461z"/>
	<path d="M1161.352,484.829c-13.055-0.021-18.885-7.002-15.766-20.694c8.816-38.698,18.062-77.298,27.312-115.895
		c7.67-32.021,15.282-64.06,23.666-95.893c1.573-5.979,5.491-13.473,10.44-15.834c4.98-2.374,13.926-1.142,18.637,2.121
		c3.693,2.559,5.746,11.028,4.773,16.162c-3.762,19.93-8.953,39.593-13.74,59.327c-12.396,51.135-24.754,102.277-37.369,153.358
		C1175.967,481.015,1171.487,484.842,1161.352,484.829z"/>
</g>
<g>
	<path fill="#FFFFFF" d="M320.036,486.441"/>
	<path d="M320.036,486.433"/>
</g>
<g>
	<path d="M492.095,1122.714c-5.898-1.266-8.562,0.961-10.5,5.938c-3.674,9.426-8.406,18.445-12.07,27.883
		c-1.258,3.23-1.566,7.426-0.719,10.777c4.004,15.965,8.658,31.77,12.879,47.676c2.012,7.566-1.947,14.27-9.18,16.32
		c-6.938,1.969-13.949-1.371-15.98-8.625c-5.648-20.285-11.031-40.641-15.992-61.102c-0.738-3.047,0.871-6.992,2.211-10.172
		c5.363-12.641,10.52-25.418,16.803-37.602c4.404-8.547,3.725-17.215,3.271-26.004c-0.613-11.789-1.736-23.559-2.627-35.336
		c-0.334-4.371-0.248-8.824-1.189-13.062c-0.355-1.621-2.82-3.391-4.684-3.965c-10.684-3.316-21.35-6.727-32.225-9.289
		c-11.236-2.637-20.779-7.617-29.039-15.766c-8.707-8.586-18.502-16.078-27.018-24.84c-5.27-5.426-4.402-12.199,0.395-17.051
		c4.566-4.609,11.729-5.379,17.271-0.891c10.713,8.684,20.965,17.93,31.594,26.715c2.506,2.066,5.6,3.727,8.697,4.715
		c10.059,3.199,20.344,5.672,30.328,9.055c8.543,2.887,17.016,1.102,25.531,0.848c0.4-0.012,0.824-0.469,1.186-0.402
		c16.256,2.746,24.076-10.324,34.521-18.434c2.492-1.941,4.473-4.617,7.105-6.293c10.16-6.445,15.008-15.562,15.783-27.516
		c0.475-7.344,2.158-14.637,3.631-21.887c1.502-7.363,7.562-12.062,13.867-11.215c7.715,1.051,12.848,6.652,11.809,14.562
		c-1.953,14.84-4.531,29.629-7.25,44.355c-0.492,2.676-2.438,5.496-4.512,7.375c-11.24,10.203-22.385,20.566-34.281,29.961
		c-5.469,4.328-6.785,8.848-6.289,15.188c1.873,23.922,3.93,47.852,4.938,71.816c0.414,9.816-1.061,19.836-2.738,29.586
		c-2.473,14.43-1.152,27.742,6.043,40.863c6.375,11.613,11.338,24.004,16.656,36.18c4.555,10.449-2.84,20.867-13.605,19.395
		c-6.102-0.824-9.195-5.332-11.365-10.395c-3.213-7.504-5.752-15.309-9.111-22.738c-3.242-7.172-6.779-14.273-10.883-20.984
		c-6.537-10.668-6.162-22.102-5.055-33.801C490.97,1137.41,491.479,1130.238,492.095,1122.714z"/>
	<path d="M210.771,713.328c1.285,12.754,2.875,23.016,3.15,33.312c0.193,7.656-0.26,15.648-2.287,22.973
		c-4.414,15.961-10.17,31.547-15.082,47.371c-3.363,10.814-16.652,13.176-23.002,5.859c-4.08-4.688-2.998-10.02-1.564-14.969
		c4.145-14.309,9.32-28.336,13.023-42.75c1.883-7.348,2.188-15.312,1.926-22.961c-0.336-9.887-1.982-19.727-3.027-29.594
		c-1.453-13.812,3.695-26.594,6.541-39.688c4.67-21.543,10.02-42.934,15.139-64.367c1.783-7.5,6.354-10.273,13.936-8.539
		c9.205,2.109,18.541,3.832,27.564,6.537c10.32,3.092,19.416-1.381,28.871-3.621c1.453-0.346,2.814-2.799,3.488-4.557
		c3.123-8.23,5.891-16.598,8.973-24.848c2.682-7.16,9.07-10.145,16.123-7.777c7.424,2.496,10.982,9.035,8.568,16.418
		c-3.898,11.977-7.561,24.07-12.348,35.695c-1.527,3.713-5.828,7.064-9.68,8.859c-5.021,2.34-10.834,2.965-16.707,4.43
		c4.162,5.189,8.439,7.287,14.898,4.637c10.098-4.145,20.445-7.709,30.75-11.352c8.18-2.883,15.01-0.168,17.988,6.863
		c3.039,7.15,0.152,13.984-8.328,17.488c-11.066,4.566-22.4,8.449-33.617,12.617c-2.365,0.879-4.785,1.629-7.105,2.613
		c-6.615,2.809-12.68,1.992-18.488-2.225c-5.102-3.703-10.404-7.123-16.24-11.098c-3.58,15.057-7.061,29.307-10.178,43.635
		c-0.23,1.082,2.004,3.387,3.557,4.062c9.037,3.98,18.135,7.84,27.363,11.352c6.141,2.334,9.396,6.564,10.936,12.777
		c4.32,17.523,8.717,35.025,13.344,52.465c2.625,9.875-1.754,16.709-8.008,18.738c-8.152,2.645-15.207-2.051-17.766-11.662
		c-3.98-15.025-7.693-30.119-11.738-45.127c-0.531-1.961-1.957-4.535-3.625-5.203C242.837,725.535,227.431,719.73,210.771,713.328z"
		/>
	<path d="M674.099,905.843c-5.156,3.812-9.223,8.652-14.297,10.195c-9.301,2.828-19.156,3.965-28.844,5.32
		c-6.457,0.902-13.023,1.199-19.559,1.316c-6.602,0.129-11.461-4.793-11.898-11.395c-0.477-7.121,4.211-13.426,10.785-13.988
		c8.037-0.703,16.156-0.625,24.133-1.688c13.312-1.77,23.561-9.297,32.654-18.719c7.688-7.98,6.727-14.457-2.889-20.633
		c-7.26-4.668-14.762-9.152-21.242-14.77c-8.203-7.113-17.494-12.617-25.943-19.324c-9.023-7.172-9.205-18.629,0.084-23.236
		c4.992-2.475,10.312-2.205,14.811,1.479c8.426,6.91,16.252,14.609,25.102,20.881c8.93,6.326,19.523,10.404,28.061,17.145
		c9.686,7.654,19.928,5.803,30.51,5.334c7.623-0.336,10.746,2.223,11.789,9.934c1.102,8.156,1.576,16.398,2.127,24.625
		c1.354,20.434,1.834,40.953,4.137,61.277c1.975,17.438,5.816,34.684,9.135,51.945c3.912,20.359,8.215,40.645,12.188,60.988
		c1.604,8.203-3.838,14.684-11.754,16.32c-6.064,1.27-13.119-4.273-14.689-11.738c-2.355-11.266-4.424-22.594-6.578-33.914
		c-3.852-20.145-7.607-40.312-11.68-60.414c-0.332-1.664-2.748-4.145-4.125-4.102c-3.191,0.105-8.174,0.566-9.207,2.559
		c-5.582,10.781-10.617,21.91-14.867,33.27c-1.297,3.457-0.014,8.199,0.977,12.137c3.697,14.578,7.891,29.043,11.625,43.617
		c1.365,5.309,1.213,10.816-3.551,14.559c-4.365,3.422-9.891,5.293-14.637,1.707c-3.406-2.574-6.568-6.723-7.746-10.777
		c-5.473-18.859-10.5-37.875-14.982-56.992c-0.85-3.605,0.891-8.215,2.49-11.918c5.889-13.664,11.945-27.27,18.492-40.625
		c3.855-7.879,0.711-15.719,1.107-23.547C676.073,917.339,674.772,911.917,674.099,905.843z"/>
	<path d="M92.212,978.406c-2.09,8.43-4.479,17.137-6.285,25.961c-0.443,2.18,0.508,5.039,1.672,7.086
		c7.242,12.672,14.77,25.188,22.125,37.793c6.158,10.562,6.006,13.188-1.551,22.809c-11.406,14.508-22.879,28.957-34.375,43.402
		c-5.668,7.09-13.797,8.395-19.961,3.316c-5.988-4.93-6.371-12.77-0.838-19.812c9.619-12.203,19.146-24.504,29.104-36.438
		c2.449-2.941,2.184-5.34,0.697-7.863c-4.6-7.805-9.49-15.441-14.232-23.164c-3.625-5.898-3.604-5.91-12.227-6.414
		c2.469,9.059,4.695,17.957,7.34,26.742c2.211,7.363,1.178,13.512-3.93,19.645c-12.281,14.762-24.014,29.965-36.002,44.961
		c-4.205,5.266-12.193,6.836-17.115,2.805c-7.637-6.273-8.445-12.703-3.629-19.152c7.244-9.668,14.961-18.98,22.469-28.449
		c3.156-3.988,6.561-7.82,9.338-12.062c1.158-1.777,1.783-4.613,1.295-6.633c-2.703-11.074-6.109-21.973-8.664-33.078
		c-0.953-4.16-1.152-8.906-0.199-13.035c6.938-30.188,14.166-60.316,21.504-90.418c1.732-7.094,4.695-9.094,11.939-7.703
		c12.006,2.312,23.941,5.039,35.799,8.062c5.004,1.277,7.102,5.156,7.396,10.574c0.188,3.441,1.594,7.277,3.666,10.027
		c5.074,6.719,11.254,12.645,16.238,19.43c3.895,5.297,8.49,8.266,14.898,9.684c8.824,1.965,17.516,4.688,26.168,7.391
		c10.525,3.297,14.344,15.672,6.354,22.188c-3.211,2.613-8.9,3.047-13.455,3.035c-18.902-0.059-36.359-6.941-53.953-12.715
		C99.71,985.031,96.396,981.371,92.212,978.406z"/>
	<path d="M377.134,625.773c-4.316,6.486-8.516,12.801-12.906,19.383c-2.852-1.551-5.393-2.926-8.559-4.637
		c3.055-7.055,6.027-13.918,8.953-20.695c-0.279-0.5-0.398-0.957-0.688-1.215c-8.627-7.676-8.633-7.676-18.062-1.242
		c-3.15,2.148-6.281,4.32-9.844,6.762c-1.953-2.414-3.891-4.781-6.215-7.641c4.037-3.906,7.57-7.844,11.637-11.133
		c4.611-3.727,6.094-7.254,1.406-11.906c-1.012-1-1.555-2.473-2.561-4.137c-7.209,1.441-14.414,2.879-22.184,4.43
		c-1.006-2.898-2.014-5.801-3.201-9.219c7.455-2.973,14.594-5.82,21.727-8.676c-0.465-4.203-0.883-7.953-1.381-12.367
		c-6.639-1.475-13.529-3.008-21.037-4.672c0-2.688,0-5.746,0-9.541c4.98,0,10.066-0.492,15.023,0.129
		c5.93,0.738,9.219-1.076,10.008-7.115c0.189-1.438,0.797-2.82,1.379-4.848c-4.4-2.875-8.984-5.785-13.469-8.84
		c-3.105-2.117-5.578-4.406-3.281-8.836c2.465-4.77,5.461-2.316,8.391-1.055c5.012,2.145,9.959,4.418,14.566,6.465
		c0.758-0.406,1-0.461,1.121-0.617c7.578-9.559,7.551-9.539,0.236-19.605c-1.969-2.703-3.715-5.562-5.684-8.527
		c2.59-2.152,4.84-4.016,7.465-6.191c4.16,4.242,8.713,7.887,11.936,12.469c2.98,4.232,5.422,4.293,9.148,1.596
		c1.826-1.326,4.004-2.182,6.234-3.365c-1-4.758-1.898-9.291-2.908-13.801c-2.006-8.965-2.037-8.957,7.717-11.578
		c2.268,5.695,4.812,11.414,6.797,17.316c1.07,3.176,2.719,5.008,5.898,3.934c3.33-1.141,8.516,1.059,9.412-5.066
		c0.855-5.801,2.156-11.531,3.342-17.723c2.988,0,6.08,0,9.609,0c0,8.023,0,15.613,0,23.371c4.121,1.252,7.896,2.398,11.98,3.637
		c4.234-6.426,8.398-12.734,12.77-19.371c2.938,1.809,5.562,3.43,8.484,5.223c-3.133,7.102-6.072,13.785-9.002,20.4
		c2.42,2.533,4.443,5.307,7.113,7.154c1.143,0.801,3.959,0.24,5.424-0.662c5.309-3.271,10.363-6.947,16.033-10.834
		c2.076,2.395,4.096,4.717,6.588,7.588c-4.723,4.393-8.871,8.963-13.762,12.537c-3.031,2.219-2.543,3.66-1.57,6.633
		c2.281,6.996,6.309,8.812,13.15,6.473c4.16-1.43,8.635-1.945,13.643-3.02c1.023,3.055,2.002,5.949,3.16,9.379
		c-7.195,2.824-14.225,5.582-21.441,8.418c0,1.617,0.066,3.293-0.008,4.961c-0.234,5.211,0.914,8.68,7.352,9.09
		c5.527,0.359,10.957,2.27,16.496,3.504c-0.633,3.52-1.113,6.18-1.576,8.77c-6.377,0-12.502,0.281-18.592-0.074
		c-6.883-0.406-5.352,5.379-6.543,8.789c-0.535,1.531,0.688,4.625,2.109,5.707c4.852,3.725,10.145,6.871,15.816,10.605
		c-1.453,2.672-2.926,5.348-4.684,8.555c-7.141-3.074-14.055-6.055-20.863-8.988c-0.514,0.314-0.957,0.457-1.191,0.758
		c-7.348,9.109-7.336,9.105-0.434,19.047c1.93,2.764,3.781,5.566,5.6,8.266c-6.412,7.623-6.877,7.656-13.064,1.086
		c-0.576-0.613-1.117-1.277-1.684-1.91c-8.391-9.309-8.391-9.307-19.664-2.955c1.422,7.041,2.867,14.225,4.436,21.971
		c-2.822,1.125-5.654,2.254-9.154,3.648c-2.436-6.262-4.449-12.213-7.109-17.861c-0.789-1.686-3.898-3.936-5.029-3.504
		c-3.479,1.322-9.715-2.518-10.166,5.229c-0.277,4.812-1.324,9.645-2.666,14.285c-0.436,1.535-3.115,3.723-4.307,3.465
		c-2.133-0.455-5.254-2.293-5.574-3.996c-0.771-4.094-0.426-8.471-0.031-12.688c0.488-5.145-0.645-8.555-6.564-8.969
		C380.866,627.593,379.146,626.515,377.134,625.773z M402.724,615.851c28.734,0.238,51.984-22.594,52.902-50.625
		c0.91-27.945-21.803-53.602-50.719-54.242c-30.855-0.68-54.828,22.008-54.695,52.977
		C350.337,593.718,372.993,615.648,402.724,615.851z"/>
	<path d="M346.05,717.585c8.092,0,15.502,0,22.596,0c0.598-0.555,1.064-0.773,1.148-1.082c2.855-11.611,2.848-11.611-8.934-19.285
		c-7.461-4.852-7.461-4.852-2.598-13.117c5.623,2.395,11.48,4.559,17.004,7.371c3.004,1.531,5.988,1.195,6.836-1.215
		c1.234-3.5,7.332-5.734,3.275-10.82c-2.217-2.797-4.365-5.652-6.424-8.566c-5.004-7.09-4.969-7.111,2.711-13.273
		c5.289,5.504,10.65,11.072,15.789,16.418c0.645,0,0.895,0.078,1.061-0.012c10.9-5.477,10.924-5.486,8.379-17.402
		c-0.736-3.471-1.686-6.902-2.521-10.281c8.68-4.551,8.984-4.434,12.189,3.949c0.971,2.535,2.592,4.957,2.982,7.562
		c1.051,7.102,6.07,6.512,10.951,6.047c4.92-0.469,5.369-4.258,5.893-8.234c0.621-4.73,1.83-9.387,2.838-14.316
		c3.188,0,6.264,0,9.504,0c-0.34,4.879-0.51,9.445-1.006,13.971c-0.68,6.205,1.23,10.268,8.012,11.002
		c1.633,0.18,3.219,0.809,5.172,1.316c4.043-6.297,8.098-12.637,12.092-18.859c8.982,3.004,9.127,3.316,5.596,11.523
		c-0.496,1.16-0.992,2.316-1.48,3.48c-4.691,11.137-4.691,11.137,6.09,18.139c6.004-4.182,12.164-8.475,18.773-13.08
		c2.006,2.547,3.906,4.957,6.004,7.617c-4.738,4.504-9.02,8.898-13.66,12.863c-3.082,2.641-2.375,4.895-0.426,7.562
		c2.172,2.945,2.426,8.227,8.355,6.375c3.188-0.992,6.492-1.562,9.734-2.352c8.498-2.078,8.498-2.086,10.922,7.156
		c-7.051,2.961-14.152,5.945-21.375,8.98c0.529,4.27,1.033,8.359,1.539,12.504c5.059,1.09,9.941,3.035,14.816,2.992
		c7.453-0.062,8.781,3.309,6.943,10.469c-5.939,0-12.232,0.148-18.514-0.066c-3.094-0.105-5.992,0.441-5.941,3.785
		c0.062,3.703-4.666,8.086,1.229,11.246c3.152,1.689,6.174,3.668,9.188,5.598c7.436,4.762,7.441,4.902,1.793,12.719
		c-7.029-3.008-14.143-6.047-21.211-9.066c-2.506,3.406-4.92,6.689-7.533,10.242c3.836,5.812,7.793,11.816,12.066,18.293
		c-4.234,0.336-7.273,0.582-10.299,0.82c-0.41,0.762-0.811,1.531-1.225,2.293c-3.5-4.379-6.996-8.75-10.219-12.793
		c-12.816,6.074-12.801,6.07-9.68,19.953c0.633,2.824,1.016,5.707,1.582,8.902c-3.023,1.016-5.516,1.848-8.227,2.754
		c-2.477-5.84-5.383-11.199-7-16.93c-1.605-5.648-5.604-4.383-9.082-4.055c-3.6,0.336-6.682,1.758-6.846,6.504
		c-0.152,3.945-1.205,7.852-1.838,11.641c-11.137,2.453-11.533,2.168-10.748-7.5c0.844-10.312,0.838-10.305-8.811-13.537
		c-0.973-0.326-1.926-0.744-3.125-1.209c-4.254,6.531-8.443,12.988-12.75,19.609c-3.113-1.633-5.672-2.969-8.328-4.371
		c2.23-5.477,3.6-10.957,6.518-15.426c3.291-5.039,1.357-7.531-2.607-10.133c-1.746-1.152-3.398-2.449-5.156-3.727
		c-6.322,4.332-12.488,8.562-18.953,13c-2.074-2.691-3.857-4.984-5.992-7.75c4.195-3.844,7.842-7.691,12.008-10.871
		c5.125-3.902,3.094-7.516,0.887-11.957c-2.123-4.277-4.596-4.641-8.613-3.105c-2.688,1.035-5.707,1.152-8.568,1.754
		c-8.119,1.715-8.109,1.734-10.557-7.168c5.461-2.275,10.867-5.059,16.59-6.787c7.305-2.205,3.047-7.678,3.598-11.607
		c0.145-1.047-2.938-3.207-4.84-3.756c-4.395-1.252-8.98-1.826-13.492-2.674C344.103,726.48,345.933,722.054,346.05,717.585z
		 M382.759,729.886c0.832,30.449,21.938,52.219,50.432,53.123c33.682,1.076,54.35-23.932,55.174-51.236
		c0.895-29.422-20.791-53.273-50.254-54.324C403.308,676.207,383.138,703.343,382.759,729.886z"/>
	<path d="M278.013,807.574c2.611-2.062,4.932-3.898,7.441-5.895c5.293,5.434,10.598,10.863,15.828,16.223
		c4.328-2.047,8.242-3.906,12.178-5.76c-1.441-5.92-3.326-11.955-4.189-18.143c-0.266-1.906,1.855-5.316,3.637-5.963
		c1.555-0.564,5.027,1.268,6.109,3.006c2.213,3.51,3.678,7.59,4.926,11.598c1.344,4.363,3.062,6.76,8.086,4.379
		c1.781-0.84,4.156-0.398,6.863-0.586c1.041-5.965,2.354-11.883,2.992-17.871c0.418-3.895,2.012-4.941,5.715-4.824
		c3.711,0.117,4.719,1.695,4.615,5.105c-0.186,6.141-0.057,12.289-0.057,18.035c0.457,0.543,0.561,0.77,0.713,0.832
		c11.432,4.312,11.432,4.312,18.053-6.094c0.562-0.898,1.148-1.781,1.707-2.672c4.621-7.324,4.621-7.324,12.957-2.436
		c-1.758,4.104-3.199,8.508-5.438,12.455c-3.455,6.105-3.398,10.945,3.367,14.508c1.1,0.574,2.012,1.492,2.328,1.734
		c4.104-1.52,7.594-2.812,11.262-4.172c-1.838-4.324,3.617-6,6.785-6.664c2.418-0.504,5.639,2.904,9.355,5.07
		c-5.551,4.855-10.113,8.328-13.953,12.465c-1.594,1.715-3.07,5.844-2.152,7.131c2.23,3.131,1.75,10.279,9.168,7.662
		c3.328-1.18,6.984-1.41,10.453-2.211c7.926-1.83,8.824-1.176,9.457,7.23c-4.643,1.955-9.125,4.559-13.957,5.705
		c-6.799,1.619-7.395,5.768-6.172,11.295c0.363,1.641,0.816,3.262,1.271,5.055c7.334,1.254,14.719,2.516,22.666,3.879
		c-0.488,3.031-0.98,6.043-1.5,9.176c-6.191,0-11.926,0.281-17.609-0.094c-4.33-0.285-6.906,0.289-6.699,5.531
		c0.078,2.121-1.461,4.309-2.375,6.762c6.221,3.949,12.418,7.898,19.02,12.094c-1.141,2.914-2.242,5.715-3.562,9.078
		c-7.314-3.078-14.184-5.961-21.354-8.973c-2.717,3.305-5.379,6.547-8.262,10.066c4.23,5.996,8.461,11.996,12.678,17.977
		c-5.164,7.098-7.164,7.184-12.926,0.738c-1.691-1.902-3.83-3.438-5.34-5.441c-3.051-4.066-5.777-4.688-10.561-1.836
		c-4.359,2.598-6.322,4.336-4.342,9.676c1.867,5.016,2.301,10.559,3.34,15.73c-8.373,3.738-8.984,3.504-11.959-4.129
		c-0.834-2.156-1.676-4.312-2.557-6.453c-3.051-7.453-5.307-8.688-13.297-6.719c-1.262,0.316-2.801,1.844-3.148,3.105
		c-0.826,3.023-0.984,6.227-1.5,9.344c-0.516,3.113-1.125,6.211-1.811,9.855c-2.779,0-5.812,0-9.408,0c0-7.57,0-15.129,0-22.195
		c-0.811-0.777-1.059-1.23-1.402-1.305c-11.473-2.684-11.455-2.668-18.031,7.715c-1.691,2.68-3.512,5.27-5.729,8.566
		c-2.564-1.352-5.236-2.777-8.344-4.418c3.029-7.277,5.982-14.355,8.9-21.332c-10.285-8.012-10.297-8.027-20.561-0.945
		c-2.725,1.883-5.369,3.891-8.295,6.008c-2.102-2.309-4.078-4.461-6.594-7.207c5.973-5.316,11.666-10.371,16.383-14.566
		c0-2.016,0.074-2.27-0.012-2.434c-5.637-11.191-5.637-11.191-17.801-8.172c-2.244,0.555-4.506,1.035-6.723,1.676
		c-4.523,1.312-4.932-2.492-5.516-5.039c-0.172-0.785,2.74-3.152,4.404-3.336c7.646-0.883,15.908-9.766,15.482-16.453
		c-0.27-4.441-2.82-5.734-6.309-6.375c-5.75-1.055-11.529-1.934-17.602-2.934c0.516-3.301,0.93-5.961,1.379-8.848
		c4.965,0,9.908-0.117,14.844,0.023c8.148,0.234,9.312-0.598,11.121-10.508c0.918-4.996-3.93-5.477-6.812-7.352
		c-3.832-2.492-7.742-4.871-11.518-7.242c3.107-7.414,4.863-8.176,11.533-5.436c1.945,0.807,3.875,1.666,5.816,2.496
		c7.822,3.363,11.352,2.189,14.719-5.33c0.512-1.152-0.098-3.262-0.891-4.465C285.839,818.445,282.095,813.347,278.013,807.574z
		 M287.005,873.597c-1.166,28.988,24.844,54.289,54.172,52.98c27.359-1.219,52.148-21.695,51.07-54.18
		c-1.023-31.018-21.904-51.023-53.531-51.223C309.745,820.988,286.935,843.882,287.005,873.597z"/>
	<path d="M600.218,802.343c2.092,2.918,3.775,5.262,5.904,8.219c-4.438,3.082-8.629,5.996-13.566,9.43
		c0.256,1.027,0.961,3.473,1.449,5.965c0.723,3.703,2.887,4.068,6.105,3.215c2.211-0.586,4.602-0.461,6.898-0.785
		c6.475-0.914,8.062,2.578,7.588,8.129c-5.438,1.809-10.711,3.562-16.189,5.381c0,2.654,0,5.389,0,8.627
		c3.852,1.109,7.74,2.668,11.789,3.262c4.207,0.627,4.82,2.754,4.693,6.449c-0.146,4.316-2.754,4.031-5.625,3.859
		c-4.186-0.234-8.385-0.438-12.809-0.68c-3.65,4.824-4.201,9.129,2.607,12.535c2.936,1.469,5.314,4.078,8.055,6.246
		c-1.848,2.676-3.473,5.051-5.344,7.762c-5.387-2.742-10.402-5.297-15.754-8.031c-1.75,1.996-3.545,4.066-5.617,6.434
		c2.723,4.711,5.623,9.73,8.699,15.062c-2.535,1.852-4.875,3.559-7.822,5.703c-3.193-3.688-6.105-7.555-9.584-10.805
		c-1.232-1.156-4.188-1.602-5.744-0.938c-1.561,0.66-3.256,3.109-3.281,4.797c-0.064,4.77,0.691,9.559,1.186,14.891
		c-3.422,0.285-6.297,0.527-9.504,0.801c-1.336-4.266-2.24-8.344-3.938-12.059c-0.801-1.762-2.973-3.703-4.785-4.008
		c-2.902-0.473-5.684,0.258-6.184,4.484c-0.48,4.082-2.006,8.062-3.248,12.738c-3.111-0.586-6.061-1.168-9.744-1.871
		c0.492-4.242,1.344-8.184,1.258-12.109c-0.059-2.223-1.1-5-2.682-6.477c-2.686-2.523-5.654-1.98-7.916,1.32
		c-2.375,3.461-4.961,6.797-7.635,10.434c-2.936-1.773-5.568-3.352-8.307-5.004c1.641-3.188,2.754-6.211,4.568-8.711
		c3.814-5.262,3.689-9.512-2.752-13.016c-4.711,2.684-9.762,5.562-15.107,8.602c-1.854-2.438-3.627-4.77-5.672-7.457
		c4.568-3.973,9.152-7.953,13.406-11.648c-1.283-8.051-5.561-9.188-12.275-6.855c-2.23,0.773-5.514-0.008-7.719-1.191
		c-1.352-0.715-2.105-3.543-2.105-5.43c0-1.008,2-2.332,3.35-2.961c1.689-0.785,3.623-1.148,5.49-1.418
		c6.586-0.93,8.924-4.527,6.98-11.168c-5.035-1.465-10.238-2.98-16.242-4.727c0.373-3.035,0.762-6.191,1.109-8.996
		c6.414,0.336,11.832,0.621,17.465,0.912c1.137-2.33,2.211-4.549,3.607-7.408c-4.604-3.629-9.199-7.242-14.197-11.178
		c1.576-2.6,3.137-5.158,4.969-8.178c3.203,1.686,6.195,2.812,8.668,4.648c5.332,3.973,9.492,3.664,12.801-3
		c-2.586-4.604-5.348-9.516-8.453-15.047c2.562-1.777,5.062-3.5,7.891-5.447c3.883,4.596,7.555,8.932,11.133,13.17
		c8.572-2.787,8.689-3.027,7.152-11.578c-0.516-2.879-0.812-5.789-1.188-8.566c9.234-3.066,9.199-3.059,11.807,5.48
		c0.846,2.805,1.893,5.547,2.803,8.184c6.889,2.285,9.965-0.652,10.885-7.125c0.412-2.883,1.33-5.695,2.213-9.312
		c3.102,0.502,6.094,0.98,9.6,1.543c-0.48,5.027-1.418,9.6-1.113,14.09c0.129,1.922,2.549,4.324,4.514,5.254
		c1.316,0.615,4.25-0.438,5.459-1.695c3.047-3.176,5.514-6.891,8.521-10.785c2.816,1.762,5.26,3.285,8.27,5.152
		c-2.225,4.203-4.723,8.105-6.324,12.338c-0.664,1.744-0.09,4.92,1.17,6.162c1.301,1.27,4.498,1.863,6.221,1.164
		C592.114,807.48,595.786,804.898,600.218,802.343z M542.442,807.968c-17.59-1.551-27.35,12.645-37.697,24.859
		c-2.51,2.973-1.088,9.664-0.752,14.59c1.525,22.262,16.754,39.059,39.133,39.398c23.879,0.371,40.463-16.875,40.604-38.859
		C583.882,824.179,565.946,808.085,542.442,807.968z"/>
	<path d="M253.073,935.542c-4.746,7.754-6.256,8.188-15.564,3.387c-3.947-2.051-7.102-2.883-9.199,1.871
		c-0.584,1.312-0.781,3.367-0.141,4.551c2.285,4.219,4.996,8.223,7.789,12.688c-2.328,1.797-4.77,3.672-7.598,5.852
		c-4.094-4.527-8.035-8.871-11.891-13.125c-9.008,4.461-8.504,0.184-4.729,20.461c-8.287,4.297-9.209,3.938-12.375-4.902
		c-0.562-1.582-0.619-3.652-1.686-4.699c-1.496-1.473-3.793-3.129-5.625-3.012c-1.836,0.117-4.516,1.984-5.123,3.691
		c-1.525,4.277-2.086,8.895-3.053,13.43c-3.369-0.422-6.027-0.762-8.914-1.125c0-4.777,0.371-9.434-0.184-13.977
		c-0.225-1.84-2.188-4.316-3.902-4.879c-1.66-0.559-4.684,0.34-5.932,1.688c-3.115,3.379-5.564,7.383-8.564,11.535
		c-2.637-2.207-5.008-4.211-7.484-6.297c2.338-4.957,4.566-9.691,7.072-15.008c-2.127-1.809-4.318-3.672-6.553-5.566
		c-2.902,1.801-5.564,3.43-8.201,5.098c-7.383,4.676-7.377,4.684-12.033-3.117c3.801-4.211,7.625-8.438,11.898-13.188
		c-0.711-1.414-1.922-3.809-3.324-6.594c-5.457,0.902-10.969,1.801-17.281,2.836c-0.857-2.707-1.785-5.605-2.861-8.965
		c5.373-2.02,10.643-4.012,16.139-6.082c1.334-5.672,1.242-10.406-6.811-10.27c-1.854,0.035-4.494-0.023-5.416-1.156
		c-1.801-2.207-2.633-5.191-3.863-7.855c1.838-0.727,3.648-1.895,5.553-2.094c2.936-0.297,6.047,0.598,8.857-0.039
		c1.83-0.41,4.104-2.355,4.645-4.098c0.561-1.785-0.119-4.715-1.385-6.145c-2.029-2.293-5.377-3.41-7.406-5.695
		c-1.197-1.348-1.939-4.742-1.088-5.879c1.164-1.559,4.328-2.941,6.092-2.449c3.936,1.098,7.541,3.406,11.291,5.203
		c6.961-6.082,6.961-6.082,1.25-14.66c-5.135-7.711-5.135-7.711,4.02-12.398c1.812,2.141,4.117,4.395,5.832,7.039
		c3.781,5.814,8.027,5.684,12.883,1.549c-2.047-8.471,0.516-17.814,6.055-19.678c1.535,4.223,3.352,8.406,4.531,12.766
		c1.154,4.277,4.309,4.613,7.277,3.621c1.77-0.588,3.465-3.039,4.109-5.016c1.344-4.074,1.957-8.383,2.965-13.051
		c3.355,0.789,5.953,1.391,7.855,1.836c3.414,7.051-5.396,18.15,8.938,20.098c3.186-4.465,6.574-9.207,9.883-13.84
		c8.73,3.574,8.73,3.574,0.973,20.238c3.205,1.918,4.785,7.723,10.459,3.383c3.342-2.555,7.037-4.664,10.541-6.959
		c7.391,6.998,7.398,7.006,0.158,13.369c-2.227,1.957-4.465,3.902-6.643,5.801c3.145,8.066,3.145,8.066,20.812,5.086
		c0.887,2.629,1.805,5.355,2.914,8.66c-3.148,1.301-6.104,3.152-9.285,3.695c-6.779,1.168-8.783,4.684-6.57,11.309
		c5.473,1.254,11.145,2.566,17.387,3.996c-0.627,3.164-1.189,5.965-1.824,9.176c-4.578,0-9.078-0.438-13.43,0.184
		c-2.189,0.316-4.949,2.16-5.82,4.066c-0.609,1.324,1.059,4.48,2.578,5.828C245.329,930.593,249.177,932.835,253.073,935.542z
		 M188.505,943.218c19.814,0.477,39.672-14.461,39.514-39.855c-0.139-21.836-15.271-39.434-39.463-38.781
		c-25.07,0.684-38.432,13.211-39.488,38.918C148.157,925.707,166.083,943.207,188.505,943.218z"/>
	<path d="M204.29,561.433c-0.066-17.824,12.689-29.883,31.334-29.605c14.658,0.213,27.33,13.941,27.365,29.637
		c0.043,16.617-12.723,29.227-28.938,29.98C218.292,592.183,201.462,576.3,204.29,561.433z"/>
	<path d="M709.173,833.48c-15.281-0.102-29.584-14.188-29.273-29.52c0.375-18.477,14.777-30.359,30.059-30.062
		c17.391,0.336,29.309,12.652,29.449,29.258C739.577,821.375,726.522,833.027,709.173,833.48z"/>
	<path d="M506.431,971.093c0.078,16.797-12.641,29.453-29.551,29.418c-15.898-0.047-28.689-13.113-29.184-29.008
		c-0.469-15.41,10.619-30.922,31.316-30.422C494.392,941.449,508.38,955.687,506.431,971.093z"/>
	<path d="M85.36,902.328c-16.811-0.055-28.996-12.688-28.928-30.008c0.057-15.695,13.018-28.305,28.623-28.711
		c17.068-0.438,30.707,14.916,30.285,30.363C114.897,889.789,99.149,904.121,85.36,902.328z"/>
	<path d="M402.997,605.296c-23.771-0.002-41.938-18.316-41.895-42.266c0.041-21.793,16.59-41.699,42.086-41.559
		c24.352,0.137,41.699,17.812,41.859,41.73C445.212,590.05,422.819,606.359,402.997,605.296z M403.302,550.367
		c-7.799-0.08-13.656,5.367-13.934,12.965c-0.242,6.633,6.838,13.777,13.775,13.898c6.189,0.113,13.49-6.906,13.744-13.211
		C417.177,556.976,410.673,550.449,403.302,550.367z M396.183,597.738c4.869-0.072,8.396-3.68,8.25-8.43
		c-0.143-4.555-4.299-8.664-8.73-8.152c-4.717,0.551-7.701,3.232-7.842,8.281C387.724,594.335,391.271,597.808,396.183,597.738z
		 M433.835,577.992c-0.084-4.629-4.158-8.883-8.482-8.285c-4.582,0.629-7.809,3.27-8.102,8.213
		c-0.281,4.746,3.494,8.389,8.312,8.412C430.46,586.355,433.919,582.867,433.835,577.992z M415.853,547.296
		c-0.391,5.227,3.738,7.07,8.139,7.865c3.771,0.682,8.424-4.451,8.475-8.545c0.057-4.25-4.223-8.551-8.498-8.531
		C419.397,538.097,415.79,541.945,415.853,547.296z M393.466,530.085c-4.9-0.062-8.355,3.387-8.191,8.352
		c0.172,4.973,2.84,7.828,7.789,8.168c4.561,0.312,8.707-3.641,8.812-8.066C401.989,534.042,398.116,530.152,393.466,530.085z
		 M377.177,556.746c-5.766,0.02-9.74,3.855-9.629,8.289c0.102,4.119,4.699,8.479,8.816,8.363c4.76-0.125,8.018-3.762,7.818-8.859
		C383.985,559.406,380.995,557.082,377.177,556.746z"/>
	<path d="M435.622,688.167c21.98,0.016,41.934,17.461,42.051,41.648c0.125,25.188-20.307,42.729-42.445,42.539
		c-20.742-0.176-42.324-16.758-41.73-44.316C393.944,707.07,413.899,687.574,435.622,688.167z M468.353,730.402
		c0.801-18.574-15.152-33.127-32.668-33.281c-17.93-0.16-32.705,14.605-32.965,32.688c-0.268,18.348,14.334,33.363,32.637,33.562
		C453.571,763.582,468.267,748.902,468.353,730.402z"/>
	<path d="M366.253,905.847c-10.381,9.219-22.775,11.719-36.104,8.82c-18.283-3.98-31.77-19.508-32.625-38.281
		c-0.973-21.551,12.605-40.176,35.41-43.938c22.898-3.783,43.191,11.557,47.508,33.52c1.898,9.691,0.893,18.582-3.672,26.82
		c-2.086,3.785-6.574,6.246-9.918,9.246c-1.508-6.27-2.68-11.129-3.828-15.914c-2.316,0.32-4.551,0.586-6.756,0.949
		c-4.416,0.738-8.451,5.625-7.322,9.586c1.219,4.312,3.9,7.422,9.115,7.035c2.635-0.188,5.291-0.035,7.936-0.035
		C366.083,904.394,366.169,905.121,366.253,905.847z M339.36,887.109c7.211,0.055,13.91-5.934,13.945-12.445
		c0.033-7.691-6.297-14.332-13.715-14.383c-7.258-0.059-14.342,7.008-14.18,14.121C325.565,880.839,332.397,887.07,339.36,887.109z
		 M317.536,900.222c4.852,0.117,9-3.391,9.109-7.727c0.125-4.473-4.309-9.219-8.633-9.258c-4.57-0.035-8.711,3.973-8.711,8.449
		C309.298,896.082,313.192,900.113,317.536,900.222z M360.911,864.14c4.27,0.246,8.635-3.426,8.957-7.527
		c0.316-3.973-3.92-8.785-7.986-9.078c-4.385-0.309-8.939,3.348-9.385,7.543C352.036,859.57,356.013,863.855,360.911,864.14z
		 M321.802,860.445c4.504-0.117,8.816-4.348,8.547-8.379c-0.293-4.219-4.727-8.391-8.887-8.352
		c-4.215,0.035-8.529,4.418-8.482,8.633C313.017,856.687,317.235,860.562,321.802,860.445z"/>
	<path d="M512.808,846.886c-0.135-16.34,13.705-31.324,31.061-31.008c19.262,0.355,31.154,14.91,31.506,31.77
		c0.311,14.887-15.166,31.688-31.299,31.246C526.271,878.402,512.786,865.015,512.808,846.886z M557.438,847.589
		c0.105-7.434-6.17-14.027-13.391-14.078c-6.965-0.043-13.238,6.18-13.402,13.297c-0.168,7.77,5.594,14.211,12.969,14.469
		C550.728,861.527,557.325,854.988,557.438,847.589z"/>
	<path d="M188.919,873.031c15.158-2.703,31.684,15.68,31.02,31.16c-0.734,17.008-13.939,30.762-30.861,31.43
		c-16.143,0.633-31.896-14.773-32.283-30.617C156.392,888.324,170.7,871.16,188.919,873.031z M188.642,890.695
		c-7.812-0.098-13.615,5.48-13.674,13.156c-0.049,7.059,5.988,13.383,13.096,13.711c7.014,0.328,13.691-6.34,13.672-13.648
		C201.712,896.644,195.911,890.785,188.642,890.695z"/>
	<path d="M412.083,730.816c-2.316-10.867,7.877-23.957,22.186-24.799c12.564-0.732,24.787,10.018,25.104,21.326
		c0.443,15.402-8.398,26.359-22.078,27.109C423.991,755.187,409.888,743.542,412.083,730.816z M422.259,729.98
		c-0.117,7.188,5.934,13.906,12.762,14.188c6.758,0.277,13.941-6.711,14.047-13.672c0.107-7.137-6.422-13.988-13.543-14.213
		C428.942,716.082,422.374,722.859,422.259,729.98z"/>
</g>
</svg>
