<?xml version="1.0" encoding="utf-8"?>
<!-- Generator: Adobe Illustrator 16.0.0, SVG Export Plug-In . SVG Version: 6.00 Build 0)  -->
<!DOCTYPE svg PUBLIC "-//W3C//DTD SVG 1.1//EN" "http://www.w3.org/Graphics/SVG/1.1/DTD/svg11.dtd">
<svg version="1.1" id="Layer_1" xmlns="http://www.w3.org/2000/svg" xmlns:xlink="http://www.w3.org/1999/xlink" x="0px" y="0px"
	 width="1569.412px" height="1234.411px" viewBox="0 0 1569.412 1234.411" enable-background="new 0 0 1569.412 1234.411"
	 xml:space="preserve">
<path d="M0,1115.262c0.952-5.549,1.963-11.088,2.846-16.646c6.86-43.199,34.395-69.273,77.75-73.268
	c8.94-0.822,17.958-1.104,26.941-1.105c172.82-0.041,345.642-0.002,518.462,0.02c0,15.666,0,31.332,0,47
	c-2.162-0.064-4.324-0.193-6.486-0.193c-171.314-0.068-342.639-0.146-513.957-0.127c-8.143,0-16.368,0.254-24.41,1.4
	c-19.135,2.736-29.563,12.902-32.102,32.045c-1.48,11.158-2.11,22.582-1.611,33.82c1.033,23.283,13.863,38.309,36.547,43.992
	c16.108,4.037,32.594,4.645,49.116,4.645c161.987-0.006,323.976-0.002,485.958,0.021c2.314,0,4.629,0.26,6.943,0.395
	c0,15.334,0,30.668,0,46c-0.666,0.039-1.33,0.113-1.994,0.113c-165.977,0-331.954-0.004-497.929-0.012
	c-21.951,0-43.543-2.4-64.354-9.836c-27.891-9.967-47.551-28.23-56.36-56.959c-2.423-7.906-3.607-16.193-5.361-24.305
	C0,1133.262,0,1124.262,0,1115.262z"/>
<path d="M53.925,847.307c0-14.238,0-27.807,0-41.96c2.094,0,3.879,0,5.665,0c145.824,0,291.646-0.028,437.47,0.036
	c20.387,0.009,40.562,1.646,60.102,8.306c32.276,11.009,50.869,33.245,55.74,66.964c2.9,20.094,1.65,40.064-4.32,59.354
	c-9.055,29.234-28.793,46.314-60.814,51.115c-10.973,1.646-22.262,1.588-33.404,1.594c-111.824,0.055-223.651-0.049-335.479-0.096
	c-39.331-0.02-78.661-0.002-117.992-0.002c-2.144,0-4.289-0.002-6.846-0.002c0-13.912,0-27.445,0-41.617c1.859,0,3.636,0,5.413,0
	c147.323,0.002,294.646,0.012,441.969-0.018c11.822-0.002,23.691,0.348,35.453-0.578c21.367-1.688,31.248-10.619,33.773-31.709
	c1.406-11.781,1.354-23.998-0.027-35.783c-1.627-13.892-10.264-23.895-23.479-28.58c-8.386-2.975-17.351-4.65-26.194-5.877
	c-8.049-1.115-16.293-1.127-24.449-1.131c-145.324-0.051-290.646-0.025-435.97-0.018C58.548,847.307,56.569,847.307,53.925,847.307z
	"/>
<path d="M524.269,617.488c0,11.772,0,23.028,0,34.758c-2.119,0-3.918,0.002-5.715,0c-128.479-0.035-256.961-0.113-385.442-0.002
	c-8.085,0.008-16.271,0.965-24.223,2.467c-7.633,1.443-12.965,6.596-15.761,13.898c-5.865,15.313-6.222,30.965-1.39,46.516
	c3.339,10.746,11.792,16.521,22.115,19.922c13.217,4.354,26.922,4.355,40.565,4.361c120.982,0.039,241.964-0.033,362.945-0.072
	c2.15,0,4.307,0,6.832,0c0,11.734,0,23.125,0,35.052c-2.104,0-3.9,0-5.697,0c-122.481,0.005-244.964,0.017-367.447,0.007
	c-16.382-0.001-32.588-1.203-48.334-6.35c-29.243-9.557-45.453-29.662-48.411-60.114c-1.804-18.575-0.657-37.004,7.016-54.424
	c7.113-16.151,19.048-27.435,36.145-31.873c10.041-2.606,20.642-4.27,30.995-4.288c130.646-0.243,261.293-0.108,391.942-0.061
	C521.558,617.286,522.712,617.403,524.269,617.488z"/>
<path d="M80.05,875.099c0-4.083,0-7.386,0-11.313c1.867-0.104,3.612-0.283,5.356-0.285c145.164-0.012,290.328-0.014,435.49,0.047
	c1.83,0.001,5.105,0.555,5.238,1.293c0.543,3.021,0.193,6.216-0.037,9.332c-0.023,0.354-1.352,0.785-2.105,0.871
	c-1.318,0.146-2.662,0.054-3.996,0.054c-144.33,0.002-288.661,0.002-432.991,0.003C84.873,875.099,82.74,875.099,80.05,875.099z"/>
<path d="M80.078,934.934c0-4.031,0-7.328,0-11.238c1.863-0.096,3.616-0.262,5.37-0.262c145.127-0.014,290.252-0.016,435.381-0.012
	c5.16,0,8.15,5.395,5.525,10.117c-0.383,0.689-1.529,1.18-2.393,1.309c-1.469,0.221-2.99,0.086-4.49,0.086
	c-143.958,0.002-287.918,0.002-431.878,0.002C85.289,934.934,82.984,934.934,80.078,934.934z"/>
<path d="M526.076,905.565c-148.686,0-297.075,0-445.835,0c0-3.621,0-7.02,0-10.996c1.75-0.091,3.518-0.265,5.285-0.265
	c145.12-0.013,290.239-0.015,435.357-0.009C527.283,894.295,527.738,895.247,526.076,905.565z"/>
<path d="M127.491,700.862c0-4.177,0-7.597,0-11.316c124.991,0,249.723,0,374.393,0c0.222,0.418,0.479,0.695,0.513,1
	c1.271,10.31,1.271,10.312-8.905,10.314c-119.656,0-239.312,0.002-358.967,0.002C132.247,700.862,129.974,700.862,127.491,700.862z"
	/>
<path d="M127.855,715.601c124.654,0,249.361,0,374.346,0c0,3.754,0,7.306,0,11.362c-2.008,0-3.633,0-5.256,0
	c-120.146,0.002-240.289,0.005-360.432,0.005C125.842,726.969,125.842,726.961,127.855,715.601z"/>
<path d="M502.238,665.235c0,3.561,0,6.967,0,11.197c-2.451,0-4.705,0-6.957,0c-119.656,0-239.313-0.001-358.97-0.001
	c-10.267,0-10.267,0.001-8.512-11.196C252.454,665.235,377.171,665.235,502.238,665.235z"/>
<path d="M98.289,1100.875c0-3.826,0-7.266,0-11.055c166.048,0,331.875,0,498.113,0c0,3.633,0,7.176,0,11.055
	C430.46,1100.875,264.634,1100.875,98.289,1100.875z"/>
<path d="M596.513,1156.649c0,3.725,0,7.141,0,10.961c-166.016,0-331.861,0-498.072,0c0-3.619,0-7.152,0-10.961
	C264.383,1156.649,430.113,1156.649,596.513,1156.649z"/>
<path d="M596.107,1122.538c0.283,0.354,0.469,0.475,0.48,0.615c1.193,10.496,1.191,10.494-9.268,10.494
	c-160.328,0-320.657,0.002-480.984,0.002c-2.484,0-4.969,0-7.857,0c0-3.832,0-7.24,0-11.111
	C264.188,1122.538,430.066,1122.538,596.107,1122.538z"/>
<g>
	<path d="M1188.868,0.381c109.447,0,218.893,0.466,328.332-0.306c29.795-0.211,52.342,20.011,52.211,52.17
		c-0.771,189.597-0.375,379.198-0.379,568.798c-0.004,32.646-18.224,50.877-50.955,50.88
		c-220.121,0.015-440.242,0.017-660.363-0.003c-32.715-0.002-50.903-18.255-50.903-50.93c-0.002-189.906-0.002-379.815,0-569.724
		c0-32.649,18.217-50.872,50.955-50.879C968.131,0.369,1078.5,0.381,1188.868,0.381z M852.975,625.16c223.414,0,446.406,0,669.595,0
		c0-167.571,0-334.7,0-501.805c-223.564,0-446.32,0-669.595,0C852.975,290.824,852.975,457.73,852.975,625.16z M1325.01,31.583
		c-16.156,0.056-30.146,13.799-30.348,29.816c-0.205,16.463,13.879,30.538,30.533,30.505c16.692-0.033,30.44-14.037,30.137-30.703
		C1355.04,44.898,1341.346,31.524,1325.01,31.583z M1462.649,61.626c-0.021,16.773,13.768,30.47,30.493,30.282
		c16.22-0.182,29.951-13.887,30.109-30.048c0.164-16.359-14.174-30.447-30.791-30.26
		C1476.053,31.783,1462.667,45.262,1462.649,61.626z M1438.899,61.583c-0.103-16.669-13.365-29.994-29.871-30.015
		c-16.935-0.02-30.097,13.522-29.943,30.808c0.148,16.487,13.754,29.76,30.277,29.534
		C1425.942,91.687,1438.997,78.277,1438.899,61.583z"/>
	<path d="M1125.633,453.285c-13.014-5.595-24.781-10.63-36.524-15.718c-40.929-17.737-81.798-35.604-122.822-53.104
		c-5.312-2.269-7.631-4.829-7.277-10.756c0.65-10.729-3.166-23.898,1.802-31.573c4.911-7.601,18.284-9.868,28.09-14.146
		c42.018-18.324,84.08-36.537,126.143-54.763c3.047-1.318,6.193-2.413,10.572-4.108c0,15.001,0.34,29.024-0.324,42.998
		c-0.113,2.429-4.021,5.7-6.873,6.822c-33.184,13.087-66.498,25.835-99.775,38.694c-2.184,0.846-4.289,1.89-7.561,3.343
		c36.068,14.215,70.9,28.127,105.916,41.563c6.367,2.442,9.211,5.318,8.82,12.509C1125.155,427.236,1125.633,439.5,1125.633,453.285
		z"/>
	<path d="M1250.208,269.461c14.459,6.162,27.424,11.633,40.342,17.204c39.56,17.052,79.047,34.275,118.715,51.066
		c5.781,2.446,7.98,5.36,7.576,11.603c-0.68,10.421,3.072,23.221-1.741,30.693c-4.767,7.389-17.755,9.605-27.275,13.769
		c-42.291,18.488-84.627,36.868-126.961,55.261c-3.017,1.312-6.113,2.446-10.623,4.235c0-15.267-0.342-29.301,0.344-43.285
		c0.111-2.314,4.373-5.292,7.316-6.47c32.276-12.899,64.686-25.495,97.047-38.203c3.078-1.205,6.08-2.609,10.33-4.439
		c-36.252-14.079-71.113-27.916-106.248-41.021c-7.119-2.657-9.373-6.018-8.984-13.324
		C1250.663,294.886,1250.208,283.168,1250.208,269.461z"/>
	<path d="M1161.352,484.829c-13.055-0.021-18.885-7.002-15.766-20.694c8.816-38.698,18.062-77.298,27.312-115.895
		c7.67-32.021,15.282-64.06,23.666-95.893c1.573-5.979,5.491-13.473,10.44-15.834c4.98-2.374,13.926-1.142,18.637,2.121
		c3.693,2.559,5.746,11.028,4.773,16.162c-3.762,19.93-8.953,39.593-13.74,59.327c-12.396,51.135-24.754,102.277-37.369,153.358
		C1175.967,481.015,1171.487,484.842,1161.352,484.829z"/>
</g>
</svg>
