<?xml version="1.0" encoding="utf-8"?>
<!-- Generator: Adobe Illustrator 16.0.0, SVG Export Plug-In . SVG Version: 6.00 Build 0)  -->
<!DOCTYPE svg PUBLIC "-//W3C//DTD SVG 1.1//EN" "http://www.w3.org/Graphics/SVG/1.1/DTD/svg11.dtd">
<svg version="1.1" id="Layer_1" xmlns="http://www.w3.org/2000/svg" xmlns:xlink="http://www.w3.org/1999/xlink" x="0px" y="0px"
	 width="257.646px" height="28.264px" viewBox="0 0 257.646 28.264" enable-background="new 0 0 257.646 28.264"
	 xml:space="preserve">
<g id="Layer_1_1_">
</g>
<g id="Laag_1">
	<g>
		<g>
			<rect x="0" y="0.35" fill="#FFFFFF" width="27.911" height="27.913"/>
			<path d="M7.433,8.768c0,0,0.68,0.027,1.144,0.029c0.571,0.004,1.063-0.125,1.076-0.05c0.022,0.138,0.039,6.246,0.039,6.246
				s0.066,1.304,0.387,1.967c0.562,1.166,3.064,1.263,3.064,1.263s0.389,0.046,1.259-0.021c0.868-0.068,2.562-0.318,3.111-1.346
				c0,0,0.389-0.437,0.529-2.904c0.147-2.587-0.198-5.147-0.198-5.147l2.425-0.111c0,0-0.164,1.828-0.168,5.261
				c-0.003,3.432,0.313,5.445,0.313,5.445l-2.402,0.706l0.003-2.54l-1.145,1.074c0,0-0.667,0.685-2.176,1.072
				s-2.654,0.316-3.339,0.179c-0.688-0.139-1.305-0.321-1.693-0.506c-0.389-0.183-1.075-0.525-1.69-1.488
				c-0.365-0.568-0.365-1.99-0.365-1.99l0.026-2.653L7.433,8.768z"/>
			<g>
				<polygon points="16.05,7.934 10.687,2.56 11.853,1.397 17.216,6.771 				"/>
				<g>
					<polygon points="11.71,7.949 10.547,6.783 15.922,1.42 17.085,2.586 					"/>
				</g>
			</g>
			<g>
				<polygon points="16.058,16.062 10.694,10.687 11.86,9.524 17.224,14.899 				"/>
				<g>
					<polygon points="11.717,16.074 10.554,14.908 15.929,9.547 17.092,10.713 					"/>
				</g>
			</g>
			<g>
				<polygon points="16.045,26.904 10.683,21.529 11.849,20.366 17.211,25.741 				"/>
				<g>
					<polygon points="11.705,26.92 10.542,25.754 15.917,20.391 17.08,21.557 					"/>
				</g>
			</g>
		</g>
		<g>
			<path fill="#FFFFFF" d="M164.644,8.688l-0.85,2.739c-0.153,0.504-0.229,0.947-0.229,1.257c0,0.638,0.906,0.771,1.429,0.771
				c0.172,0,0.213,0.115,0.213,0.366c0,0.193-0.021,0.271-0.156,0.271c-0.442,0-1.853-0.098-2.375-0.098
				c-0.52,0-1.332,0.098-1.911,0.098c-0.386,0-0.386-0.059-0.386-0.31V13.57c0-0.096,0.172-0.135,0.638-0.174
				c1.004-0.097,1.141-0.289,1.508-1.353l3.822-11.12c0.385-0.326,0.788-0.771,1.271-0.927l4.848,12.222
				c0.328,0.812,0.677,1.217,1.795,1.217c0.214,0,0.25,0.23,0.25,0.443s-0.133,0.213-0.364,0.213c-0.312,0-1.545-0.098-2.299-0.098
				c-0.771,0-1.546,0.039-2.316,0.098c-0.289,0-0.309-0.059-0.309-0.328c0-0.213,0.114-0.31,0.387-0.31
				c0.291,0,1.235-0.059,1.235-0.521c0-0.154-0.077-0.465-0.35-1.14l-1.234-3.107h-4.615V8.688z M168.911,7.935l-2.143-5.521h-0.039
				l-1.834,5.521H168.911z"/>
			<path fill="#FFFFFF" d="M183.577,3.857c0.447,0,0.91,0.043,1.373,0.043c0.363,0,0.738-0.043,1.1-0.043
				c0.218,0,0.261,0.057,0.261,0.101v0.231c0,0.101-0.043,0.174-0.103,0.174c-0.102,0-0.26-0.029-0.434-0.029
				c-0.84,0-0.84,0.42-0.84,1.359c0,0.825,0.159,6.234,0.159,7.031c0,0.403,0.203,0.867,0.824,0.867c0.58,0,0.65,0.028,0.65,0.159
				c0,0.173-0.086,0.318-0.129,0.318c-0.767,0-1.375-0.073-1.982-0.073c-0.606,0-1.229,0.073-1.852,0.073
				c-0.103,0-0.115-0.06-0.115-0.146V13.78c0-0.146,0.131-0.188,0.795-0.188c0.291,0,0.551-0.348,0.551-0.854
				c0-1.562-0.057-4.933-0.117-7.407c-0.057-0.015-0.041-0.015-0.041-0.015c-0.811,1.664-1.866,4.08-2.358,5.368l-1.361,3.571
				c-0.012,0.043-0.057,0.086-0.129,0.086c-0.07,0-0.131-0.07-0.174-0.272c-0.086-0.362-0.217-0.71-0.363-1.057l-2.731-6.655
				c-0.103-0.246-0.188-0.418-0.244-0.418c-0.062,0-0.062,0.288-0.062,0.448c0,1.143-0.172,5.511-0.172,6.221
				c0,0.621,0,0.982,1.273,0.982c0.086,0,0.102,0.072,0.102,0.245c0,0.06-0.016,0.232-0.074,0.232c-0.202,0-0.909-0.073-1.69-0.073
				c-0.824,0-1.635,0.073-1.838,0.073c-0.043,0-0.088-0.044-0.088-0.116v-0.217c0-0.13,0.116-0.146,0.291-0.146
				c1.186,0,1.358-0.361,1.358-1.621c0-0.708,0.244-6.03,0.244-6.553c0-0.767-0.375-1.085-1.676-1.085
				c-0.045,0-0.072-0.072-0.072-0.159V3.987c0-0.073,0.043-0.13,0.115-0.13c0.551,0,1.07,0.07,1.647,0.07
				c0.361,0,0.738-0.07,1.101-0.07c0.104,0,0.203,0.23,0.274,0.419l3.125,7.479h0.07L183.577,3.857z"/>
			<path fill="#FFFFFF" d="M189.239,8.804c-1.045-0.622-1.463-1.201-1.463-2.328c0-1.81,1.475-2.821,3.428-2.821
				c0.551,0,1.332,0.188,1.824,0.404l0.102,1.81V5.94c0,0.07-0.146,0.101-0.35,0.101c-0.188,0-0.215-0.086-0.23-0.229
				c-0.102-0.971-0.795-1.594-1.821-1.594c-0.984,0-1.75,0.694-1.75,1.621c0,1.041,0.637,1.446,2.082,2.213
				c1.434,0.753,2.678,1.417,2.678,3.227c0,1.968-1.781,2.995-3.588,2.995c-0.594,0-1.578-0.188-2.127-0.419
				c-0.117-0.06-0.158-0.246-0.203-0.565l-0.174-1.358c0-0.088,0.291-0.088,0.377-0.088c0.045,0,0.086,0.028,0.115,0.131
				c0.334,1.1,1.086,1.735,2.243,1.735c1.013,0,1.98-0.883,1.98-1.866c0-0.939-0.535-1.504-1.287-1.952L189.239,8.804z"/>
			<path fill="#FFFFFF" d="M199.831,12.521c0,1.07,0.724,1.07,1.619,1.07l0.088,0.072v0.231c0,0.174-0.072,0.174-0.305,0.174
				c-0.289,0-0.996-0.073-2.01-0.073c-0.798,0-2.041,0.073-2.388,0.073c-0.03-0.104-0.059-0.174-0.059-0.261
				c0-0.044,0.016-0.132,0.059-0.159l0.146-0.059h0.174c1.316,0,1.373-0.448,1.373-1.648V5.086l-0.043-0.665h-1.938
				c-1.1,0-1.274,0.694-1.549,1.62c-0.026,0.087-0.088,0.13-0.174,0.13c-0.203,0-0.332-0.059-0.332-0.145
				c0-0.246,0.174-1.592,0.174-2.734c0-0.058,0.203-0.058,0.404-0.058c0.465,0.623,0.606,0.623,1.229,0.623h5.38
				c1.014,0,1.305-0.306,1.666-0.753c0.102,0,0.434,0,0.434,0.13c0,0.116-0.289,1.302-0.318,2.344c0,0.158-0.045,0.463-0.114,0.463
				c-0.132,0-0.464-0.072-0.464-0.145l-0.057-0.725c-0.061-0.737-0.406-0.752-1-0.752h-1.996L199.831,12.521L199.831,12.521z"/>
			<path fill="#FFFFFF" d="M206.144,5.332c0-0.939-0.709-1.042-1.547-1.042c-0.06,0-0.06-0.072-0.06-0.13V4.002
				c0-0.132,0.246-0.145,0.752-0.145c0.578,0,1.23,0.07,1.838,0.07c0.578,0,1.156-0.07,1.734-0.07h3.055
				c0.113,0,0.129,0.13,0.129,0.288v1.766c0,0.058-0.028,0.115-0.102,0.115c-0.117,0-0.349,0.015-0.361-0.158l-0.045-0.449
				c-0.086-0.927-0.723-1.085-1.531-1.085h-1.489c-0.812,0-1.072,0.174-1.072,1.272v2.618c0,0.044,0.088,0.116,0.117,0.116
				l1.707-0.059c0.866-0.028,1.114-0.304,1.33-1.071c0.028-0.086,0.073-0.114,0.231-0.114c0.103,0,0.172,0.016,0.172,0.087
				c0,0.305-0.086,0.97-0.086,1.446c0,0.78,0.086,1.201,0.086,1.446c0,0.087-0.143,0.174-0.229,0.174
				c-0.115,0-0.217-0.043-0.246-0.188c-0.072-0.392-0.072-0.665-0.144-0.867c-0.073-0.217-0.248-0.318-0.682-0.333l-2.055-0.043
				c-0.203,0-0.203,0.071-0.203,0.172v3.444c0,1.041,0.768,1.069,1.766,1.069h0.781c0.768,0,1.303-0.016,1.664-0.23
				c0.318-0.188,0.766-1.07,0.926-1.434c0.189,0,0.435,0.044,0.435,0.146c0,0.044-0.043,0.159-0.072,0.23l-0.404,1.461
				c-0.117,0.393-0.188,0.393-0.377,0.393c-1.562,0-3.096-0.073-5.193-0.073c-0.477,0-1.69,0.073-2.43,0.073
				c-0.045,0-0.086-0.146-0.086-0.232c0-0.114,0.027-0.245,0.086-0.245c1.258-0.059,1.605-0.188,1.605-1.519V5.332z"/>
			<path fill="#FFFFFF" d="M215.683,5.419c0-0.724-0.029-1.085-0.941-1.085h-0.594c-0.086,0-0.103-0.159-0.103-0.274
				c0-0.071,0.045-0.201,0.103-0.201c0.84,0,1.694,0.043,2.533,0.043c0.666,0,1.315-0.043,1.979-0.043
				c1.478,0,2.924,0.982,2.924,2.501c0,1.316-1.201,2.199-2.33,2.374V8.76c0.564,0.131,1.158,1.187,1.304,1.417l1.592,2.433
				c0.503,0.767,0.837,0.911,1.707,0.955l0.086,0.086v0.273c0,0.131-0.103,0.146-0.158,0.146c-0.305,0-0.754-0.044-0.971-0.044
				c-0.349,0-0.693,0.044-1.041,0.044c-0.332,0-0.984-0.971-1.838-2.488c-0.939-1.664-1.49-2.576-2.445-2.576
				c-0.113,0-0.289,0-0.504,0.029v3.545c0,0.521,0,1.013,0.723,1.013c0.549,0,0.795,0,0.795,0.115c0,0.274-0.043,0.362-0.262,0.362
				c-0.752,0-1.373-0.073-1.996-0.073c-0.244,0-1.85,0.073-2.053,0.073c-0.086,0-0.117-0.188-0.117-0.305
				c0-0.131,0.059-0.158,0.348-0.174c0.998-0.044,1.261-0.188,1.261-1.187L215.683,5.419L215.683,5.419z M216.985,8.5
				c0.188,0.016,0.361,0.029,0.549,0.029c1.156,0,2.604-0.405,2.604-2.112c0-1.271-0.867-2.098-2.142-2.098
				c-0.983,0-1.012,0.23-1.012,0.666V8.5z"/>
			<path fill="#FFFFFF" d="M226.101,5.549c0-0.549-0.113-1.113-0.65-1.113c-0.172,0-0.635,0.058-0.91,0.058
				c-0.059,0-0.059-0.216-0.059-0.288c0-0.087,0-0.13,0.248-0.188c0.969-0.203,3.28-0.361,4.524-0.361
				c0.797,0,1.55,0.072,2.259,0.26c1.967,0.536,3.805,2.287,3.805,4.948c0,3.587-2.996,5.208-5.744,5.208
				c-1.375,0-2.098-0.059-2.818-0.059c-0.725,0-1.446,0.043-2.172,0.059c-0.057,0-0.072-0.13-0.072-0.232
				c0-0.101,0.072-0.245,0.132-0.245c0.463-0.059,0.838-0.087,1.1-0.261c0.217-0.145,0.359-0.377,0.359-0.839L226.101,5.549
				L226.101,5.549z M227.405,12.001c0,1.592,1.635,1.592,2.27,1.592c1.982,0,4.095-1.635,4.095-4.658
				c0-2.575-1.388-3.849-2.388-4.427c-0.692-0.304-1.604-0.376-2.229-0.376c-1.185,0-1.748,0.086-1.748,1.014V12.001z"/>
			<path fill="#FFFFFF" d="M237.474,10.02l-0.636,2.055c-0.116,0.375-0.174,0.708-0.174,0.939c0,0.477,0.681,0.578,1.07,0.578
				c0.129,0,0.158,0.087,0.158,0.273c0,0.146-0.015,0.204-0.115,0.204c-0.332,0-1.389-0.073-1.779-0.073
				c-0.39,0-0.998,0.073-1.432,0.073c-0.289,0-0.289-0.044-0.289-0.232v-0.158c0-0.071,0.131-0.103,0.477-0.131
				c0.752-0.071,0.854-0.217,1.129-1.013l2.863-8.332c0.289-0.246,0.594-0.579,0.955-0.695l3.631,9.157
				c0.248,0.608,0.508,0.911,1.347,0.911c0.159,0,0.188,0.175,0.188,0.333c0,0.16-0.102,0.16-0.273,0.16
				c-0.229,0-1.157-0.073-1.723-0.073c-0.578,0-1.156,0.029-1.736,0.073c-0.215,0-0.229-0.044-0.229-0.247
				c0-0.158,0.088-0.23,0.289-0.23c0.217,0,0.926-0.044,0.926-0.392c0-0.114-0.057-0.347-0.26-0.854l-0.926-2.328L237.474,10.02
				L237.474,10.02z M240.673,9.456l-1.606-4.139h-0.029l-1.371,4.139H240.673z"/>
			<path fill="#FFFFFF" d="M254.649,3.857c0.449,0,0.912,0.043,1.375,0.043c0.36,0,0.738-0.043,1.1-0.043
				c0.217,0,0.26,0.057,0.26,0.101v0.231c0,0.101-0.043,0.174-0.1,0.174c-0.102,0-0.262-0.029-0.436-0.029
				c-0.839,0-0.839,0.42-0.839,1.359c0,0.825,0.158,6.234,0.158,7.031c0,0.403,0.203,0.867,0.826,0.867
				c0.576,0,0.65,0.028,0.65,0.159c0,0.173-0.088,0.318-0.132,0.318c-0.768,0-1.375-0.073-1.981-0.073
				c-0.607,0-1.229,0.073-1.853,0.073c-0.102,0-0.116-0.06-0.116-0.146V13.78c0-0.146,0.131-0.188,0.797-0.188
				c0.289,0,0.549-0.348,0.549-0.854c0-1.562-0.057-4.933-0.113-7.407c-0.059-0.015-0.045-0.015-0.045-0.015
				c-0.811,1.664-1.867,4.08-2.356,5.368l-1.359,3.571c-0.016,0.043-0.061,0.086-0.131,0.086c-0.072,0-0.129-0.07-0.174-0.272
				c-0.086-0.362-0.218-0.71-0.361-1.057l-2.734-6.655c-0.102-0.246-0.188-0.418-0.246-0.418c-0.057,0-0.057,0.288-0.057,0.448
				c0,1.143-0.176,5.511-0.176,6.221c0,0.621,0,0.982,1.272,0.982c0.089,0,0.103,0.072,0.103,0.245c0,0.06-0.014,0.232-0.072,0.232
				c-0.201,0-0.912-0.073-1.692-0.073c-0.824,0-1.636,0.073-1.837,0.073c-0.043,0-0.086-0.044-0.086-0.116v-0.217
				c0-0.13,0.113-0.146,0.287-0.146c1.188,0,1.361-0.361,1.361-1.621c0-0.708,0.246-6.03,0.246-6.553
				c0-0.767-0.375-1.085-1.68-1.085c-0.041,0-0.072-0.072-0.072-0.159V3.987c0-0.073,0.045-0.13,0.117-0.13
				c0.549,0,1.069,0.07,1.649,0.07c0.359,0,0.736-0.07,1.099-0.07c0.102,0,0.202,0.23,0.274,0.419l3.125,7.479h0.072L254.649,3.857z
				"/>
		</g>
		<g>
			<g>
				<path fill="#FFFFFF" d="M136.498,9.101c0-3.016,2.581-5.48,5.568-5.48c3.026,0,5.727,2.077,5.727,5.077
					c0,2.901-2.8,5.512-5.67,5.512C139.108,14.209,136.498,12.248,136.498,9.101z M146.249,8.987c0-2.424-1.658-4.893-4.255-4.893
					c-2.669,0-3.953,2.094-3.953,4.529c0,2.467,1.5,5.021,4.185,5.021C144.879,13.646,146.249,11.469,146.249,8.987z"/>
				<path fill="#FFFFFF" d="M149.56,5.439c0-0.88-0.145-1.068-0.996-1.068h-0.245c-0.258,0.017-0.375-0.029-0.375-0.116
					c0-0.114,0-0.359,0.16-0.359h5.914c0.489,0,0.98-0.072,1.484-0.072c0.087,0,0.203,0.016,0.203,0.131l0.06,1.628
					c0,0.103,0.014,0.203,0.014,0.306c0,0.058-0.114,0.085-0.259,0.085h-0.217c-0.029-0.173-0.058-0.347-0.102-0.504l-0.129-0.446
					c-0.159-0.564-0.577-0.649-1.025-0.649h-2.02c-1.068,0-1.168,0.33-1.168,1.386v2.538h2.136c1.24,0,1.543-0.346,1.543-1.14
					c0.146-0.03,0.288-0.074,0.391-0.074c0.057,0,0.087,0.03,0.087,0.104c0,0.112-0.06,0.331-0.06,1.384
					c0,0.419,0.06,1.169,0.06,1.486c0,0.13-0.102,0.187-0.262,0.187c-0.114,0-0.157-0.129-0.216-0.36
					c-0.1-0.592-0.389-1.11-1.615-1.11h-2.063v3.781c0,0.562,0.073,0.864,0.809,0.922l0.751,0.059c0.07,0,0.099,0.087,0.099,0.188
					c0,0.115,0,0.287-0.157,0.287c-1.082,0-1.544-0.07-2.221-0.07c-0.593,0-1.659,0.07-2.048,0.07c-0.117,0-0.117-0.145-0.117-0.258
					c0-0.087,0.015-0.217,0.073-0.217l0.636-0.043c0.764-0.059,0.878-0.231,0.878-1.082V5.439H149.56z"/>
			</g>
			<g>
				<path fill="#FFFFFF" d="M37.425,2.608c0-1.521-0.925-1.521-1.984-1.521l-0.097-0.079V0.682c0-0.213,0.136-0.23,0.347-0.23
					c0.501,0,1.734,0.097,2.641,0.097c0.962,0,1.943-0.097,2.907-0.097l0.058,0.057v0.5L41.2,1.087H40.97
					c-1.253,0-1.812,0.135-1.812,1.579v5.586c0,2.774,0.541,4.951,3.854,4.951c3.448,0,4.564-1.656,4.564-4.913V3.282
					c0-2.195,0-2.043-1.694-2.195l-0.076-0.153V0.566l0.058-0.115c0.346,0,0.732,0.097,2.177,0.097c0.811,0,1.83-0.097,2.447-0.097
					l0.077,0.115v0.403l-0.117,0.116c-1.404,0-1.907,0.077-1.907,1.039v6.877c0,3.527-2.061,5.317-5.566,5.317
					c-2.793,0-5.548-0.981-5.548-4.199L37.425,2.608L37.425,2.608z"/>
				<path fill="#FFFFFF" d="M51.662,5.612c0-0.289-0.014-0.362-0.072-0.478c-0.129-0.246-0.766-0.765-1.01-0.779l-0.766-0.043
					c-0.059,0-0.072-0.146-0.072-0.261c0-0.072,0-0.187,0.072-0.187c0.449,0,0.794-0.03,1.152-0.03c0.666,0,1.72,0.06,1.979,0.088
					l4.375,5.281c0.663,0.81,1.312,1.561,2.353,2.601h0.058V5.453c0-0.953-0.348-1.098-0.81-1.111l-0.62-0.028
					c-0.059,0-0.087-0.146-0.087-0.244c0-0.089,0.043-0.232,0.132-0.232c0.315,0,1.066,0.072,1.773,0.072
					c0.65,0,1.343-0.072,1.747-0.072c0.073,0,0.087,0.06,0.087,0.116v0.273c0,0.071-0.03,0.087-0.13,0.087h-0.375
					c-0.996,0-0.996,0.505-0.996,1.731v8.357h-0.348L52.31,5.497v6.625c0,1.241,0.174,1.384,1.415,1.428
					c0.057,0,0.101,0.131,0.101,0.245c0,0.116-0.015,0.231-0.058,0.231c-0.274,0-1.197-0.072-1.805-0.072
					c-0.708,0-1.025,0.072-1.688,0.072c-0.088,0-0.104-0.102-0.104-0.289c0-0.129,0.016-0.188,0.189-0.188
					c0.604,0,1.298-0.144,1.298-0.88V5.612H51.662z"/>
				<path fill="#FFFFFF" d="M65.74,11.356c0,2.105,0.043,2.121,1.458,2.192l0.073,0.104v0.272c0,0.086-0.218,0.102-0.348,0.102
					c-0.201,0-1.169-0.072-1.761-0.072c-0.692,0-1.399,0.072-2.149,0.072c-0.058-0.029-0.072-0.115-0.072-0.261
					c0.015-0.187,0.043-0.217,0.461-0.217c0.997,0,1.039-0.216,1.039-1.312V5.337c0-0.82-0.245-1.023-1.457-1.023l-0.043-0.071
					L62.913,4.01c0.014-0.157,0.145-0.173,0.23-0.173c0.389,0,0.852,0.072,1.832,0.072c0.722,0,1.589-0.072,2.166-0.072l0.071,0.104
					v0.259l-0.057,0.087l-0.39,0.028C66.189,4.357,65.74,4.416,65.74,5.08V11.356z"/>
				<path fill="#FFFFFF" d="M69.207,4.802c-0.159-0.389-0.734-0.489-1.141-0.489L67.98,4.241V3.866l0.159-0.03
					c0.605,0,1.485,0.072,1.805,0.072c0.663,0,1.312-0.072,1.976-0.072l0.043,0.044L71.92,4.284l-0.678,0.058
					c-0.229,0.015-0.49,0.102-0.49,0.315c0,0.117,0.072,0.305,0.129,0.435l1.659,4.331l0.94,2.149
					c0.1,0.216,0.115,0.261,0.158,0.261c0.027,0,0.07-0.061,0.129-0.229l2.064-5.473c0.23-0.62,0.404-1.154,0.39-1.328
					c-0.016-0.243-0.088-0.373-0.505-0.415l-0.751-0.074L74.88,4.27V3.822c0.563,0,1.125,0.086,1.689,0.086
					c0.448,0,1.399-0.086,1.501-0.086l0.115,0.058v0.331l-0.128,0.103l-0.45,0.028c-0.289,0.015-0.404,0.158-0.604,0.664
					c-1.372,3.305-1.704,4.346-2.8,7.13l-0.736,1.877c-0.07,0.202-0.101,0.216-0.201,0.216c-0.132,0-0.159-0.042-0.188-0.101
					L69.207,4.802z"/>
				<path fill="#FFFFFF" d="M80.499,5.309c0-0.938-0.708-1.039-1.544-1.039c-0.058,0-0.058-0.072-0.058-0.132V3.979
					c0-0.129,0.246-0.145,0.751-0.145c0.578,0,1.227,0.072,1.833,0.072c0.575,0,1.155-0.072,1.731-0.072h3.045
					c0.115,0,0.13,0.131,0.13,0.288v1.762C86.387,5.943,86.358,6,86.286,6c-0.116,0-0.346,0.017-0.361-0.159l-0.043-0.445
					c-0.088-0.924-0.723-1.083-1.529-1.083h-1.487c-0.81,0-1.068,0.175-1.068,1.271v2.611c0,0.044,0.086,0.115,0.116,0.115
					l1.703-0.059c0.865-0.027,1.112-0.303,1.329-1.066c0.028-0.085,0.072-0.116,0.229-0.116c0.104,0,0.176,0.016,0.176,0.089
					c0,0.302-0.087,0.966-0.087,1.443c0,0.776,0.087,1.197,0.087,1.44c0,0.088-0.146,0.175-0.233,0.175
					c-0.114,0-0.216-0.044-0.245-0.188C84.8,9.639,84.8,9.362,84.727,9.163c-0.073-0.217-0.247-0.318-0.68-0.332L82,8.787
					c-0.202,0-0.202,0.073-0.202,0.173v3.438c0,1.038,0.767,1.065,1.762,1.065h0.779c0.766,0,1.299-0.014,1.66-0.229
					c0.318-0.189,0.765-1.071,0.922-1.43c0.19,0,0.436,0.042,0.436,0.143c0,0.046-0.042,0.16-0.073,0.23l-0.404,1.458
					c-0.115,0.391-0.188,0.391-0.375,0.391c-1.558,0-3.089-0.072-5.181-0.072c-0.477,0-1.689,0.072-2.426,0.072
					c-0.043,0-0.087-0.146-0.087-0.231c0-0.114,0.028-0.245,0.087-0.245c1.258-0.057,1.603-0.187,1.603-1.515L80.499,5.309
					L80.499,5.309z"/>
				<path fill="#FFFFFF" d="M90.016,5.396c0-0.724-0.03-1.083-0.938-1.083h-0.591c-0.086,0-0.1-0.159-0.1-0.274
					c0-0.071,0.043-0.202,0.1-0.202c0.835,0,1.688,0.044,2.526,0.044c0.662,0,1.312-0.044,1.978-0.044
					c1.473,0,2.916,0.981,2.916,2.497c0,1.313-1.198,2.194-2.324,2.367V8.73c0.563,0.131,1.154,1.185,1.3,1.415l1.588,2.426
					c0.505,0.764,0.838,0.907,1.702,0.951l0.086,0.087v0.272c0,0.131-0.102,0.146-0.157,0.146c-0.303,0-0.75-0.043-0.968-0.043
					c-0.347,0-0.692,0.043-1.04,0.043c-0.33,0-0.981-0.967-1.833-2.482c-0.938-1.661-1.486-2.568-2.438-2.568
					c-0.117,0-0.289,0-0.506,0.027v3.538c0,0.52,0,1.009,0.722,1.009c0.548,0,0.794,0,0.794,0.116c0,0.273-0.044,0.36-0.26,0.36
					c-0.75,0-1.372-0.072-1.993-0.072c-0.245,0-1.847,0.072-2.049,0.072c-0.086,0-0.115-0.188-0.115-0.303
					c0-0.13,0.058-0.158,0.348-0.175c0.995-0.044,1.254-0.187,1.254-1.184L90.016,5.396L90.016,5.396z M91.315,8.471
					c0.188,0.014,0.359,0.027,0.548,0.027c1.156,0,2.599-0.405,2.599-2.107c0-1.271-0.866-2.094-2.137-2.094
					c-0.982,0-1.01,0.231-1.01,0.664V8.471z"/>
				<path fill="#FFFFFF" d="M100.544,8.771c-1.04-0.62-1.458-1.197-1.458-2.322c0-1.804,1.474-2.814,3.421-2.814
					c0.55,0,1.328,0.188,1.818,0.403l0.101,1.804v0.072c0,0.073-0.144,0.104-0.346,0.104c-0.188,0-0.216-0.087-0.229-0.231
					c-0.103-0.968-0.793-1.588-1.819-1.588c-0.981,0-1.746,0.691-1.746,1.617c0,1.039,0.634,1.442,2.078,2.208
					c1.429,0.749,2.671,1.414,2.671,3.219c0,1.962-1.776,2.986-3.579,2.986c-0.592,0-1.574-0.188-2.123-0.417
					c-0.115-0.06-0.159-0.245-0.201-0.562l-0.174-1.356c0-0.086,0.289-0.086,0.375-0.086c0.043,0,0.086,0.027,0.115,0.128
					c0.333,1.099,1.083,1.732,2.238,1.732c1.01,0,1.977-0.88,1.977-1.86c0-0.939-0.534-1.504-1.285-1.95L100.544,8.771z"/>
				<path fill="#FFFFFF" d="M109.063,11.356c0,2.105,0.043,2.121,1.458,2.192l0.071,0.104v0.272c0,0.086-0.217,0.102-0.349,0.102
					c-0.2,0-1.168-0.072-1.76-0.072c-0.693,0-1.399,0.072-2.15,0.072c-0.058-0.029-0.072-0.115-0.072-0.261
					c0.015-0.187,0.043-0.217,0.461-0.217c0.998,0,1.04-0.216,1.04-1.312V5.337c0-0.82-0.245-1.023-1.458-1.023l-0.043-0.071
					l-0.028-0.232c0.015-0.157,0.145-0.173,0.23-0.173c0.391,0,0.852,0.072,1.833,0.072c0.723,0,1.588-0.072,2.166-0.072
					l0.071,0.104v0.259l-0.057,0.087l-0.393,0.028c-0.577,0.043-1.023,0.102-1.023,0.766v6.276H109.063z"/>
				<path fill="#FFFFFF" d="M116.729,12.483c0,1.065,0.722,1.065,1.616,1.065l0.087,0.073v0.23c0,0.173-0.072,0.173-0.306,0.173
					c-0.288,0-0.995-0.072-2.005-0.072c-0.793,0-2.034,0.072-2.382,0.072c-0.029-0.102-0.058-0.173-0.058-0.261
					c0-0.042,0.015-0.13,0.058-0.157l0.146-0.06h0.174c1.312,0,1.371-0.445,1.371-1.645v-6.84l-0.043-0.664h-1.935
					c-1.098,0-1.271,0.691-1.545,1.617c-0.028,0.086-0.086,0.129-0.173,0.129c-0.202,0-0.333-0.06-0.333-0.146
					c0-0.244,0.174-1.587,0.174-2.728c0-0.059,0.203-0.059,0.404-0.059c0.462,0.62,0.606,0.62,1.228,0.62h5.369
					c1.011,0,1.299-0.304,1.66-0.75c0.101,0,0.433,0,0.433,0.13c0,0.115-0.289,1.301-0.317,2.339c0,0.158-0.043,0.463-0.114,0.463
					c-0.129,0-0.462-0.073-0.462-0.146l-0.059-0.721c-0.058-0.735-0.404-0.75-0.994-0.75h-1.993L116.729,12.483L116.729,12.483z"/>
			</g>
			<path fill="#FFFFFF" d="M125.617,9.438c0-0.146-0.014-0.335-0.173-0.567l-3.256-4.404c-0.088-0.131-0.218-0.202-0.555-0.217
				l-0.551-0.031l-0.087-0.042V3.798l0.087-0.044l0.175,0.001c0.246,0,1.803,0.071,2.077,0.071c0.364,0,0.947-0.071,1.425-0.072
				c0.319,0,0.466,0,0.466,0.088v0.176c0,0.145-0.044,0.217-0.088,0.217l-0.842,0.029c-0.205,0-0.335,0.087-0.335,0.246
				c0,0.059,0.086,0.204,0.234,0.392l2.078,2.895c0.116,0.16,0.247,0.306,0.393,0.437c0.276-0.263,1.557-2.021,2.182-2.937
				c0.231-0.335,0.362-0.609,0.362-0.728c0-0.202-0.115-0.29-0.538-0.305l-0.728-0.029c0.015,0,0-0.217,0-0.275
				c0-0.073,0.015-0.16,0.088-0.203c0.567,0.059,1.264,0.071,1.889,0.071c0.424,0,1.062-0.071,1.25-0.072l0.087,0.06v0.334
				L131.2,4.207l-0.539,0.028c-0.464,0.029-1.046,1.018-1.322,1.396l-2.411,3.301v3.415c0,0.306,0.013,0.566,0.043,0.653
				c0.115,0.349,0.492,0.539,1.031,0.539h0.393l0.13,0.059v0.405l-0.072,0.016h-0.218c-0.64,0-1.263-0.073-1.904-0.073
				c-0.652,0-1.323,0.073-1.975,0.073h-0.205l-0.117-0.03v-0.247c0-0.085,0.028-0.188,0.146-0.201l0.683-0.075
				c0.422-0.042,0.756-0.187,0.756-0.913V9.438L125.617,9.438z"/>
		</g>
	</g>
</g>
</svg>
